LondrinaTHin-Regular_ik.ufo
<glyph name="exclam" format="1">
  <advance width="217"/>
  <unicode hex="0021"/>
  <outline>
    <contour>
      <point x="85" y="1" type="qcurve"/>
      <point x="82" y="1"/>
      <point x="82" y="27"/>
      <point x="84" y="64"/>
      <point x="88" y="104"/>
      <point x="88" y="118" type="qcurve"/>
      <point x="88" y="119" type="line"/>
      <point x="100" y="124"/>
      <point x="123" y="121"/>
      <point x="138" y="121" type="qcurve"/>
      <point x="137" y="93"/>
      <point x="135" y="30"/>
      <point x="135" y="1" type="qcurve"/>
      <point x="128" y="1" type="line"/>
      <point x="121" y="1"/>
    </contour>
    <contour>
      <point x="95" y="702" type="line"/>
      <point x="109" y="704"/>
      <point x="123" y="706"/>
      <point x="141" y="704" type="qcurve"/>
      <point x="139" y="576"/>
      <point x="136" y="303"/>
      <point x="142" y="175" type="qcurve"/>
      <point x="124" y="172"/>
      <point x="107" y="171"/>
      <point x="90" y="170" type="qcurve"/>
      <point x="89" y="170" type="line"/>
      <point x="90" y="236"/>
      <point x="89" y="368"/>
      <point x="87" y="500"/>
      <point x="88" y="634"/>
      <point x="92" y="702" type="qcurve"/>
    </contour>
  </outline>
</glyph>
<glyph name="quotedbl" format="1">
  <advance width="378"/>
  <unicode hex="0022"/>
  <outline>
    <contour>
      <point x="65" y="704" type="line"/>
      <point x="69" y="704"/>
      <point x="83" y="708"/>
      <point x="96" y="711"/>
      <point x="112" y="710"/>
      <point x="114" y="706" type="qcurve"/>
      <point x="114" y="689"/>
      <point x="115" y="614"/>
      <point x="116" y="533"/>
      <point x="116" y="467"/>
      <point x="116" y="460" type="qcurve"/>
      <point x="116" y="460"/>
      <point x="94" y="460"/>
      <point x="81" y="459"/>
      <point x="72" y="459"/>
      <point x="62" y="459" type="qcurve"/>
      <point x="62" y="460" type="line"/>
      <point x="62" y="505"/>
      <point x="60" y="566"/>
      <point x="60" y="617"/>
      <point x="62" y="667"/>
      <point x="64" y="702" type="qcurve"/>
      <point x="64" y="704" type="line"/>
    </contour>
    <contour>
      <point x="268" y="704" type="line"/>
      <point x="272" y="704"/>
      <point x="282" y="708"/>
      <point x="294" y="711"/>
      <point x="314" y="710"/>
      <point x="316" y="706" type="qcurve"/>
      <point x="316" y="689"/>
      <point x="317" y="614"/>
      <point x="318" y="533"/>
      <point x="318" y="467"/>
      <point x="318" y="460" type="qcurve"/>
      <point x="318" y="460"/>
      <point x="300" y="460"/>
      <point x="290" y="459"/>
      <point x="275" y="459"/>
      <point x="265" y="459" type="qcurve"/>
      <point x="265" y="460" type="line"/>
      <point x="265" y="505"/>
      <point x="263" y="566"/>
      <point x="263" y="617"/>
      <point x="265" y="667"/>
      <point x="267" y="702" type="qcurve"/>
      <point x="267" y="704" type="line"/>
    </contour>
  </outline>
</glyph>
<glyph name="parenright" format="1">
  <advance width="313"/>
  <unicode hex="0029"/>
  <outline>
    <contour>
      <point x="207" y="41" type="qcurve"/>
      <point x="229" y="58"/>
      <point x="245" y="80" type="qcurve"/>
      <point x="246" y="81"/>
      <point x="249" y="87" type="qcurve"/>
      <point x="268" y="121"/>
      <point x="281" y="177"/>
      <point x="283" y="203" type="qcurve"/>
      <point x="281" y="256"/>
      <point x="276" y="369"/>
      <point x="277" y="420" type="qcurve"/>
      <point x="277" y="444" type="line"/>
      <point x="276" y="466"/>
      <point x="277" y="512"/>
      <point x="274" y="557"/>
      <point x="265" y="601"/>
      <point x="253" y="621" type="qcurve"/>
      <point x="228" y="669"/>
      <point x="148" y="710"/>
      <point x="103" y="711" type="qcurve"/>
      <point x="86" y="710"/>
      <point x="47" y="707"/>
      <point x="30" y="705" type="qcurve"/>
      <point x="29" y="704" type="line"/>
      <point x="25" y="673"/>
      <point x="30" y="664" type="qcurve"/>
      <point x="44" y="660"/>
      <point x="132" y="660"/>
      <point x="192" y="628"/>
      <point x="211" y="601"/>
      <point x="219" y="566"/>
      <point x="220" y="559" type="qcurve"/>
      <point x="242" y="207"/>
      <point x="227" y="166" type="qcurve"/>
      <point x="207" y="98"/>
      <point x="119" y="41"/>
      <point x="26" y="57" type="qcurve"/>
      <point x="28" y="9" type="line"/>
      <point x="34" y="1"/>
      <point x="59" y="0"/>
      <point x="70" y="0" type="qcurve"/>
      <point x="87" y="0" type="line"/>
      <point x="119" y="1"/>
      <point x="152" y="11" type="qcurve"/>
      <point x="181" y="21"/>
    </contour>
  </outline>
</glyph>
<glyph name="plus" format="1">
  <advance width="445"/>
  <unicode hex="002B"/>
  <outline>
    <contour>
      <point x="195" y="114" type="qcurve"/>
      <point x="195" y="115"/>
      <point x="194" y="115"/>
      <point x="194" y="117" type="qcurve"/>
      <point x="192" y="132"/>
      <point x="192" y="155"/>
      <point x="193" y="201"/>
      <point x="193" y="230"/>
      <point x="192" y="266" type="qcurve"/>
      <point x="192" y="274"/>
      <point x="191" y="285"/>
      <point x="190" y="286" type="qcurve"/>
      <point x="188" y="286" type="line"/>
      <point x="182" y="286"/>
      <point x="150" y="288"/>
      <point x="60" y="290"/>
      <point x="28" y="294"/>
      <point x="24" y="296" type="qcurve"/>
      <point x="23" y="297"/>
      <point x="24" y="304"/>
      <point x="21" y="336"/>
      <point x="21" y="339" type="qcurve"/>
      <point x="24" y="338"/>
      <point x="62" y="341"/>
      <point x="160" y="344"/>
      <point x="198" y="348"/>
      <point x="201" y="349" type="qcurve"/>
      <point x="201" y="360"/>
      <point x="202" y="471"/>
      <point x="201" y="496"/>
      <point x="202" y="506" type="qcurve"/>
      <point x="203" y="512"/>
      <point x="204" y="519"/>
      <point x="205" y="524" type="qcurve"/>
      <point x="206" y="520"/>
      <point x="222" y="520"/>
      <point x="247" y="521"/>
      <point x="255" y="520" type="qcurve"/>
      <point x="255" y="509"/>
      <point x="255" y="471"/>
      <point x="255" y="354"/>
      <point x="257" y="349" type="qcurve"/>
      <point x="269" y="348"/>
      <point x="305" y="348"/>
      <point x="353" y="348"/>
      <point x="412" y="347"/>
      <point x="423" y="345" type="qcurve"/>
      <point x="423" y="319"/>
      <point x="419" y="294" type="qcurve"/>
      <point x="416" y="292"/>
      <point x="382" y="291"/>
      <point x="300" y="291"/>
      <point x="260" y="290"/>
      <point x="255" y="287" type="qcurve"/>
      <point x="256" y="278"/>
      <point x="254" y="226"/>
      <point x="251" y="159"/>
      <point x="248" y="125"/>
      <point x="248" y="118" type="qcurve"/>
      <point x="248" y="116" type="line"/>
      <point x="248" y="113"/>
      <point x="213" y="113"/>
      <point x="197" y="115"/>
    </contour>
  </outline>
</glyph>
<glyph name="one" format="1">
  <advance width="307"/>
  <unicode hex="0031"/>
  <outline>
    <contour>
      <point x="253" y="5" type="qcurve"/>
      <point x="243" y="5"/>
      <point x="214" y="3"/>
      <point x="194" y="5" type="qcurve"/>
      <point x="194" y="6" type="line"/>
      <point x="194" y="103" type="line"/>
      <point x="195" y="203"/>
      <point x="202" y="407"/>
      <point x="203" y="623" type="qcurve"/>
      <point x="203" y="628"/>
      <point x="203" y="636"/>
      <point x="202" y="641" type="qcurve"/>
      <point x="197" y="642"/>
      <point x="189" y="625"/>
      <point x="80" y="452"/>
      <point x="72" y="452" type="qcurve"/>
      <point x="67" y="452"/>
      <point x="23" y="466"/>
      <point x="23" y="471" type="qcurve"/>
      <point x="52" y="523"/>
      <point x="114" y="621"/>
      <point x="150" y="679"/>
      <point x="169" y="708"/>
      <point x="171" y="710" type="qcurve"/>
      <point x="194" y="711"/>
      <point x="260" y="710" type="qcurve"/>
      <point x="263" y="667"/>
      <point x="261" y="584"/>
      <point x="261" y="542" type="qcurve"/>
      <point x="265" y="427"/>
      <point x="254" y="203"/>
      <point x="254" y="88" type="qcurve"/>
      <point x="254" y="71"/>
      <point x="254" y="35"/>
    </contour>
  </outline>
</glyph>
<glyph name="two" format="1">
  <advance width="498"/>
  <unicode hex="0032"/>
  <outline>
    <contour>
      <point x="76" y="-1" type="line"/>
      <point x="31" y="-1" type="line"/>
      <point x="30" y="0"/>
      <point x="30" y="2" type="qcurve"/>
      <point x="29" y="29"/>
      <point x="35" y="82"/>
      <point x="51" y="108" type="qcurve"/>
      <point x="83" y="159"/>
      <point x="250" y="293"/>
      <point x="421" y="377"/>
      <point x="426" y="433" type="qcurve"/>
      <point x="430" y="468"/>
      <point x="408" y="616"/>
      <point x="326" y="669"/>
      <point x="255" y="667" type="qcurve"/>
      <point x="231" y="667"/>
      <point x="133" y="642"/>
      <point x="87" y="549"/>
      <point x="95" y="442"/>
      <point x="94" y="424" type="qcurve"/>
      <point x="94" y="422" type="line"/>
      <point x="93" y="422" type="line"/>
      <point x="72" y="414"/>
      <point x="38" y="418" type="qcurve"/>
      <point x="37" y="418" type="line"/>
      <point x="37" y="420" type="line"/>
      <point x="25" y="489"/>
      <point x="50" y="610"/>
      <point x="87" y="651" type="qcurve"/>
      <point x="107" y="677"/>
      <point x="181" y="705"/>
      <point x="265" y="713"/>
      <point x="346" y="704"/>
      <point x="373" y="693" type="qcurve"/>
      <point x="418" y="670"/>
      <point x="466" y="580"/>
      <point x="471" y="526" type="qcurve"/>
      <point x="472" y="505"/>
      <point x="474" y="456"/>
      <point x="473" y="436" type="qcurve"/>
      <point x="470" y="399"/>
      <point x="439" y="348"/>
      <point x="394" y="310"/>
      <point x="339" y="282"/>
      <point x="253" y="230"/>
      <point x="121" y="116" type="qcurve"/>
      <point x="112" y="101"/>
      <point x="107" y="76"/>
      <point x="106" y="61"/>
      <point x="110" y="59" type="qcurve"/>
      <point x="177" y="57"/>
      <point x="387" y="56"/>
      <point x="454" y="63" type="qcurve"/>
      <point x="460" y="36"/>
      <point x="457" y="16"/>
      <point x="460" y="5" type="qcurve"/>
      <point x="460" y="4"/>
      <point x="456" y="4" type="qcurve"/>
    </contour>
  </outline>
</glyph>
<glyph name="six" format="1">
  <advance width="503"/>
  <unicode hex="0036"/>
  <outline>
    <contour>
      <point x="481" y="203" type="line"/>
      <point x="487" y="143"/>
      <point x="441" y="60"/>
      <point x="359" y="11"/>
      <point x="252" y="-7"/>
      <point x="197" y="-1" type="qcurve"/>
      <point x="152" y="7"/>
      <point x="92" y="58"/>
      <point x="54" y="134"/>
      <point x="36" y="229"/>
      <point x="31" y="333"/>
      <point x="35" y="440"/>
      <point x="38" y="489" type="qcurve"/>
      <point x="40" y="510"/>
      <point x="40" y="551"/>
      <point x="47" y="575"/>
      <point x="49" y="581"/>
      <point x="51" y="585" type="qcurve"/>
      <point x="64" y="615"/>
      <point x="115" y="661"/>
      <point x="180" y="692"/>
      <point x="253" y="708"/>
      <point x="289" y="708" type="qcurve"/>
      <point x="336" y="709"/>
      <point x="410" y="670"/>
      <point x="456" y="605"/>
      <point x="471" y="525"/>
      <point x="460" y="485" type="qcurve"/>
      <point x="431" y="480"/>
      <point x="412" y="485" type="qcurve"/>
      <point x="410" y="485" type="line"/>
      <point x="410" y="486" type="line"/>
      <point x="409" y="503"/>
      <point x="410" y="597"/>
      <point x="370" y="636" type="qcurve"/>
      <point x="285" y="684"/>
      <point x="95" y="598"/>
      <point x="88" y="471"/>
      <point x="83" y="348"/>
      <point x="88" y="276"/>
      <point x="87" y="248" type="qcurve"/>
      <point x="87" y="247" type="line"/>
      <point x="105" y="314"/>
      <point x="200" y="345" type="qcurve"/>
      <point x="287" y="376"/>
      <point x="376" y="354" type="qcurve"/>
      <point x="419" y="340"/>
      <point x="445" y="311" type="qcurve"/>
      <point x="460" y="297"/>
      <point x="476" y="250"/>
      <point x="479" y="227" type="qcurve"/>
    </contour>
    <contour>
      <point x="433" y="219" type="line"/>
      <point x="428" y="260"/>
      <point x="348" y="319"/>
      <point x="252" y="318"/>
      <point x="170" y="281"/>
      <point x="124" y="227"/>
      <point x="110" y="118"/>
      <point x="195" y="34"/>
      <point x="307" y="40"/>
      <point x="396" y="83"/>
      <point x="433" y="136"/>
      <point x="433" y="206" type="qcurve"/>
      <point x="433" y="215" type="line"/>
    </contour>
  </outline>
</glyph>
<glyph name="eight" format="1">
  <advance width="490"/>
  <unicode hex="0038"/>
  <outline>
    <contour>
      <point x="463" y="513" type="line"/>
      <point x="463" y="495" type="line"/>
      <point x="463" y="487"/>
      <point x="461" y="471"/>
      <point x="459" y="464" type="qcurve"/>
      <point x="451" y="428"/>
      <point x="418" y="372"/>
      <point x="386" y="346" type="qcurve"/>
      <point x="386" y="345" type="line"/>
      <point x="423" y="318"/>
      <point x="459" y="240"/>
      <point x="462" y="156"/>
      <point x="433" y="75"/>
      <point x="406" y="45" type="qcurve"/>
      <point x="389" y="25"/>
      <point x="335" y="-1"/>
      <point x="271" y="-13"/>
      <point x="202" y="-11"/>
      <point x="138" y="5"/>
      <point x="86" y="35"/>
      <point x="70" y="57" type="qcurve"/>
      <point x="46" y="87"/>
      <point x="23" y="164"/>
      <point x="26" y="245"/>
      <point x="56" y="322"/>
      <point x="87" y="352" type="qcurve"/>
      <point x="61" y="379"/>
      <point x="34" y="451"/>
      <point x="32" y="529"/>
      <point x="53" y="605"/>
      <point x="96" y="667"/>
      <point x="159" y="706"/>
      <point x="200" y="708" type="qcurve"/>
      <point x="235" y="709"/>
      <point x="289" y="709"/>
      <point x="332" y="705"/>
      <point x="366" y="695"/>
      <point x="383" y="685" type="qcurve"/>
      <point x="390" y="680"/>
      <point x="402" y="672"/>
      <point x="413" y="661"/>
      <point x="427" y="644"/>
      <point x="436" y="630" type="qcurve"/>
      <point x="439" y="625"/>
      <point x="449" y="601"/>
      <point x="451" y="592" type="qcurve"/>
      <point x="455" y="576"/>
      <point x="459" y="555"/>
      <point x="461" y="541" type="qcurve"/>
      <point x="462" y="536"/>
      <point x="463" y="528"/>
      <point x="463" y="523" type="qcurve"/>
      <point x="463" y="519" type="line"/>
    </contour>
    <contour>
      <point x="411" y="138" type="qcurve"/>
      <point x="421" y="176"/>
      <point x="414" y="234"/>
      <point x="372" y="292"/>
      <point x="319" y="322"/>
      <point x="246" y="327" type="qcurve"/>
      <point x="114" y="323"/>
      <point x="60" y="197"/>
      <point x="85" y="104"/>
      <point x="113" y="64"/>
      <point x="161" y="45" type="qcurve"/>
      <point x="198" y="32"/>
      <point x="277" y="35"/>
      <point x="312" y="41" type="qcurve"/>
      <point x="383" y="59"/>
      <point x="396" y="99" type="qcurve"/>
      <point x="405" y="107"/>
    </contour>
    <contour>
      <point x="416" y="475" type="qcurve"/>
      <point x="416" y="478"/>
      <point x="420" y="486"/>
      <point x="420" y="494" type="qcurve"/>
      <point x="420" y="500"/>
      <point x="423" y="562"/>
      <point x="398" y="623"/>
      <point x="376" y="638" type="qcurve"/>
      <point x="345" y="668"/>
      <point x="239" y="677"/>
      <point x="189" y="666" type="qcurve"/>
      <point x="148" y="650"/>
      <point x="90" y="569"/>
      <point x="75" y="475"/>
      <point x="107" y="401"/>
      <point x="157" y="379" type="qcurve"/>
      <point x="195" y="364"/>
      <point x="286" y="364"/>
      <point x="324" y="370" type="qcurve"/>
      <point x="373" y="389"/>
      <point x="410" y="445"/>
    </contour>
  </outline>
</glyph>
<glyph name="semicolon" format="1">
  <advance width="205"/>
  <unicode hex="003B"/>
  <outline>
    <contour>
      <point x="82" y="337" type="line"/>
      <point x="79" y="337" type="line"/>
      <point x="77" y="348"/>
      <point x="76" y="382"/>
      <point x="77" y="416"/>
      <point x="78" y="446"/>
      <point x="78" y="453" type="qcurve"/>
      <point x="88" y="457"/>
      <point x="115" y="461"/>
      <point x="129" y="458"/>
      <point x="136" y="455" type="qcurve"/>
      <point x="136" y="454"/>
      <point x="134" y="423"/>
      <point x="132" y="383"/>
      <point x="130" y="345"/>
      <point x="130" y="338" type="qcurve"/>
      <point x="130" y="337" type="line"/>
      <point x="130" y="336" type="line"/>
      <point x="128" y="336" type="line"/>
    </contour>
    <contour>
      <point x="118" y="-61" type="line"/>
      <point x="116" y="-71"/>
      <point x="112" y="-90"/>
      <point x="110" y="-100" type="qcurve"/>
      <point x="105" y="-98"/>
      <point x="73" y="-98" type="qcurve"/>
      <point x="71" y="-96"/>
      <point x="76" y="-76"/>
      <point x="84" y="-47"/>
      <point x="91" y="-15"/>
      <point x="93" y="-1" type="qcurve"/>
      <point x="74" y="3" type="line"/>
      <point x="72" y="3"/>
      <point x="71" y="4" type="qcurve"/>
      <point x="71" y="5"/>
      <point x="71" y="11"/>
      <point x="72" y="33"/>
      <point x="73" y="78"/>
      <point x="75" y="119" type="qcurve"/>
      <point x="75" y="120" type="line"/>
      <point x="76" y="120" type="line"/>
      <point x="104" y="121"/>
      <point x="136" y="119" type="qcurve"/>
      <point x="137" y="119" type="line"/>
      <point x="133" y="4" type="line"/>
      <point x="131" y="4" type="line"/>
      <point x="131" y="3"/>
      <point x="130" y="2"/>
      <point x="130" y="1" type="qcurve"/>
      <point x="130" y="-3"/>
      <point x="127" y="-16"/>
      <point x="126" y="-21" type="qcurve"/>
    </contour>
  </outline>
</glyph>
<glyph name="less" format="1">
  <advance width="363"/>
  <unicode hex="003C"/>
  <outline>
    <contour>
      <point x="280" y="32" type="line"/>
      <point x="265" y="19" type="line"/>
      <point x="264" y="20" type="line"/>
      <point x="234" y="51"/>
      <point x="169" y="108"/>
      <point x="108" y="168"/>
      <point x="41" y="232"/>
      <point x="13" y="270" type="qcurve"/>
      <point x="32" y="294"/>
      <point x="78" y="343"/>
      <point x="128" y="394"/>
      <point x="178" y="445"/>
      <point x="201" y="469" type="qcurve"/>
      <point x="216" y="485"/>
      <point x="244" y="514"/>
      <point x="258" y="528" type="qcurve"/>
      <point x="267" y="523"/>
      <point x="285" y="504"/>
      <point x="288" y="497" type="qcurve"/>
      <point x="273" y="478"/>
      <point x="229" y="432"/>
      <point x="144" y="343"/>
      <point x="95" y="291"/>
      <point x="76" y="267" type="qcurve"/>
      <point x="126" y="212"/>
      <point x="250" y="92"/>
      <point x="298" y="53" type="qcurve"/>
    </contour>
  </outline>
</glyph>
<glyph name="equal" format="1">
  <advance width="466"/>
  <unicode hex="003D"/>
  <outline>
    <contour>
      <point x="36" y="159" type="qcurve"/>
      <point x="36" y="171"/>
      <point x="38" y="179"/>
      <point x="39" y="207"/>
      <point x="39" y="210" type="qcurve"/>
      <point x="40" y="210"/>
      <point x="100" y="210"/>
      <point x="191" y="210"/>
      <point x="299" y="210"/>
      <point x="396" y="210"/>
      <point x="416" y="210"/>
      <point x="421" y="210" type="qcurve"/>
      <point x="422" y="182"/>
      <point x="424" y="152" type="qcurve"/>
      <point x="423" y="152" type="line"/>
      <point x="425" y="152"/>
      <point x="411" y="152"/>
      <point x="315" y="154"/>
      <point x="205" y="156"/>
      <point x="109" y="157"/>
      <point x="41" y="159"/>
    </contour>
    <contour>
      <point x="36" y="369" type="qcurve"/>
      <point x="36" y="381"/>
      <point x="38" y="389"/>
      <point x="39" y="417"/>
      <point x="39" y="420" type="qcurve"/>
      <point x="40" y="420"/>
      <point x="100" y="420"/>
      <point x="191" y="420"/>
      <point x="299" y="420"/>
      <point x="396" y="420"/>
      <point x="416" y="420"/>
      <point x="421" y="420" type="qcurve"/>
      <point x="422" y="392"/>
      <point x="424" y="362" type="qcurve"/>
      <point x="423" y="362" type="line"/>
      <point x="425" y="362"/>
      <point x="411" y="362"/>
      <point x="315" y="364"/>
      <point x="205" y="366"/>
      <point x="109" y="367"/>
      <point x="41" y="369"/>
    </contour>
  </outline>
</glyph>
<glyph name="greater" format="1">
  <advance width="363"/>
  <unicode hex="003E"/>
  <outline>
    <contour>
      <point x="82" y="32" type="line"/>
      <point x="97" y="19" type="line"/>
      <point x="98" y="20" type="line"/>
      <point x="128" y="51"/>
      <point x="193" y="108"/>
      <point x="254" y="168"/>
      <point x="321" y="232"/>
      <point x="349" y="270" type="qcurve"/>
      <point x="330" y="294"/>
      <point x="284" y="343"/>
      <point x="234" y="394"/>
      <point x="184" y="445"/>
      <point x="161" y="469" type="qcurve"/>
      <point x="146" y="485"/>
      <point x="118" y="514"/>
      <point x="104" y="528" type="qcurve"/>
      <point x="95" y="523"/>
      <point x="77" y="504"/>
      <point x="74" y="497" type="qcurve"/>
      <point x="89" y="478"/>
      <point x="133" y="432"/>
      <point x="218" y="343"/>
      <point x="267" y="291"/>
      <point x="286" y="267" type="qcurve"/>
      <point x="236" y="212"/>
      <point x="112" y="92"/>
      <point x="64" y="53" type="qcurve"/>
    </contour>
  </outline>
</glyph>
<glyph name="at" format="1">
  <advance width="564"/>
  <unicode hex="0040"/>
  <outline>
    <contour>
      <point x="395" y="462" type="line"/>
      <point x="406" y="450"/>
      <point x="404" y="399" type="qcurve"/>
      <point x="403" y="386"/>
      <point x="403" y="322"/>
      <point x="405" y="286"/>
      <point x="401" y="238"/>
      <point x="410" y="185"/>
      <point x="479" y="216" type="qcurve"/>
      <point x="490" y="253"/>
      <point x="494" y="279"/>
      <point x="496" y="305"/>
      <point x="496" y="313" type="qcurve"/>
      <point x="497" y="330"/>
      <point x="496" y="359"/>
      <point x="495" y="373" type="qcurve"/>
      <point x="495" y="401" type="line"/>
      <point x="494" y="422"/>
      <point x="484" y="512"/>
      <point x="428" y="585"/>
      <point x="388" y="611"/>
      <point x="333" y="621"/>
      <point x="241" y="628"/>
      <point x="159" y="609"/>
      <point x="139" y="589" type="qcurve"/>
      <point x="125" y="574"/>
      <point x="94" y="532"/>
      <point x="82" y="467"/>
      <point x="79" y="421"/>
      <point x="78" y="400" type="qcurve"/>
      <point x="77" y="389"/>
      <point x="77" y="366"/>
      <point x="77" y="355" type="qcurve"/>
      <point x="77" y="324"/>
      <point x="77" y="277"/>
      <point x="83" y="222" type="qcurve"/>
      <point x="88" y="147"/>
      <point x="144" y="66"/>
      <point x="171" y="49" type="qcurve"/>
      <point x="218" y="22"/>
      <point x="288" y="20"/>
      <point x="313" y="20" type="qcurve"/>
      <point x="321" y="20"/>
      <point x="337" y="21"/>
      <point x="343" y="21" type="qcurve"/>
      <point x="342" y="21" type="line"/>
      <point x="360" y="22"/>
      <point x="405" y="33"/>
      <point x="451" y="48"/>
      <point x="496" y="66"/>
      <point x="514" y="75" type="qcurve"/>
      <point x="531" y="42" type="line"/>
      <point x="517" y="33"/>
      <point x="481" y="15"/>
      <point x="443" y="-1"/>
      <point x="406" y="-13"/>
      <point x="392" y="-15" type="qcurve"/>
      <point x="369" y="-20"/>
      <point x="319" y="-23"/>
      <point x="293" y="-23" type="qcurve"/>
      <point x="257" y="-23"/>
      <point x="224" y="-20" type="qcurve"/>
      <point x="184" y="-15"/>
      <point x="114" y="21"/>
      <point x="90" y="53" type="qcurve"/>
      <point x="81" y="66"/>
      <point x="63" y="103"/>
      <point x="50" y="142"/>
      <point x="41" y="181"/>
      <point x="40" y="195" type="qcurve"/>
      <point x="37" y="246"/>
      <point x="33" y="328"/>
      <point x="33" y="376" type="qcurve"/>
      <point x="33" y="406" type="line"/>
      <point x="34" y="454"/>
      <point x="51" y="549"/>
      <point x="83" y="590" type="qcurve"/>
      <point x="111" y="625"/>
      <point x="187" y="651"/>
      <point x="229" y="656" type="qcurve"/>
      <point x="240" y="658"/>
      <point x="268" y="659"/>
      <point x="280" y="659" type="qcurve"/>
      <point x="301" y="659"/>
      <point x="343" y="655"/>
      <point x="363" y="652" type="qcurve"/>
      <point x="392" y="648"/>
      <point x="447" y="624"/>
      <point x="470" y="602" type="qcurve"/>
      <point x="493" y="581"/>
      <point x="518" y="527"/>
      <point x="530" y="468"/>
      <point x="533" y="408"/>
      <point x="533" y="380" type="qcurve"/>
      <point x="533" y="326" type="line"/>
      <point x="533" y="296"/>
      <point x="531" y="259"/>
      <point x="527" y="236" type="qcurve"/>
      <point x="520" y="198"/>
      <point x="461" y="155"/>
      <point x="418" y="154" type="qcurve"/>
      <point x="407" y="154"/>
      <point x="386" y="162"/>
      <point x="377" y="167" type="qcurve"/>
      <point x="375" y="169"/>
      <point x="364" y="180"/>
      <point x="359" y="187" type="qcurve"/>
      <point x="326" y="160"/>
      <point x="278" y="160" type="qcurve"/>
      <point x="226" y="160"/>
      <point x="193" y="196" type="qcurve"/>
      <point x="173" y="219"/>
      <point x="163" y="287"/>
      <point x="164" y="315" type="qcurve"/>
      <point x="166" y="380"/>
      <point x="206" y="426" type="qcurve"/>
      <point x="214" y="436"/>
      <point x="241" y="455"/>
      <point x="275" y="470"/>
      <point x="314" y="479"/>
      <point x="333" y="479" type="qcurve"/>
      <point x="349" y="479"/>
      <point x="379" y="472"/>
      <point x="392" y="464" type="qcurve"/>
    </contour>
    <contour>
      <point x="210" y="257" type="line"/>
      <point x="217" y="222"/>
      <point x="265" y="196"/>
      <point x="300" y="204" type="qcurve"/>
      <point x="355" y="214"/>
      <point x="363" y="273"/>
      <point x="363" y="310" type="qcurve"/>
      <point x="363" y="319"/>
      <point x="361" y="404"/>
      <point x="362" y="438"/>
      <point x="363" y="438" type="qcurve"/>
      <point x="325" y="438"/>
      <point x="258" y="424"/>
      <point x="218" y="363"/>
      <point x="210" y="292"/>
      <point x="210" y="260" type="qcurve"/>
    </contour>
  </outline>
</glyph>
<glyph name="B" format="1">
  <advance width="477"/>
  <unicode hex="0042"/>
  <outline>
    <contour>
      <point x="395" y="331" type="qcurve"/>
      <point x="411" y="311"/>
      <point x="440" y="272"/>
      <point x="461" y="229"/>
      <point x="469" y="177"/>
      <point x="463" y="145" type="qcurve"/>
      <point x="455" y="98"/>
      <point x="410" y="39"/>
      <point x="346" y="7"/>
      <point x="268" y="-4"/>
      <point x="185" y="-5"/>
      <point x="102" y="1"/>
      <point x="66" y="2" type="qcurve"/>
      <point x="60" y="2"/>
      <point x="49" y="2"/>
      <point x="44" y="4" type="qcurve"/>
      <point x="38" y="177"/>
      <point x="44" y="518"/>
      <point x="41" y="692" type="qcurve"/>
      <point x="42" y="693" type="line"/>
      <point x="82" y="704"/>
      <point x="172" y="716"/>
      <point x="260" y="712"/>
      <point x="341" y="690"/>
      <point x="403" y="641"/>
      <point x="439" y="564"/>
      <point x="439" y="508" type="qcurve"/>
      <point x="439" y="466"/>
      <point x="410" y="386"/>
      <point x="390" y="352" type="qcurve"/>
      <point x="386" y="345"/>
      <point x="390" y="337"/>
    </contour>
    <contour>
      <point x="375" y="414" type="qcurve"/>
      <point x="398" y="460"/>
      <point x="385" y="629"/>
      <point x="269" y="676"/>
      <point x="183" y="675"/>
      <point x="98" y="672"/>
      <point x="83" y="664" type="qcurve"/>
      <point x="85" y="641"/>
      <point x="79" y="388"/>
      <point x="88" y="353" type="qcurve"/>
      <point x="103" y="351"/>
      <point x="220" y="341"/>
      <point x="330" y="353"/>
      <point x="354" y="365"/>
    </contour>
    <contour>
      <point x="404" y="126" type="qcurve"/>
      <point x="419" y="162"/>
      <point x="371" y="303"/>
      <point x="242" y="304"/>
      <point x="203" y="305"/>
      <point x="87" y="298" type="qcurve"/>
      <point x="74" y="296"/>
      <point x="88" y="165"/>
      <point x="93" y="41" type="qcurve"/>
      <point x="108" y="39"/>
      <point x="220" y="29"/>
      <point x="330" y="41"/>
      <point x="377" y="66"/>
    </contour>
  </outline>
</glyph>
<glyph name="D" format="1">
  <advance width="482"/>
  <unicode hex="0044"/>
  <outline>
    <contour>
      <point x="393" y="617" type="qcurve"/>
      <point x="414" y="583"/>
      <point x="444" y="510"/>
      <point x="453" y="470" type="qcurve"/>
      <point x="458" y="454"/>
      <point x="461" y="423"/>
      <point x="462" y="407" type="qcurve"/>
      <point x="460" y="360"/>
      <point x="457" y="265"/>
      <point x="448" y="219" type="qcurve"/>
      <point x="448" y="218"/>
      <point x="447" y="218"/>
      <point x="427" y="158"/>
      <point x="358" y="52"/>
      <point x="320" y="5" type="qcurve"/>
      <point x="254" y="3"/>
      <point x="120" y="2"/>
      <point x="57" y="2" type="qcurve"/>
      <point x="57" y="2"/>
      <point x="56" y="1" type="qcurve"/>
      <point x="45" y="80"/>
      <point x="39" y="249"/>
      <point x="39" y="423"/>
      <point x="42" y="600"/>
      <point x="40" y="687" type="qcurve"/>
      <point x="41" y="688"/>
      <point x="42" y="690"/>
      <point x="43" y="691" type="qcurve"/>
      <point x="71" y="698"/>
      <point x="132" y="703"/>
      <point x="194" y="702"/>
      <point x="255" y="700"/>
      <point x="284" y="701" type="qcurve"/>
      <point x="316" y="693"/>
      <point x="375" y="646"/>
    </contour>
    <contour>
      <point x="418" y="296" type="qcurve"/>
      <point x="425" y="369"/>
      <point x="417" y="441" type="qcurve"/>
      <point x="392" y="556"/>
      <point x="303" y="660"/>
      <point x="243" y="662"/>
      <point x="203" y="663"/>
      <point x="88" y="657" type="qcurve"/>
      <point x="81" y="657" type="line"/>
      <point x="80" y="657" type="line"/>
      <point x="87" y="626"/>
      <point x="87" y="390"/>
      <point x="80" y="323"/>
      <point x="92" y="79"/>
      <point x="94" y="49" type="qcurve"/>
      <point x="105" y="44"/>
      <point x="241" y="48"/>
      <point x="259" y="50" type="qcurve"/>
      <point x="290" y="50" type="line"/>
      <point x="325" y="82"/>
      <point x="391" y="161"/>
    </contour>
  </outline>
</glyph>
<glyph name="H" format="1">
  <advance width="499"/>
  <unicode hex="0048"/>
  <outline>
    <contour>
      <point x="469" y="6" type="line"/>
      <point x="452" y="3"/>
      <point x="423" y="6" type="qcurve"/>
      <point x="422" y="6" type="line"/>
      <point x="414" y="110"/>
      <point x="413" y="180"/>
      <point x="409" y="322" type="qcurve"/>
      <point x="318" y="321" type="line" smooth="yes"/>
      <point x="224" y="326"/>
      <point x="90" y="317" type="qcurve"/>
      <point x="90" y="167"/>
      <point x="92" y="99"/>
      <point x="91" y="34"/>
      <point x="93" y="2" type="qcurve"/>
      <point x="68" y="1"/>
      <point x="54" y="1" type="qcurve"/>
      <point x="52" y="29"/>
      <point x="47" y="126"/>
      <point x="43" y="247"/>
      <point x="40" y="383"/>
      <point x="38" y="520"/>
      <point x="39" y="647"/>
      <point x="40" y="698" type="qcurve"/>
      <point x="40" y="699" type="line"/>
      <point x="41" y="699" type="line"/>
      <point x="43" y="699" type="line"/>
      <point x="73" y="697" type="line"/>
      <point x="77" y="492"/>
      <point x="87" y="357" type="qcurve"/>
      <point x="88" y="357" type="line"/>
      <point x="218" y="356"/>
      <point x="380" y="360"/>
      <point x="405" y="362" type="qcurve"/>
      <point x="406" y="362" type="line"/>
      <point x="401" y="509"/>
      <point x="402" y="705" type="qcurve"/>
      <point x="427" y="707"/>
      <point x="442" y="706" type="qcurve"/>
    </contour>
  </outline>
</glyph>
<glyph name="J" format="1">
  <advance width="463"/>
  <unicode hex="004A"/>
  <outline>
    <contour>
      <point x="425" y="712" type="line"/>
      <point x="423" y="618"/>
      <point x="431" y="426"/>
      <point x="429" y="329" type="qcurve"/>
      <point x="427" y="288"/>
      <point x="425" y="193"/>
      <point x="406" y="105"/>
      <point x="359" y="33"/>
      <point x="313" y="16" type="qcurve"/>
      <point x="271" y="-5"/>
      <point x="171" y="-10"/>
      <point x="126" y="0" type="qcurve"/>
      <point x="85" y="12"/>
      <point x="35" y="76"/>
      <point x="9" y="159"/>
      <point x="2" y="250"/>
      <point x="4" y="288" type="qcurve"/>
      <point x="25" y="289"/>
      <point x="43" y="286" type="qcurve"/>
      <point x="43" y="285" type="line"/>
      <point x="43" y="280" type="line"/>
      <point x="44" y="265"/>
      <point x="49" y="226"/>
      <point x="59" y="127"/>
      <point x="127" y="22"/>
      <point x="334" y="55"/>
      <point x="372" y="146"/>
      <point x="377" y="235"/>
      <point x="378" y="250" type="qcurve"/>
      <point x="378" y="348"/>
      <point x="375" y="584"/>
      <point x="379" y="703" type="qcurve"/>
      <point x="379" y="710" type="line"/>
    </contour>
  </outline>
</glyph>
<glyph name="K" format="1">
  <advance width="459"/>
  <unicode hex="004B"/>
  <outline>
    <contour>
      <point x="463" y="4" type="line"/>
      <point x="403" y="2" type="line"/>
      <point x="242" y="171"/>
      <point x="137" y="288"/>
      <point x="98" y="322" type="qcurve"/>
      <point x="100" y="292"/>
      <point x="93" y="180"/>
      <point x="99" y="33"/>
      <point x="99" y="5" type="qcurve"/>
      <point x="85" y="1"/>
      <point x="56" y="2"/>
      <point x="43" y="5" type="qcurve"/>
      <point x="35" y="177"/>
      <point x="46" y="524"/>
      <point x="45" y="699" type="qcurve"/>
      <point x="96" y="697" type="line"/>
      <point x="98" y="640"/>
      <point x="96" y="514"/>
      <point x="98" y="401" type="qcurve"/>
      <point x="98" y="400"/>
      <point x="179" y="476"/>
      <point x="304" y="594"/>
      <point x="372" y="660"/>
      <point x="398" y="692" type="qcurve"/>
      <point x="462" y="692" type="line"/>
      <point x="408" y="632"/>
      <point x="293" y="519"/>
      <point x="239" y="459"/>
      <point x="133" y="362" type="qcurve"/>
    </contour>
  </outline>
</glyph>
<glyph name="L" format="1">
  <advance width="461"/>
  <unicode hex="004C"/>
  <outline>
    <contour>
      <point x="454" y="1" type="qcurve"/>
      <point x="442" y="0"/>
      <point x="431" y="0" type="qcurve"/>
      <point x="420" y="1"/>
      <point x="385" y="-1"/>
      <point x="302" y="-3"/>
      <point x="157" y="-3"/>
      <point x="36" y="-1" type="qcurve"/>
      <point x="36" y="17" type="line"/>
      <point x="39" y="92"/>
      <point x="43" y="213"/>
      <point x="44" y="318"/>
      <point x="44" y="416"/>
      <point x="42" y="518"/>
      <point x="40" y="633"/>
      <point x="39" y="703" type="qcurve"/>
      <point x="49" y="707"/>
      <point x="83" y="702"/>
      <point x="97" y="696" type="qcurve"/>
      <point x="95" y="631"/>
      <point x="96" y="494"/>
      <point x="98" y="356"/>
      <point x="99" y="219"/>
      <point x="95" y="46" type="qcurve"/>
      <point x="95" y="45" type="line"/>
      <point x="102" y="47"/>
      <point x="243" y="50"/>
      <point x="295" y="48"/>
      <point x="354" y="45"/>
      <point x="407" y="43"/>
      <point x="448" y="42"/>
      <point x="456" y="43" type="qcurve"/>
      <point x="456" y="32"/>
    </contour>
  </outline>
</glyph>
<glyph name="M" format="1">
  <advance width="501"/>
  <unicode hex="004D"/>
  <outline>
    <contour>
      <point x="456" y="-1" type="line"/>
      <point x="441" y="1"/>
      <point x="421" y="2"/>
      <point x="409" y="2" type="qcurve"/>
      <point x="407" y="45"/>
      <point x="406" y="145"/>
      <point x="410" y="249"/>
      <point x="405" y="349"/>
      <point x="407" y="624" type="qcurve"/>
      <point x="400" y="613"/>
      <point x="385" y="578"/>
      <point x="268" y="342"/>
      <point x="252" y="304"/>
      <point x="248" y="304" type="qcurve"/>
      <point x="227" y="328"/>
      <point x="188" y="415"/>
      <point x="89" y="613"/>
      <point x="89" y="613" type="qcurve"/>
      <point x="94" y="288"/>
      <point x="97" y="96"/>
      <point x="103" y="3" type="qcurve"/>
      <point x="48" y="0" type="line"/>
      <point x="46" y="0"/>
      <point x="45" y="3" type="qcurve"/>
      <point x="44" y="7"/>
      <point x="42" y="37"/>
      <point x="41" y="98"/>
      <point x="41" y="198"/>
      <point x="42" y="346"/>
      <point x="43" y="550"/>
      <point x="44" y="686" type="qcurve"/>
      <point x="57" y="690"/>
      <point x="95" y="691" type="qcurve"/>
      <point x="96" y="691" type="line"/>
      <point x="105" y="681"/>
      <point x="123" y="640"/>
      <point x="219" y="445"/>
      <point x="244" y="391" type="qcurve"/>
      <point x="264" y="427"/>
      <point x="283" y="480"/>
      <point x="388" y="683"/>
      <point x="397" y="695" type="qcurve"/>
      <point x="404" y="694"/>
      <point x="444" y="697"/>
      <point x="460" y="697" type="qcurve"/>
      <point x="456" y="601"/>
      <point x="464" y="414"/>
      <point x="459" y="318" type="qcurve"/>
    </contour>
  </outline>
</glyph>
<glyph name="P" format="1">
  <advance width="497"/>
  <unicode hex="0050"/>
  <outline>
    <contour>
      <point x="484" y="466" type="line"/>
      <point x="478" y="418"/>
      <point x="426" y="336"/>
      <point x="350" y="280"/>
      <point x="265" y="260"/>
      <point x="88" y="262" type="qcurve"/>
      <point x="89" y="248"/>
      <point x="89" y="221"/>
      <point x="89" y="170"/>
      <point x="90" y="84"/>
      <point x="92" y="11" type="qcurve"/>
      <point x="92" y="10" type="line"/>
      <point x="91" y="10"/>
      <point x="90" y="9"/>
      <point x="89" y="9" type="qcurve"/>
      <point x="75" y="5"/>
      <point x="61" y="4"/>
      <point x="44" y="6" type="qcurve"/>
      <point x="41" y="79"/>
      <point x="41" y="250"/>
      <point x="41" y="430"/>
      <point x="40" y="612"/>
      <point x="37" y="695" type="qcurve"/>
      <point x="78" y="706"/>
      <point x="175" y="716"/>
      <point x="272" y="708"/>
      <point x="364" y="681"/>
      <point x="435" y="628"/>
      <point x="481" y="548"/>
      <point x="484" y="491" type="qcurve"/>
    </contour>
    <contour>
      <point x="298" y="669" type="qcurve"/>
      <point x="260" y="679"/>
      <point x="113" y="676"/>
      <point x="82" y="667" type="qcurve"/>
      <point x="83" y="649"/>
      <point x="82" y="609"/>
      <point x="85" y="353"/>
      <point x="87" y="301" type="qcurve"/>
      <point x="108" y="302"/>
      <point x="307" y="304"/>
      <point x="386" y="347"/>
      <point x="456" y="455"/>
      <point x="417" y="609"/>
      <point x="342" y="657"/>
    </contour>
  </outline>
</glyph>
<glyph name="R" format="1">
  <advance width="518"/>
  <unicode hex="0052"/>
  <outline>
    <contour>
      <point x="517" y="3" type="line"/>
      <point x="467" y="3"/>
      <point x="454" y="1" type="qcurve"/>
      <point x="288" y="152" type="line"/>
      <point x="97" y="301" type="line"/>
      <point x="97" y="270"/>
      <point x="95" y="157"/>
      <point x="98" y="86"/>
      <point x="102" y="22"/>
      <point x="103" y="3" type="qcurve"/>
      <point x="75" y="-3"/>
      <point x="45" y="1"/>
      <point x="40" y="0" type="qcurve"/>
      <point x="42" y="0"/>
      <point x="44" y="55"/>
      <point x="44" y="145"/>
      <point x="44" y="262"/>
      <point x="43" y="387"/>
      <point x="40" y="510"/>
      <point x="38" y="613"/>
      <point x="35" y="686"/>
      <point x="33" y="699" type="qcurve"/>
      <point x="89" y="707"/>
      <point x="223" y="721"/>
      <point x="296" y="713" type="qcurve"/>
      <point x="355" y="710"/>
      <point x="449" y="648"/>
      <point x="501" y="556"/>
      <point x="504" y="445"/>
      <point x="473" y="393" type="qcurve"/>
      <point x="454" y="357"/>
      <point x="391" y="309"/>
      <point x="168" y="312" type="qcurve"/>
      <point x="276" y="219"/>
      <point x="363" y="150"/>
      <point x="516" y="3" type="qcurve"/>
    </contour>
    <contour>
      <point x="80" y="670" type="qcurve"/>
      <point x="81" y="657"/>
      <point x="88" y="509"/>
      <point x="88" y="475"/>
      <point x="89" y="378"/>
      <point x="91" y="367" type="qcurve"/>
      <point x="92" y="367" type="line"/>
      <point x="334" y="347"/>
      <point x="396" y="374" type="qcurve"/>
      <point x="448" y="395"/>
      <point x="471" y="549"/>
      <point x="414" y="633"/>
      <point x="341" y="671"/>
      <point x="211" y="683"/>
    </contour>
  </outline>
</glyph>
<glyph name="W" format="1">
  <advance width="465"/>
  <unicode hex="0057"/>
  <outline>
    <contour>
      <point x="446" y="696" type="line"/>
      <point x="431" y="523"/>
      <point x="394" y="179"/>
      <point x="380" y="5" type="qcurve"/>
      <point x="373" y="3"/>
      <point x="356" y="3"/>
      <point x="346" y="3" type="qcurve"/>
      <point x="310" y="3" type="line"/>
      <point x="298" y="3" type="line"/>
      <point x="276" y="60"/>
      <point x="253" y="174"/>
      <point x="239" y="266" type="qcurve"/>
      <point x="238" y="266" type="line"/>
      <point x="228" y="196"/>
      <point x="204" y="68"/>
      <point x="192" y="20"/>
      <point x="184" y="7" type="qcurve"/>
      <point x="171" y="5"/>
      <point x="149" y="2"/>
      <point x="135" y="2" type="qcurve"/>
      <point x="119" y="2"/>
      <point x="97" y="5" type="qcurve"/>
      <point x="96" y="5" type="line"/>
      <point x="72" y="176"/>
      <point x="26" y="522"/>
      <point x="23" y="695" type="qcurve"/>
      <point x="23" y="696" type="line"/>
      <point x="38" y="698"/>
      <point x="69" y="700"/>
      <point x="79" y="699" type="qcurve"/>
      <point x="83" y="655"/>
      <point x="93" y="422"/>
      <point x="131" y="94"/>
      <point x="143" y="54" type="qcurve"/>
      <point x="155" y="96"/>
      <point x="176" y="177"/>
      <point x="224" y="413" type="qcurve"/>
      <point x="225" y="415"/>
      <point x="225" y="417"/>
      <point x="251" y="417" type="qcurve"/>
      <point x="255" y="406"/>
      <point x="311" y="128"/>
      <point x="326" y="69"/>
      <point x="332" y="54" type="qcurve"/>
      <point x="336" y="94"/>
      <point x="364" y="394"/>
      <point x="373" y="518"/>
      <point x="381" y="651"/>
      <point x="385" y="695" type="qcurve"/>
      <point x="385" y="696" type="line"/>
      <point x="402" y="700"/>
      <point x="412" y="700"/>
      <point x="445" y="697" type="qcurve"/>
    </contour>
  </outline>
</glyph>
<glyph name="asciicircum" format="1">
  <advance width="440"/>
  <unicode hex="005E"/>
  <outline>
    <contour>
      <point x="430" y="479" type="line"/>
      <point x="428" y="480"/>
      <point x="396" y="476"/>
      <point x="371" y="473" type="qcurve"/>
      <point x="366" y="473"/>
      <point x="266" y="569"/>
      <point x="247" y="591"/>
      <point x="228" y="611"/>
      <point x="222" y="614" type="qcurve"/>
      <point x="216" y="612"/>
      <point x="194" y="588"/>
      <point x="174" y="567"/>
      <point x="92" y="479"/>
      <point x="87" y="478" type="qcurve"/>
      <point x="75" y="477"/>
      <point x="52" y="476"/>
      <point x="11" y="478" type="qcurve"/>
      <point x="73" y="549"/>
      <point x="163" y="636"/>
      <point x="220" y="689" type="qcurve"/>
    </contour>
  </outline>
</glyph>
<glyph name="grave" format="1">
  <advance width="255"/>
  <unicode hex="0060"/>
  <outline>
    <contour>
      <point x="73" y="681" type="line"/>
      <point x="85" y="668"/>
      <point x="121" y="631"/>
      <point x="163" y="592"/>
      <point x="208" y="543"/>
      <point x="225" y="527" type="qcurve"/>
      <point x="218" y="525"/>
      <point x="188" y="522"/>
      <point x="160" y="525" type="qcurve"/>
      <point x="155" y="533"/>
      <point x="128" y="559"/>
      <point x="94" y="594"/>
      <point x="41" y="649"/>
      <point x="38" y="654" type="qcurve"/>
    </contour>
  </outline>
</glyph>
<glyph name="b" format="1">
  <advance width="464"/>
  <unicode hex="0062"/>
  <outline>
    <contour>
      <point x="93" y="693" type="line"/>
      <point x="94" y="673"/>
      <point x="95" y="652"/>
      <point x="96" y="635"/>
      <point x="97" y="616"/>
      <point x="97" y="581"/>
      <point x="97" y="523"/>
      <point x="96" y="426" type="qcurve"/>
      <point x="98" y="435"/>
      <point x="157" y="503"/>
      <point x="270" y="503"/>
      <point x="335" y="498"/>
      <point x="362" y="488" type="qcurve"/>
      <point x="384" y="480"/>
      <point x="415" y="441"/>
      <point x="434" y="386"/>
      <point x="443" y="320"/>
      <point x="443" y="285" type="qcurve"/>
      <point x="441" y="235"/>
      <point x="431" y="137"/>
      <point x="398" y="58"/>
      <point x="332" y="7"/>
      <point x="275" y="3" type="qcurve"/>
      <point x="247" y="-1"/>
      <point x="165" y="4"/>
      <point x="104" y="55"/>
      <point x="88" y="106" type="qcurve"/>
      <point x="94" y="66"/>
      <point x="92" y="16"/>
      <point x="92" y="6" type="qcurve"/>
      <point x="92" y="1"/>
      <point x="91" y="-1" type="qcurve"/>
      <point x="75" y="1"/>
      <point x="35" y="1" type="qcurve"/>
      <point x="33" y="73"/>
      <point x="34" y="228"/>
      <point x="37" y="389"/>
      <point x="41" y="555"/>
      <point x="41" y="638" type="qcurve"/>
      <point x="41" y="704" type="line"/>
      <point x="57" y="707"/>
      <point x="93" y="705"/>
      <point x="93" y="704" type="qcurve"/>
    </contour>
    <contour>
      <point x="391" y="349" type="qcurve"/>
      <point x="389" y="410"/>
      <point x="296" y="452"/>
      <point x="224" y="452" type="qcurve"/>
      <point x="188" y="452"/>
      <point x="110" y="389"/>
      <point x="94" y="298"/>
      <point x="94" y="241" type="qcurve"/>
      <point x="94" y="195"/>
      <point x="120" y="119"/>
      <point x="190" y="43"/>
      <point x="236" y="43" type="qcurve"/>
      <point x="274" y="43"/>
      <point x="338" y="62"/>
      <point x="377" y="103"/>
      <point x="396" y="195"/>
      <point x="396" y="232" type="qcurve"/>
      <point x="396" y="252"/>
      <point x="393" y="296"/>
    </contour>
  </outline>
</glyph>
<glyph name="d" format="1">
  <advance width="463"/>
  <unicode hex="0064"/>
  <outline>
    <contour>
      <point x="376" y="700" type="line"/>
      <point x="377" y="708"/>
      <point x="423" y="704" type="qcurve"/>
      <point x="423" y="638" type="line"/>
      <point x="423" y="471"/>
      <point x="433" y="145"/>
      <point x="429" y="1" type="qcurve"/>
      <point x="409" y="-4"/>
      <point x="379" y="0" type="qcurve"/>
      <point x="378" y="2"/>
      <point x="378" y="7" type="qcurve"/>
      <point x="378" y="17"/>
      <point x="376" y="58"/>
      <point x="373" y="75" type="qcurve"/>
      <point x="352" y="14"/>
      <point x="226" y="-2"/>
      <point x="189" y="3" type="qcurve"/>
      <point x="132" y="7"/>
      <point x="66" y="58"/>
      <point x="33" y="137"/>
      <point x="22" y="235"/>
      <point x="21" y="285" type="qcurve"/>
      <point x="21" y="320"/>
      <point x="30" y="386"/>
      <point x="49" y="441"/>
      <point x="86" y="489"/>
      <point x="200" y="509"/>
      <point x="316" y="501"/>
      <point x="377" y="426"/>
      <point x="379" y="417" type="qcurve"/>
      <point x="377" y="577"/>
      <point x="378" y="594"/>
      <point x="375" y="669"/>
      <point x="376" y="689" type="qcurve"/>
    </contour>
    <contour>
      <point x="67" y="326" type="qcurve"/>
      <point x="67" y="254"/>
      <point x="67" y="251" type="qcurve"/>
      <point x="71" y="169"/>
      <point x="94" y="98"/>
      <point x="124" y="61"/>
      <point x="185" y="47"/>
      <point x="224" y="47" type="qcurve"/>
      <point x="270" y="47"/>
      <point x="322" y="67"/>
      <point x="368" y="132"/>
      <point x="373" y="211"/>
      <point x="373" y="260" type="qcurve"/>
      <point x="371" y="316"/>
      <point x="355" y="401"/>
      <point x="285" y="479"/>
      <point x="72" y="463"/>
    </contour>
  </outline>
</glyph>
<glyph name="f" format="1">
  <advance width="379"/>
  <unicode hex="0066"/>
  <outline>
    <contour>
      <point x="171" y="2" type="line"/>
      <point x="154" y="4"/>
      <point x="165" y="4"/>
      <point x="143" y="3"/>
      <point x="130" y="5" type="qcurve"/>
      <point x="128" y="17"/>
      <point x="127" y="72"/>
      <point x="126" y="141"/>
      <point x="126" y="217"/>
      <point x="127" y="288"/>
      <point x="128" y="376"/>
      <point x="128" y="391" type="qcurve"/>
      <point x="112" y="389"/>
      <point x="34" y="392"/>
      <point x="14" y="391" type="qcurve"/>
      <point x="11" y="441" type="line"/>
      <point x="32" y="441"/>
      <point x="110" y="440"/>
      <point x="126" y="439" type="qcurve"/>
      <point x="124" y="504"/>
      <point x="128" y="688"/>
      <point x="214" y="688" type="qcurve"/>
      <point x="327" y="690"/>
      <point x="374" y="688" type="qcurve"/>
      <point x="379" y="673"/>
      <point x="379" y="655"/>
      <point x="377" y="641" type="qcurve"/>
      <point x="365" y="642"/>
      <point x="285" y="642"/>
      <point x="185" y="642"/>
      <point x="173" y="593"/>
      <point x="175" y="436" type="qcurve"/>
      <point x="373" y="438" type="line"/>
      <point x="371" y="427"/>
      <point x="370" y="391" type="qcurve"/>
      <point x="316" y="388"/>
      <point x="202" y="390"/>
      <point x="171" y="391" type="qcurve"/>
      <point x="171" y="136" type="line"/>
    </contour>
  </outline>
</glyph>
<glyph name="h" format="1">
  <advance width="448"/>
  <unicode hex="0068"/>
  <outline>
    <contour>
      <point x="85" y="448" type="qcurve"/>
      <point x="102" y="468"/>
      <point x="158" y="508"/>
      <point x="300" y="509"/>
      <point x="372" y="482"/>
      <point x="393" y="464" type="qcurve"/>
      <point x="403" y="455"/>
      <point x="414" y="398"/>
      <point x="417" y="318"/>
      <point x="416" y="223"/>
      <point x="414" y="126"/>
      <point x="412" y="36"/>
      <point x="414" y="2" type="qcurve"/>
      <point x="379" y="-3"/>
      <point x="367" y="-2" type="qcurve"/>
      <point x="365" y="21"/>
      <point x="365" y="79"/>
      <point x="366" y="141"/>
      <point x="367" y="257" type="qcurve"/>
      <point x="367" y="312"/>
      <point x="369" y="452"/>
      <point x="208" y="481"/>
      <point x="110" y="426"/>
      <point x="79" y="318"/>
      <point x="84" y="171"/>
      <point x="83" y="5" type="qcurve"/>
      <point x="83" y="1" type="line"/>
      <point x="60" y="-3"/>
      <point x="60" y="-1"/>
      <point x="36" y="-3" type="qcurve"/>
      <point x="36" y="38"/>
      <point x="35" y="153"/>
      <point x="34" y="285"/>
      <point x="34" y="426"/>
      <point x="34" y="560"/>
      <point x="35" y="679"/>
      <point x="36" y="723" type="qcurve"/>
      <point x="48" y="722"/>
      <point x="67" y="720"/>
      <point x="83" y="719"/>
      <point x="83" y="716" type="qcurve"/>
      <point x="84" y="711"/>
      <point x="84" y="668"/>
      <point x="84" y="609"/>
      <point x="84" y="542"/>
      <point x="85" y="512"/>
      <point x="85" y="466"/>
    </contour>
  </outline>
</glyph>
<glyph name="k" format="1">
  <advance width="435"/>
  <unicode hex="006B"/>
  <outline>
    <contour>
      <point x="386" y="-4" type="qcurve"/>
      <point x="338" y="41"/>
      <point x="236" y="129"/>
      <point x="79" y="259" type="qcurve"/>
      <point x="79" y="237"/>
      <point x="81" y="129"/>
      <point x="81" y="77"/>
      <point x="81" y="35"/>
      <point x="84" y="2" type="qcurve"/>
      <point x="60" y="0"/>
      <point x="38" y="0" type="qcurve"/>
      <point x="31" y="186"/>
      <point x="39" y="544"/>
      <point x="38" y="726" type="qcurve"/>
      <point x="53" y="726"/>
      <point x="79" y="728" type="qcurve"/>
      <point x="79" y="509" type="line"/>
      <point x="79" y="476"/>
      <point x="76" y="333"/>
      <point x="79" y="310" type="qcurve"/>
      <point x="208" y="401"/>
      <point x="334" y="487"/>
      <point x="375" y="514" type="qcurve"/>
      <point x="420" y="513"/>
      <point x="434" y="512" type="qcurve"/>
      <point x="304" y="420"/>
      <point x="241" y="373"/>
      <point x="113" y="285" type="qcurve"/>
      <point x="261" y="159"/>
      <point x="363" y="71"/>
      <point x="443" y="0" type="qcurve"/>
      <point x="429" y="0"/>
      <point x="411" y="-5"/>
    </contour>
  </outline>
</glyph>
<glyph name="l" format="1">
  <advance width="206"/>
  <unicode hex="006C"/>
  <outline>
    <contour>
      <point x="129" y="724" type="line"/>
      <point x="129" y="683"/>
      <point x="127" y="567"/>
      <point x="125" y="435"/>
      <point x="124" y="293"/>
      <point x="124" y="161"/>
      <point x="126" y="46"/>
      <point x="128" y="6" type="qcurve"/>
      <point x="123" y="0"/>
      <point x="101" y="-1"/>
      <point x="85" y="2"/>
      <point x="78" y="0" type="qcurve"/>
      <point x="85" y="90"/>
      <point x="82" y="272"/>
      <point x="76" y="454"/>
      <point x="75" y="636"/>
      <point x="84" y="727" type="qcurve"/>
    </contour>
  </outline>
</glyph>
<glyph name="p" format="1">
  <advance width="464"/>
  <unicode hex="0070"/>
  <outline>
    <contour>
      <point x="86" y="-201" type="line"/>
      <point x="86" y="-206"/>
      <point x="57" y="-207"/>
      <point x="41" y="-204" type="qcurve"/>
      <point x="41" y="-138" type="line"/>
      <point x="41" y="-55"/>
      <point x="37" y="111"/>
      <point x="34" y="272"/>
      <point x="33" y="427"/>
      <point x="35" y="499" type="qcurve"/>
      <point x="66" y="499"/>
      <point x="89" y="500" type="qcurve"/>
      <point x="90" y="498"/>
      <point x="90" y="493" type="qcurve"/>
      <point x="90" y="483"/>
      <point x="91" y="460" type="qcurve"/>
      <point x="93" y="455"/>
      <point x="90" y="440"/>
      <point x="101" y="456" type="qcurve"/>
      <point x="132" y="489"/>
      <point x="247" y="501"/>
      <point x="275" y="497" type="qcurve"/>
      <point x="332" y="493"/>
      <point x="398" y="442"/>
      <point x="431" y="363"/>
      <point x="443" y="277"/>
      <point x="443" y="215" type="qcurve"/>
      <point x="443" y="180"/>
      <point x="434" y="114"/>
      <point x="415" y="59"/>
      <point x="384" y="20"/>
      <point x="362" y="12" type="qcurve"/>
      <point x="335" y="2"/>
      <point x="270" y="-3"/>
      <point x="131" y="4"/>
      <point x="91" y="18"/>
      <point x="89" y="27" type="qcurve"/>
      <point x="90" y="-20"/>
      <point x="90" y="-78"/>
      <point x="90" y="-113"/>
      <point x="89" y="-132"/>
      <point x="88" y="-149"/>
      <point x="87" y="-170"/>
      <point x="86" y="-190" type="qcurve"/>
    </contour>
    <contour>
      <point x="397" y="124" type="qcurve"/>
      <point x="408" y="196"/>
      <point x="403" y="269"/>
      <point x="395" y="336"/>
      <point x="365" y="434"/>
      <point x="277" y="467"/>
      <point x="220" y="461" type="qcurve"/>
      <point x="177" y="455"/>
      <point x="110" y="416"/>
      <point x="82" y="355"/>
      <point x="82" y="275"/>
      <point x="82" y="226" type="qcurve"/>
      <point x="82" y="164"/>
      <point x="87" y="96"/>
      <point x="111" y="61"/>
      <point x="165" y="37"/>
      <point x="207" y="37" type="qcurve"/>
      <point x="288" y="37"/>
      <point x="369" y="47"/>
    </contour>
  </outline>
</glyph>
<glyph name="q" format="1">
  <advance width="463"/>
  <unicode hex="0071"/>
  <outline>
    <contour>
      <point x="377" y="-201" type="line"/>
      <point x="377" y="-206"/>
      <point x="406" y="-207"/>
      <point x="422" y="-204" type="qcurve"/>
      <point x="422" y="-138" type="line"/>
      <point x="422" y="-55"/>
      <point x="426" y="111"/>
      <point x="429" y="272"/>
      <point x="430" y="427"/>
      <point x="428" y="499" type="qcurve"/>
      <point x="397" y="499"/>
      <point x="374" y="500" type="qcurve"/>
      <point x="373" y="498"/>
      <point x="373" y="493" type="qcurve"/>
      <point x="373" y="483"/>
      <point x="372" y="460" type="qcurve"/>
      <point x="370" y="455"/>
      <point x="373" y="440"/>
      <point x="362" y="456" type="qcurve"/>
      <point x="331" y="489"/>
      <point x="216" y="501"/>
      <point x="188" y="497" type="qcurve"/>
      <point x="131" y="493"/>
      <point x="65" y="442"/>
      <point x="32" y="363"/>
      <point x="20" y="277"/>
      <point x="20" y="215" type="qcurve"/>
      <point x="20" y="180"/>
      <point x="29" y="114"/>
      <point x="48" y="59"/>
      <point x="79" y="20"/>
      <point x="101" y="12" type="qcurve"/>
      <point x="128" y="2"/>
      <point x="193" y="-3"/>
      <point x="332" y="4"/>
      <point x="372" y="18"/>
      <point x="374" y="27" type="qcurve"/>
      <point x="373" y="-20"/>
      <point x="373" y="-78"/>
      <point x="373" y="-113"/>
      <point x="374" y="-132"/>
      <point x="375" y="-149"/>
      <point x="376" y="-170"/>
      <point x="377" y="-190" type="qcurve"/>
    </contour>
    <contour>
      <point x="66" y="124" type="qcurve"/>
      <point x="55" y="196"/>
      <point x="60" y="269"/>
      <point x="68" y="336"/>
      <point x="98" y="434"/>
      <point x="186" y="467"/>
      <point x="243" y="461" type="qcurve"/>
      <point x="286" y="455"/>
      <point x="353" y="416"/>
      <point x="381" y="355"/>
      <point x="381" y="275"/>
      <point x="381" y="226" type="qcurve"/>
      <point x="381" y="164"/>
      <point x="376" y="96"/>
      <point x="352" y="61"/>
      <point x="298" y="37"/>
      <point x="256" y="37" type="qcurve"/>
      <point x="175" y="37"/>
      <point x="94" y="47"/>
    </contour>
  </outline>
</glyph>
<glyph name="t" format="1">
  <advance width="387"/>
  <unicode hex="0074"/>
  <outline>
    <contour>
      <point x="199" y="514" type="line"/>
      <point x="199" y="501"/>
      <point x="200" y="473"/>
      <point x="200" y="458" type="qcurve"/>
      <point x="231" y="459"/>
      <point x="316" y="461"/>
      <point x="371" y="464" type="qcurve"/>
      <point x="374" y="456"/>
      <point x="376" y="438"/>
      <point x="373" y="419" type="qcurve"/>
      <point x="202" y="421" type="line"/>
      <point x="202" y="357"/>
      <point x="202" y="128"/>
      <point x="205" y="95" type="qcurve"/>
      <point x="209" y="42"/>
      <point x="311" y="41"/>
      <point x="356" y="39"/>
      <point x="373" y="40" type="qcurve"/>
      <point x="378" y="15"/>
      <point x="373" y="0" type="qcurve"/>
      <point x="333" y="-2"/>
      <point x="222" y="-2"/>
      <point x="163" y="37"/>
      <point x="157" y="163"/>
      <point x="153" y="325"/>
      <point x="154" y="415" type="qcurve"/>
      <point x="138" y="414"/>
      <point x="35" y="416"/>
      <point x="14" y="416" type="qcurve"/>
      <point x="17" y="458" type="line"/>
      <point x="37" y="457"/>
      <point x="140" y="455"/>
      <point x="156" y="455" type="qcurve"/>
      <point x="156" y="477"/>
      <point x="154" y="556"/>
      <point x="154" y="618"/>
      <point x="155" y="666"/>
      <point x="157" y="685" type="qcurve"/>
      <point x="170" y="687"/>
      <point x="173" y="686"/>
      <point x="199" y="686" type="qcurve"/>
    </contour>
  </outline>
</glyph>
<glyph name="w" format="1">
  <advance width="683"/>
  <unicode hex="0077"/>
  <outline>
    <contour>
      <point x="71" y="498" type="line"/>
      <point x="78" y="455"/>
      <point x="92" y="362"/>
      <point x="107" y="266"/>
      <point x="125" y="179"/>
      <point x="151" y="43" type="qcurve"/>
      <point x="230" y="267"/>
      <point x="310" y="500"/>
      <point x="308" y="501"/>
      <point x="383" y="502"/>
      <point x="398" y="499" type="qcurve"/>
      <point x="405" y="463"/>
      <point x="456" y="308"/>
      <point x="532" y="57" type="qcurve"/>
      <point x="593" y="351"/>
      <point x="624" y="501" type="qcurve"/>
      <point x="642" y="502"/>
      <point x="682" y="499" type="qcurve"/>
      <point x="634" y="300"/>
      <point x="607" y="187"/>
      <point x="557" y="-1" type="qcurve"/>
      <point x="537" y="-4"/>
      <point x="526" y="-2"/>
      <point x="507" y="-2" type="qcurve"/>
      <point x="456" y="161"/>
      <point x="350" y="462" type="qcurve"/>
      <point x="261" y="214"/>
      <point x="178" y="-3" type="qcurve"/>
      <point x="134" y="-3"/>
      <point x="115" y="-3" type="qcurve"/>
      <point x="71" y="218"/>
      <point x="11" y="500" type="qcurve"/>
    </contour>
  </outline>
</glyph>
<glyph name="braceleft" format="1">
  <advance width="318"/>
  <unicode hex="007B"/>
  <outline>
    <contour>
      <point x="292" y="1" type="qcurve"/>
      <point x="250" y="-4"/>
      <point x="187" y="12"/>
      <point x="144" y="43"/>
      <point x="122" y="85"/>
      <point x="123" y="108" type="qcurve"/>
      <point x="127" y="136"/>
      <point x="126" y="230"/>
      <point x="105" y="287"/>
      <point x="60" y="324"/>
      <point x="21" y="322" type="qcurve"/>
      <point x="15" y="322"/>
      <point x="13" y="323" type="qcurve"/>
      <point x="11" y="352"/>
      <point x="15" y="361" type="qcurve"/>
      <point x="54" y="357"/>
      <point x="101" y="386"/>
      <point x="125" y="436"/>
      <point x="129" y="499"/>
      <point x="126" y="562" type="qcurve"/>
      <point x="122" y="582"/>
      <point x="127" y="621"/>
      <point x="145" y="652"/>
      <point x="173" y="673"/>
      <point x="192" y="676" type="qcurve"/>
      <point x="221" y="679"/>
      <point x="265" y="680"/>
      <point x="289" y="678" type="qcurve"/>
      <point x="293" y="651"/>
      <point x="291" y="649" type="qcurve"/>
      <point x="275" y="644"/>
      <point x="183" y="653"/>
      <point x="171" y="619" type="qcurve"/>
      <point x="161" y="599"/>
      <point x="163" y="541"/>
      <point x="167" y="481"/>
      <point x="151" y="389"/>
      <point x="89" y="346" type="qcurve"/>
      <point x="144" y="300"/>
      <point x="160" y="199"/>
      <point x="158" y="157" type="qcurve"/>
      <point x="157" y="140"/>
      <point x="159" y="103"/>
      <point x="170" y="72"/>
      <point x="194" y="49"/>
      <point x="292" y="35" type="qcurve"/>
      <point x="294" y="24"/>
    </contour>
  </outline>
</glyph>
<glyph name="bar" format="1">
  <advance width="201"/>
  <unicode hex="007C"/>
  <outline>
    <contour>
      <point x="124" y="-28" type="line"/>
      <point x="109" y="-26"/>
      <point x="85" y="-25"/>
      <point x="82" y="-25" type="qcurve"/>
      <point x="82" y="-24"/>
      <point x="82" y="27"/>
      <point x="82" y="109"/>
      <point x="82" y="216"/>
      <point x="82" y="329"/>
      <point x="82" y="439"/>
      <point x="82" y="530"/>
      <point x="82" y="592"/>
      <point x="82" y="601" type="qcurve"/>
      <point x="82" y="726" type="line"/>
      <point x="131" y="729" type="line"/>
      <point x="131" y="728" type="line"/>
      <point x="131" y="724"/>
      <point x="132" y="656"/>
      <point x="132" y="551"/>
      <point x="133" y="419"/>
      <point x="133" y="281"/>
      <point x="133" y="149"/>
      <point x="133" y="44"/>
      <point x="133" y="-24"/>
      <point x="133" y="-28" type="qcurve"/>
    </contour>
  </outline>
</glyph>
<glyph name="braceright" format="1">
  <advance width="318"/>
  <unicode hex="007D"/>
  <outline>
    <contour>
      <point x="25" y="1" type="qcurve"/>
      <point x="67" y="-4"/>
      <point x="130" y="12"/>
      <point x="173" y="43"/>
      <point x="195" y="85"/>
      <point x="194" y="108" type="qcurve"/>
      <point x="190" y="136"/>
      <point x="191" y="230"/>
      <point x="212" y="287"/>
      <point x="257" y="324"/>
      <point x="296" y="322" type="qcurve"/>
      <point x="302" y="322"/>
      <point x="304" y="323" type="qcurve"/>
      <point x="306" y="352"/>
      <point x="302" y="361" type="qcurve"/>
      <point x="263" y="357"/>
      <point x="216" y="386"/>
      <point x="192" y="436"/>
      <point x="188" y="499"/>
      <point x="191" y="562" type="qcurve"/>
      <point x="195" y="582"/>
      <point x="190" y="621"/>
      <point x="172" y="652"/>
      <point x="144" y="673"/>
      <point x="125" y="676" type="qcurve"/>
      <point x="96" y="679"/>
      <point x="52" y="680"/>
      <point x="28" y="678" type="qcurve"/>
      <point x="24" y="651"/>
      <point x="26" y="649" type="qcurve"/>
      <point x="42" y="644"/>
      <point x="134" y="653"/>
      <point x="146" y="619" type="qcurve"/>
      <point x="156" y="599"/>
      <point x="154" y="541"/>
      <point x="150" y="481"/>
      <point x="166" y="389"/>
      <point x="228" y="346" type="qcurve"/>
      <point x="173" y="300"/>
      <point x="157" y="199"/>
      <point x="159" y="157" type="qcurve"/>
      <point x="160" y="140"/>
      <point x="158" y="103"/>
      <point x="147" y="72"/>
      <point x="123" y="49"/>
      <point x="25" y="35" type="qcurve"/>
      <point x="23" y="24"/>
    </contour>
  </outline>
</glyph>
<glyph name="asciitilde" format="1">
  <advance width="570"/>
  <unicode hex="007E"/>
  <outline>
    <contour>
      <point x="74" y="138" type="line"/>
      <point x="59" y="140"/>
      <point x="36" y="140"/>
      <point x="17" y="138" type="qcurve"/>
      <point x="21" y="153"/>
      <point x="38" y="198"/>
      <point x="59" y="247"/>
      <point x="82" y="291"/>
      <point x="95" y="306" type="qcurve"/>
      <point x="112" y="323"/>
      <point x="156" y="346"/>
      <point x="203" y="354"/>
      <point x="249" y="345"/>
      <point x="270" y="330" type="qcurve"/>
      <point x="290" y="316"/>
      <point x="312" y="280"/>
      <point x="347" y="162"/>
      <point x="471" y="186"/>
      <point x="498" y="288"/>
      <point x="491" y="339" type="qcurve"/>
      <point x="539" y="341" type="line"/>
      <point x="539" y="339" type="line"/>
      <point x="544" y="307"/>
      <point x="532" y="238"/>
      <point x="501" y="179"/>
      <point x="450" y="136"/>
      <point x="417" y="130" type="qcurve"/>
      <point x="376" y="124"/>
      <point x="301" y="147"/>
      <point x="275" y="232" type="qcurve"/>
      <point x="254" y="288"/>
      <point x="210" y="311"/>
      <point x="182" y="306" type="qcurve"/>
      <point x="134" y="294"/>
      <point x="87" y="204"/>
      <point x="74" y="140" type="qcurve"/>
    </contour>
  </outline>
</glyph>
<glyph name="cent" format="1">
  <advance width="350"/>
  <unicode hex="00A2"/>
  <outline>
    <contour>
      <point x="160" y="559" type="qcurve"/>
      <point x="53" y="561"/>
      <point x="62" y="343" type="qcurve"/>
      <point x="61" y="271"/>
      <point x="62" y="233" type="qcurve"/>
      <point x="62" y="160"/>
      <point x="102" y="137" type="qcurve"/>
      <point x="129" y="121"/>
      <point x="160" y="118" type="qcurve"/>
      <point x="161" y="227"/>
      <point x="162" y="337" type="qcurve"/>
      <point x="162" y="450"/>
    </contour>
    <contour>
      <point x="195" y="589" type="line"/>
      <point x="213" y="585"/>
      <point x="230" y="576" type="qcurve"/>
      <point x="257" y="564"/>
      <point x="300" y="525"/>
      <point x="325" y="475"/>
      <point x="330" y="415"/>
      <point x="328" y="384" type="qcurve"/>
      <point x="294" y="379"/>
      <point x="297" y="382" type="qcurve"/>
      <point x="299" y="392"/>
      <point x="295" y="456"/>
      <point x="287" y="491"/>
      <point x="261" y="524" type="qcurve"/>
      <point x="243" y="547"/>
      <point x="195" y="560" type="qcurve"/>
      <point x="195" y="527"/>
      <point x="195" y="499" type="qcurve"/>
      <point x="196" y="421"/>
      <point x="197" y="266"/>
      <point x="196" y="187" type="qcurve"/>
      <point x="196" y="155"/>
      <point x="196" y="119" type="qcurve"/>
      <point x="240" y="127"/>
      <point x="271" y="166" type="qcurve"/>
      <point x="304" y="207"/>
      <point x="294" y="291" type="qcurve"/>
      <point x="310" y="292"/>
      <point x="324" y="293" type="qcurve"/>
      <point x="330" y="254"/>
      <point x="320" y="184"/>
      <point x="283" y="129"/>
      <point x="253" y="111" type="qcurve"/>
      <point x="227" y="95"/>
      <point x="195" y="92" type="qcurve"/>
      <point x="195" y="57"/>
      <point x="194" y="28" type="qcurve"/>
      <point x="192" y="28" type="line"/>
      <point x="182" y="25"/>
      <point x="160" y="25" type="qcurve"/>
      <point x="160" y="90" type="line"/>
      <point x="149" y="90"/>
      <point x="137" y="92" type="qcurve"/>
      <point x="112" y="95"/>
      <point x="67" y="116"/>
      <point x="37" y="154"/>
      <point x="34" y="183" type="qcurve"/>
      <point x="33" y="207"/>
      <point x="32" y="260"/>
      <point x="31" y="325"/>
      <point x="32" y="408"/>
      <point x="33" y="462" type="qcurve"/>
      <point x="36" y="498"/>
      <point x="40" y="508" type="qcurve"/>
      <point x="46" y="525"/>
      <point x="64" y="555"/>
      <point x="77" y="566" type="qcurve"/>
      <point x="84" y="572"/>
      <point x="102" y="579"/>
      <point x="111" y="582" type="qcurve"/>
      <point x="136" y="590"/>
      <point x="160" y="590" type="qcurve"/>
      <point x="160" y="620"/>
      <point x="159" y="649" type="qcurve"/>
      <point x="172" y="652"/>
      <point x="183" y="654"/>
      <point x="195" y="655" type="qcurve"/>
      <point x="196" y="655" type="line"/>
    </contour>
  </outline>
</glyph>
<glyph name="sterling" format="1">
  <advance width="486"/>
  <unicode hex="00A3"/>
  <outline>
    <contour>
      <point x="170" y="339" type="line"/>
      <point x="175" y="339" type="line"/>
      <point x="176" y="339" type="line"/>
      <point x="174" y="383"/>
      <point x="174" y="514"/>
      <point x="175" y="601"/>
      <point x="178" y="663"/>
      <point x="180" y="669" type="qcurve"/>
      <point x="183" y="669"/>
      <point x="211" y="668"/>
      <point x="223" y="669"/>
      <point x="225" y="672"/>
      <point x="238" y="675" type="qcurve"/>
      <point x="238" y="674" type="line"/>
      <point x="240" y="593"/>
      <point x="240" y="415"/>
      <point x="238" y="335" type="qcurve"/>
      <point x="276" y="333"/>
      <point x="356" y="331"/>
      <point x="383" y="330"/>
      <point x="398" y="332"/>
      <point x="404" y="334" type="qcurve"/>
      <point x="405" y="334" type="line"/>
      <point x="408" y="311"/>
      <point x="401" y="273"/>
      <point x="404" y="270" type="qcurve"/>
      <point x="368" y="271"/>
      <point x="288" y="271"/>
      <point x="261" y="270"/>
      <point x="245" y="269"/>
      <point x="237" y="269" type="qcurve"/>
      <point x="235" y="266"/>
      <point x="237" y="246"/>
      <point x="242" y="84"/>
      <point x="247" y="66"/>
      <point x="248" y="65" type="qcurve"/>
      <point x="253" y="64"/>
      <point x="283" y="63"/>
      <point x="357" y="61"/>
      <point x="401" y="58"/>
      <point x="439" y="56"/>
      <point x="465" y="54"/>
      <point x="468" y="54" type="qcurve"/>
      <point x="463" y="19"/>
      <point x="461" y="6"/>
      <point x="460" y="2" type="qcurve"/>
      <point x="383" y="2"/>
      <point x="270" y="2"/>
      <point x="219" y="3"/>
      <point x="179" y="7"/>
      <point x="174" y="11" type="qcurve"/>
      <point x="178" y="62"/>
      <point x="174" y="184"/>
      <point x="172" y="273" type="qcurve"/>
      <point x="134" y="274"/>
      <point x="62" y="274"/>
      <point x="34" y="274"/>
      <point x="23" y="274"/>
      <point x="21" y="275" type="qcurve"/>
      <point x="19" y="314"/>
      <point x="18" y="326"/>
      <point x="19" y="329" type="qcurve"/>
      <point x="19" y="331"/>
      <point x="20" y="332" type="qcurve"/>
      <point x="35" y="338"/>
      <point x="65" y="341"/>
      <point x="120" y="339"/>
      <point x="152" y="337"/>
      <point x="167" y="339" type="qcurve"/>
    </contour>
  </outline>
</glyph>
<glyph name="dieresis" format="1">
  <advance width="349"/>
  <unicode hex="00A8"/>
  <outline>
    <contour>
      <point x="76" y="522" type="line"/>
      <point x="73" y="522" type="line"/>
      <point x="71" y="532"/>
      <point x="70" y="561"/>
      <point x="71" y="591"/>
      <point x="72" y="617"/>
      <point x="72" y="623" type="qcurve"/>
      <point x="81" y="626"/>
      <point x="116" y="627"/>
      <point x="123" y="624" type="qcurve"/>
      <point x="123" y="623"/>
      <point x="121" y="597"/>
      <point x="119" y="562"/>
      <point x="117" y="530"/>
      <point x="117" y="523" type="qcurve"/>
      <point x="117" y="522" type="line"/>
      <point x="117" y="521" type="line"/>
      <point x="115" y="521" type="line"/>
    </contour>
    <contour>
      <point x="234" y="522" type="line"/>
      <point x="231" y="522" type="line"/>
      <point x="229" y="532"/>
      <point x="228" y="561"/>
      <point x="229" y="591"/>
      <point x="230" y="617"/>
      <point x="230" y="623" type="qcurve"/>
      <point x="239" y="626"/>
      <point x="274" y="627"/>
      <point x="281" y="624" type="qcurve"/>
      <point x="281" y="623"/>
      <point x="279" y="597"/>
      <point x="277" y="562"/>
      <point x="275" y="530"/>
      <point x="275" y="523" type="qcurve"/>
      <point x="275" y="522" type="line"/>
      <point x="275" y="521" type="line"/>
      <point x="273" y="521" type="line"/>
    </contour>
  </outline>
</glyph>
<glyph name="ordfeminine" format="1">
  <advance width="276"/>
  <unicode hex="00AA"/>
  <outline>
    <contour>
      <point x="234" y="718" type="qcurve"/>
      <point x="234" y="715"/>
      <point x="235" y="709"/>
      <point x="235" y="706" type="qcurve"/>
      <point x="235" y="701" type="line"/>
      <point x="233" y="647"/>
      <point x="237" y="542"/>
      <point x="234" y="488" type="qcurve"/>
      <point x="234" y="482"/>
      <point x="233" y="469"/>
      <point x="227" y="468" type="qcurve"/>
      <point x="214" y="468"/>
      <point x="214" y="467" type="qcurve"/>
      <point x="211" y="468"/>
      <point x="211" y="478"/>
      <point x="211" y="491"/>
      <point x="211" y="496" type="qcurve"/>
      <point x="195" y="469"/>
      <point x="119" y="467"/>
      <point x="102" y="467" type="qcurve"/>
      <point x="83" y="467"/>
      <point x="57" y="494"/>
      <point x="40" y="534"/>
      <point x="31" y="582"/>
      <point x="31" y="602" type="qcurve"/>
      <point x="31" y="627"/>
      <point x="44" y="669"/>
      <point x="66" y="700"/>
      <point x="95" y="717"/>
      <point x="112" y="718" type="qcurve"/>
      <point x="124" y="718"/>
      <point x="179" y="717"/>
      <point x="194" y="710"/>
      <point x="203" y="702"/>
      <point x="208" y="693" type="qcurve"/>
      <point x="210" y="706"/>
      <point x="210" y="719" type="qcurve"/>
      <point x="210" y="719"/>
      <point x="216" y="720"/>
      <point x="218" y="719"/>
    </contour>
    <contour>
      <point x="58" y="640" type="qcurve"/>
      <point x="55" y="627"/>
      <point x="53" y="601"/>
      <point x="53" y="588" type="qcurve"/>
      <point x="56" y="538"/>
      <point x="90" y="484"/>
      <point x="136" y="488" type="qcurve"/>
      <point x="159" y="487"/>
      <point x="188" y="497"/>
      <point x="210" y="525"/>
      <point x="210" y="568"/>
      <point x="210" y="595" type="qcurve"/>
      <point x="210" y="629"/>
      <point x="205" y="671"/>
      <point x="190" y="685"/>
      <point x="171" y="698"/>
      <point x="139" y="700" type="qcurve"/>
      <point x="107" y="701"/>
      <point x="63" y="663"/>
    </contour>
  </outline>
</glyph>
<glyph name="guillemotleft" format="1">
  <advance width="583"/>
  <unicode hex="00AB"/>
  <outline>
    <contour>
      <point x="546" y="32" type="line"/>
      <point x="531" y="19" type="line"/>
      <point x="530" y="20" type="line"/>
      <point x="500" y="51"/>
      <point x="435" y="108"/>
      <point x="374" y="168"/>
      <point x="307" y="232"/>
      <point x="279" y="270" type="qcurve"/>
      <point x="298" y="294"/>
      <point x="344" y="343"/>
      <point x="394" y="394"/>
      <point x="444" y="445"/>
      <point x="467" y="469" type="qcurve"/>
      <point x="482" y="485"/>
      <point x="510" y="514"/>
      <point x="524" y="528" type="qcurve"/>
      <point x="533" y="523"/>
      <point x="551" y="504"/>
      <point x="554" y="497" type="qcurve"/>
      <point x="539" y="478"/>
      <point x="495" y="432"/>
      <point x="410" y="343"/>
      <point x="361" y="291"/>
      <point x="342" y="267" type="qcurve"/>
      <point x="392" y="212"/>
      <point x="516" y="92"/>
      <point x="564" y="53" type="qcurve"/>
    </contour>
    <contour>
      <point x="322" y="32" type="line"/>
      <point x="307" y="19" type="line"/>
      <point x="306" y="20" type="line"/>
      <point x="276" y="51"/>
      <point x="211" y="108"/>
      <point x="150" y="168"/>
      <point x="83" y="232"/>
      <point x="55" y="270" type="qcurve"/>
      <point x="74" y="294"/>
      <point x="120" y="343"/>
      <point x="170" y="394"/>
      <point x="220" y="445"/>
      <point x="243" y="469" type="qcurve"/>
      <point x="258" y="485"/>
      <point x="286" y="514"/>
      <point x="300" y="528" type="qcurve"/>
      <point x="309" y="523"/>
      <point x="327" y="504"/>
      <point x="330" y="497" type="qcurve"/>
      <point x="315" y="478"/>
      <point x="271" y="432"/>
      <point x="186" y="343"/>
      <point x="137" y="291"/>
      <point x="118" y="267" type="qcurve"/>
      <point x="168" y="212"/>
      <point x="292" y="92"/>
      <point x="340" y="53" type="qcurve"/>
    </contour>
  </outline>
</glyph>
<glyph name="uni00AD" format="1">
  <advance width="369"/>
  <unicode hex="00AD"/>
  <outline>
    <contour>
      <point x="36" y="304" type="qcurve"/>
      <point x="39" y="304"/>
      <point x="83" y="304"/>
      <point x="147" y="305"/>
      <point x="221" y="306"/>
      <point x="285" y="306"/>
      <point x="330" y="306"/>
      <point x="333" y="306" type="qcurve"/>
      <point x="331" y="295"/>
      <point x="331" y="283"/>
      <point x="331" y="271"/>
      <point x="331" y="258"/>
      <point x="331" y="248" type="qcurve"/>
      <point x="325" y="248"/>
      <point x="277" y="248"/>
      <point x="212" y="248"/>
      <point x="139" y="248"/>
      <point x="78" y="249"/>
      <point x="37" y="249"/>
      <point x="37" y="249" type="qcurve"/>
      <point x="37" y="250"/>
      <point x="37" y="263"/>
      <point x="36" y="280"/>
      <point x="36" y="298"/>
    </contour>
  </outline>
</glyph>
<glyph name="degree" format="1">
  <advance width="298"/>
  <unicode hex="00B0"/>
  <outline>
    <contour>
      <point x="79" y="410" type="qcurve"/>
      <point x="46" y="426"/>
      <point x="35" y="451" type="qcurve"/>
      <point x="32" y="459"/>
      <point x="30" y="473"/>
      <point x="29" y="480" type="qcurve"/>
      <point x="27" y="506"/>
      <point x="25" y="563"/>
      <point x="32" y="588" type="qcurve"/>
      <point x="40" y="613"/>
      <point x="81" y="643"/>
      <point x="108" y="648" type="qcurve"/>
      <point x="111" y="648"/>
      <point x="118" y="649"/>
      <point x="121" y="649" type="qcurve"/>
      <point x="132" y="650"/>
      <point x="150" y="650"/>
      <point x="160" y="650" type="qcurve"/>
      <point x="171" y="650"/>
      <point x="191" y="648"/>
      <point x="201" y="645" type="qcurve"/>
      <point x="206" y="643"/>
      <point x="214" y="640"/>
      <point x="219" y="638" type="qcurve"/>
      <point x="235" y="632"/>
      <point x="247" y="621" type="qcurve"/>
      <point x="258" y="612"/>
      <point x="269" y="588"/>
      <point x="271" y="574" type="qcurve"/>
      <point x="273" y="563"/>
      <point x="273" y="541"/>
      <point x="273" y="530" type="qcurve"/>
      <point x="273" y="512"/>
      <point x="268" y="476"/>
      <point x="254" y="443"/>
      <point x="231" y="418"/>
      <point x="212" y="411" type="qcurve"/>
      <point x="207" y="409"/>
      <point x="197" y="407"/>
      <point x="192" y="406" type="qcurve"/>
      <point x="163" y="401"/>
      <point x="106" y="402"/>
    </contour>
    <contour>
      <point x="95" y="617" type="qcurve"/>
      <point x="65" y="605"/>
      <point x="57" y="573" type="qcurve"/>
      <point x="55" y="550"/>
      <point x="56" y="506"/>
      <point x="56" y="484" type="qcurve"/>
      <point x="56" y="464"/>
      <point x="80" y="432"/>
      <point x="100" y="430" type="qcurve"/>
      <point x="120" y="429"/>
      <point x="158" y="430"/>
      <point x="179" y="432" type="qcurve"/>
      <point x="182" y="432"/>
      <point x="187" y="435"/>
      <point x="190" y="435" type="qcurve"/>
      <point x="191" y="435" type="line"/>
      <point x="217" y="437"/>
      <point x="235" y="468"/>
      <point x="239" y="489" type="qcurve"/>
      <point x="241" y="500"/>
      <point x="243" y="521"/>
      <point x="245" y="533" type="qcurve"/>
      <point x="247" y="550"/>
      <point x="245" y="582"/>
      <point x="232" y="596" type="qcurve"/>
      <point x="222" y="610"/>
      <point x="209" y="614" type="qcurve"/>
      <point x="181" y="622"/>
      <point x="121" y="621"/>
    </contour>
  </outline>
</glyph>
<glyph name="plusminus" format="1">
  <advance width="501"/>
  <unicode hex="00B1"/>
  <outline>
    <contour>
      <point x="221" y="255" type="qcurve"/>
      <point x="221" y="256"/>
      <point x="220" y="256"/>
      <point x="220" y="258" type="qcurve"/>
      <point x="218" y="273"/>
      <point x="218" y="296"/>
      <point x="219" y="342"/>
      <point x="219" y="371"/>
      <point x="218" y="407" type="qcurve"/>
      <point x="218" y="415"/>
      <point x="217" y="426"/>
      <point x="216" y="427" type="qcurve"/>
      <point x="214" y="427" type="line"/>
      <point x="208" y="427"/>
      <point x="176" y="429"/>
      <point x="86" y="431"/>
      <point x="54" y="435"/>
      <point x="50" y="437" type="qcurve"/>
      <point x="49" y="438"/>
      <point x="50" y="445"/>
      <point x="47" y="477"/>
      <point x="47" y="480" type="qcurve"/>
      <point x="50" y="479"/>
      <point x="88" y="482"/>
      <point x="186" y="485"/>
      <point x="224" y="489"/>
      <point x="227" y="490" type="qcurve"/>
      <point x="227" y="501"/>
      <point x="228" y="612"/>
      <point x="227" y="637"/>
      <point x="228" y="647" type="qcurve"/>
      <point x="229" y="653"/>
      <point x="230" y="660"/>
      <point x="231" y="665" type="qcurve"/>
      <point x="232" y="661"/>
      <point x="248" y="661"/>
      <point x="273" y="662"/>
      <point x="281" y="661" type="qcurve"/>
      <point x="281" y="650"/>
      <point x="281" y="612"/>
      <point x="281" y="495"/>
      <point x="283" y="490" type="qcurve"/>
      <point x="295" y="489"/>
      <point x="331" y="489"/>
      <point x="379" y="489"/>
      <point x="438" y="488"/>
      <point x="449" y="486" type="qcurve"/>
      <point x="449" y="460"/>
      <point x="445" y="435" type="qcurve"/>
      <point x="442" y="433"/>
      <point x="408" y="432"/>
      <point x="326" y="432"/>
      <point x="286" y="431"/>
      <point x="281" y="428" type="qcurve"/>
      <point x="282" y="419"/>
      <point x="280" y="367"/>
      <point x="277" y="300"/>
      <point x="274" y="266"/>
      <point x="274" y="259" type="qcurve"/>
      <point x="274" y="257" type="line"/>
      <point x="274" y="254"/>
      <point x="239" y="254"/>
      <point x="223" y="256"/>
    </contour>
    <contour>
      <point x="25" y="63" type="qcurve"/>
      <point x="25" y="75"/>
      <point x="27" y="83"/>
      <point x="28" y="111"/>
      <point x="28" y="114" type="qcurve"/>
      <point x="29" y="114"/>
      <point x="89" y="114"/>
      <point x="180" y="114"/>
      <point x="288" y="114"/>
      <point x="385" y="114"/>
      <point x="459" y="114"/>
      <point x="471" y="114" type="qcurve"/>
      <point x="472" y="86"/>
      <point x="474" y="56" type="qcurve"/>
      <point x="473" y="56" type="line"/>
      <point x="468" y="56"/>
      <point x="400" y="56"/>
      <point x="304" y="58"/>
      <point x="194" y="60"/>
      <point x="98" y="61"/>
      <point x="30" y="63"/>
    </contour>
  </outline>
</glyph>
<glyph name="threesuperior" format="1">
  <advance width="254"/>
  <unicode hex="00B3"/>
  <outline>
    <contour>
      <point x="45" y="347" type="qcurve"/>
      <point x="38" y="354"/>
      <point x="31" y="371"/>
      <point x="30" y="381" type="qcurve"/>
      <point x="28" y="391"/>
      <point x="27" y="413"/>
      <point x="26" y="427" type="qcurve"/>
      <point x="26" y="428"/>
      <point x="27" y="428" type="qcurve"/>
      <point x="27" y="428" type="line"/>
      <point x="40" y="427"/>
      <point x="49" y="428" type="qcurve"/>
      <point x="49" y="428" type="line"/>
      <point x="50" y="428" type="line"/>
      <point x="48" y="426"/>
      <point x="60" y="345"/>
      <point x="185" y="353"/>
      <point x="200" y="427"/>
      <point x="194" y="476"/>
      <point x="165" y="487"/>
      <point x="102" y="485"/>
      <point x="91" y="485" type="qcurve"/>
      <point x="89" y="491"/>
      <point x="90" y="512"/>
      <point x="89" y="508" type="qcurve"/>
      <point x="89" y="508" type="line"/>
      <point x="96" y="511"/>
      <point x="165" y="508"/>
      <point x="193" y="508"/>
      <point x="201" y="542"/>
      <point x="195" y="623"/>
      <point x="122" y="637"/>
      <point x="75" y="624"/>
      <point x="48" y="596"/>
      <point x="50" y="552" type="qcurve"/>
      <point x="37" y="552"/>
      <point x="27" y="551"/>
      <point x="26" y="551" type="qcurve"/>
      <point x="26" y="552" type="line"/>
      <point x="26" y="561"/>
      <point x="24" y="585"/>
      <point x="27" y="594" type="qcurve"/>
      <point x="33" y="613"/>
      <point x="61" y="638"/>
      <point x="97" y="651"/>
      <point x="138" y="654"/>
      <point x="176" y="645"/>
      <point x="207" y="628"/>
      <point x="215" y="614" type="qcurve"/>
      <point x="220" y="606"/>
      <point x="222" y="589"/>
      <point x="222" y="581" type="qcurve"/>
      <point x="222" y="542"/>
      <point x="222" y="466"/>
      <point x="221" y="428" type="qcurve"/>
      <point x="220" y="416"/>
      <point x="219" y="387"/>
      <point x="213" y="376" type="qcurve"/>
      <point x="206" y="360"/>
      <point x="184" y="338"/>
      <point x="167" y="332" type="qcurve"/>
      <point x="150" y="328"/>
      <point x="109" y="327"/>
      <point x="92" y="330" type="qcurve"/>
      <point x="85" y="330"/>
      <point x="73" y="334"/>
      <point x="67" y="336" type="qcurve"/>
      <point x="57" y="338"/>
      <point x="46" y="347"/>
    </contour>
  </outline>
</glyph>
<glyph name="paragraph" format="1">
  <advance width="672"/>
  <unicode hex="00B6"/>
  <outline>
    <contour>
      <point x="557" y="730" type="line"/>
      <point x="652" y="728" type="line"/>
      <point x="652" y="722"/>
      <point x="655" y="687"/>
      <point x="655" y="672" type="qcurve"/>
      <point x="652" y="667"/>
      <point x="632" y="663"/>
      <point x="605" y="662"/>
      <point x="572" y="664"/>
      <point x="555" y="665" type="qcurve"/>
      <point x="554" y="605"/>
      <point x="552" y="379"/>
      <point x="549" y="226"/>
      <point x="548" y="75"/>
      <point x="547" y="-58"/>
      <point x="548" y="-166"/>
      <point x="550" y="-198" type="qcurve"/>
      <point x="545" y="-204"/>
      <point x="485" y="-202"/>
      <point x="478" y="-204" type="qcurve"/>
      <point x="484" y="-127"/>
      <point x="487" y="69"/>
      <point x="487" y="279"/>
      <point x="488" y="572"/>
      <point x="491" y="666" type="qcurve"/>
      <point x="154" y="664" type="line"/>
      <point x="153" y="604"/>
      <point x="151" y="379"/>
      <point x="149" y="226"/>
      <point x="148" y="75"/>
      <point x="148" y="-60"/>
      <point x="149" y="-168"/>
      <point x="151" y="-201" type="qcurve"/>
      <point x="146" y="-207"/>
      <point x="81" y="-205"/>
      <point x="74" y="-207" type="qcurve"/>
      <point x="78" y="-160"/>
      <point x="81" y="-35"/>
      <point x="83" y="105"/>
      <point x="82" y="250"/>
      <point x="83" y="437" type="qcurve" smooth="yes"/>
      <point x="18" y="442"/>
      <point x="18" y="520"/>
      <point x="20" y="582"/>
      <point x="28" y="645" type="qcurve"/>
      <point x="40" y="694"/>
      <point x="77" y="711" type="qcurve"/>
      <point x="90" y="717"/>
      <point x="123" y="723"/>
      <point x="160" y="726"/>
      <point x="200" y="726"/>
      <point x="219" y="727" type="qcurve"/>
      <point x="395" y="728" type="line"/>
    </contour>
  </outline>
</glyph>
<glyph name="onehalf" format="1">
  <advance width="602"/>
  <unicode hex="00BD"/>
  <outline>
    <contour>
      <point x="162" y="308" type="qcurve"/>
      <point x="143" y="308"/>
      <point x="129" y="307"/>
      <point x="119" y="308" type="qcurve"/>
      <point x="119" y="308" type="line"/>
      <point x="119" y="355" type="line"/>
      <point x="120" y="405"/>
      <point x="123" y="507"/>
      <point x="125" y="598" type="qcurve"/>
      <point x="125" y="600"/>
      <point x="125" y="606"/>
      <point x="125" y="608" type="qcurve"/>
      <point x="123" y="608"/>
      <point x="119" y="599"/>
      <point x="74" y="524"/>
      <point x="70" y="524" type="qcurve"/>
      <point x="68" y="524"/>
      <point x="34" y="536"/>
      <point x="34" y="538" type="qcurve"/>
      <point x="49" y="565"/>
      <point x="79" y="613"/>
      <point x="97" y="641"/>
      <point x="107" y="655"/>
      <point x="108" y="656" type="qcurve"/>
      <point x="119" y="657"/>
      <point x="165" y="656" type="qcurve"/>
      <point x="166" y="635"/>
      <point x="165" y="594"/>
      <point x="165" y="573" type="qcurve"/>
      <point x="167" y="516"/>
      <point x="162" y="405"/>
      <point x="162" y="348" type="qcurve"/>
      <point x="162" y="340"/>
      <point x="162" y="323"/>
    </contour>
    <contour>
      <point x="377" y="0" type="line"/>
      <point x="355" y="0" type="line"/>
      <point x="355" y="1"/>
      <point x="355" y="2" type="qcurve"/>
      <point x="352" y="30"/>
      <point x="354" y="56"/>
      <point x="363" y="69" type="qcurve"/>
      <point x="382" y="92"/>
      <point x="438" y="141"/>
      <point x="520" y="196"/>
      <point x="529" y="215" type="qcurve"/>
      <point x="538" y="247"/>
      <point x="530" y="300"/>
      <point x="493" y="316"/>
      <point x="459" y="316" type="qcurve"/>
      <point x="447" y="316"/>
      <point x="413" y="308"/>
      <point x="391" y="269"/>
      <point x="391" y="220"/>
      <point x="391" y="211" type="qcurve"/>
      <point x="391" y="209" type="line"/>
      <point x="391" y="209" type="line"/>
      <point x="375" y="206"/>
      <point x="358" y="208" type="qcurve"/>
      <point x="357" y="208" type="line"/>
      <point x="357" y="208" type="line"/>
      <point x="351" y="244"/>
      <point x="364" y="303"/>
      <point x="382" y="323" type="qcurve"/>
      <point x="392" y="336"/>
      <point x="429" y="351"/>
      <point x="470" y="354"/>
      <point x="510" y="349"/>
      <point x="523" y="344" type="qcurve"/>
      <point x="547" y="332"/>
      <point x="570" y="289"/>
      <point x="572" y="261" type="qcurve"/>
      <point x="572" y="251"/>
      <point x="573" y="227"/>
      <point x="573" y="226" type="qcurve"/>
      <point x="572" y="208"/>
      <point x="556" y="181"/>
      <point x="534" y="158"/>
      <point x="505" y="143"/>
      <point x="440" y="98"/>
      <point x="409" y="69" type="qcurve"/>
      <point x="404" y="62"/>
      <point x="402" y="50"/>
      <point x="402" y="42"/>
      <point x="403" y="41" type="qcurve"/>
      <point x="436" y="40"/>
      <point x="530" y="40"/>
      <point x="564" y="43" type="qcurve"/>
      <point x="566" y="30"/>
      <point x="565" y="9"/>
      <point x="566" y="3" type="qcurve"/>
      <point x="566" y="3"/>
      <point x="565" y="3" type="qcurve"/>
    </contour>
    <contour>
      <point x="246" y="151" type="line"/>
      <point x="252" y="166"/>
      <point x="263" y="196"/>
      <point x="268" y="211" type="qcurve"/>
      <point x="289" y="265"/>
      <point x="326" y="373"/>
      <point x="345" y="428" type="qcurve"/>
      <point x="354" y="455"/>
      <point x="372" y="510"/>
      <point x="382" y="538" type="qcurve"/>
      <point x="404" y="604"/>
      <point x="424" y="669"/>
      <point x="428" y="683" type="qcurve"/>
      <point x="430" y="689"/>
      <point x="432" y="696"/>
      <point x="434" y="701" type="qcurve"/>
      <point x="422" y="707"/>
      <point x="389" y="709" type="qcurve"/>
      <point x="382" y="681"/>
      <point x="366" y="627"/>
      <point x="313" y="467"/>
      <point x="302" y="438" type="qcurve"/>
      <point x="272" y="357"/>
      <point x="238" y="261"/>
      <point x="211" y="189"/>
      <point x="176" y="90" type="qcurve"/>
      <point x="175" y="86"/>
      <point x="163" y="57"/>
      <point x="152" y="25"/>
      <point x="146" y="6"/>
      <point x="143" y="0" type="qcurve"/>
      <point x="183" y="1"/>
      <point x="189" y="2" type="qcurve"/>
      <point x="190" y="3"/>
      <point x="192" y="7" type="qcurve"/>
    </contour>
  </outline>
</glyph>
<glyph name="threequarters" format="1">
  <advance width="626"/>
  <unicode hex="00BE"/>
  <outline>
    <contour>
      <point x="276" y="151" type="line"/>
      <point x="282" y="166"/>
      <point x="293" y="196"/>
      <point x="298" y="211" type="qcurve"/>
      <point x="319" y="265"/>
      <point x="356" y="373"/>
      <point x="375" y="428" type="qcurve"/>
      <point x="384" y="455"/>
      <point x="402" y="510"/>
      <point x="412" y="538" type="qcurve"/>
      <point x="434" y="604"/>
      <point x="454" y="669"/>
      <point x="458" y="683" type="qcurve"/>
      <point x="460" y="689"/>
      <point x="462" y="696"/>
      <point x="464" y="701" type="qcurve"/>
      <point x="452" y="707"/>
      <point x="419" y="709" type="qcurve"/>
      <point x="412" y="681"/>
      <point x="396" y="627"/>
      <point x="343" y="467"/>
      <point x="332" y="438" type="qcurve"/>
      <point x="302" y="357"/>
      <point x="268" y="261"/>
      <point x="241" y="189"/>
      <point x="206" y="90" type="qcurve"/>
      <point x="205" y="86"/>
      <point x="193" y="57"/>
      <point x="182" y="25"/>
      <point x="176" y="6"/>
      <point x="173" y="0" type="qcurve"/>
      <point x="213" y="1"/>
      <point x="219" y="2" type="qcurve"/>
      <point x="220" y="3"/>
      <point x="222" y="7" type="qcurve"/>
    </contour>
    <contour>
      <point x="46" y="327" type="qcurve"/>
      <point x="40" y="334"/>
      <point x="32" y="353"/>
      <point x="30" y="363" type="qcurve"/>
      <point x="28" y="374"/>
      <point x="27" y="398"/>
      <point x="26" y="413" type="qcurve"/>
      <point x="26" y="414"/>
      <point x="27" y="414" type="qcurve"/>
      <point x="27" y="414" type="line"/>
      <point x="42" y="413"/>
      <point x="71" y="414" type="qcurve"/>
      <point x="72" y="414" type="line"/>
      <point x="72" y="414" type="line"/>
      <point x="69" y="401"/>
      <point x="84" y="344"/>
      <point x="185" y="344"/>
      <point x="202" y="412"/>
      <point x="196" y="458"/>
      <point x="164" y="470"/>
      <point x="97" y="468"/>
      <point x="85" y="468" type="qcurve"/>
      <point x="82" y="490"/>
      <point x="90" y="510"/>
      <point x="89" y="506" type="qcurve"/>
      <point x="89" y="506" type="line"/>
      <point x="98" y="509"/>
      <point x="164" y="508"/>
      <point x="195" y="507"/>
      <point x="203" y="536"/>
      <point x="194" y="607"/>
      <point x="123" y="615"/>
      <point x="86" y="605"/>
      <point x="65" y="577"/>
      <point x="73" y="547" type="qcurve"/>
      <point x="37" y="547"/>
      <point x="27" y="546"/>
      <point x="26" y="546" type="qcurve"/>
      <point x="26" y="547" type="line"/>
      <point x="26" y="557"/>
      <point x="24" y="582"/>
      <point x="28" y="593" type="qcurve"/>
      <point x="34" y="612"/>
      <point x="64" y="639"/>
      <point x="103" y="654"/>
      <point x="147" y="656"/>
      <point x="188" y="648"/>
      <point x="220" y="628"/>
      <point x="229" y="613" type="qcurve"/>
      <point x="234" y="605"/>
      <point x="237" y="587"/>
      <point x="236" y="578" type="qcurve"/>
      <point x="237" y="535"/>
      <point x="237" y="454"/>
      <point x="235" y="414" type="qcurve"/>
      <point x="234" y="400"/>
      <point x="233" y="371"/>
      <point x="226" y="357" type="qcurve"/>
      <point x="220" y="340"/>
      <point x="195" y="317"/>
      <point x="177" y="311" type="qcurve"/>
      <point x="159" y="306"/>
      <point x="116" y="305"/>
      <point x="97" y="308" type="qcurve"/>
      <point x="90" y="308"/>
      <point x="77" y="313"/>
      <point x="70" y="315" type="qcurve"/>
      <point x="59" y="318"/>
      <point x="47" y="327"/>
    </contour>
    <contour>
      <point x="572" y="171" type="line"/>
      <point x="597" y="170"/>
      <point x="603" y="170" type="qcurve"/>
      <point x="600" y="129" type="line"/>
      <point x="592" y="127"/>
      <point x="569" y="128" type="qcurve"/>
      <point x="569" y="128"/>
      <point x="568" y="117"/>
      <point x="567" y="81"/>
      <point x="565" y="38"/>
      <point x="566" y="18"/>
      <point x="565" y="3"/>
      <point x="565" y="1" type="qcurve"/>
      <point x="562" y="-3"/>
      <point x="518" y="-2" type="qcurve"/>
      <point x="517" y="-2"/>
      <point x="518" y="12"/>
      <point x="519" y="33"/>
      <point x="521" y="57"/>
      <point x="523" y="129"/>
      <point x="523" y="130" type="qcurve"/>
      <point x="521" y="131"/>
      <point x="501" y="132"/>
      <point x="449" y="131"/>
      <point x="422" y="131"/>
      <point x="399" y="131"/>
      <point x="384" y="131"/>
      <point x="384" y="132" type="qcurve"/>
      <point x="381" y="148"/>
      <point x="384" y="157" type="qcurve"/>
      <point x="493" y="304"/>
      <point x="532" y="353" type="qcurve"/>
      <point x="532" y="354"/>
      <point x="532" y="354" type="qcurve"/>
      <point x="534" y="354"/>
      <point x="564" y="354"/>
      <point x="568" y="354"/>
      <point x="572" y="354" type="qcurve"/>
      <point x="573" y="354" type="line"/>
      <point x="573" y="353"/>
      <point x="572" y="327"/>
      <point x="571" y="287"/>
      <point x="569" y="240"/>
      <point x="569" y="182"/>
      <point x="569" y="174"/>
      <point x="569" y="170" type="qcurve"/>
    </contour>
    <contour>
      <point x="525" y="282" type="line"/>
      <point x="525" y="285"/>
      <point x="515" y="272"/>
      <point x="481" y="220"/>
      <point x="444" y="173"/>
      <point x="444" y="172" type="qcurve"/>
      <point x="444" y="172"/>
      <point x="485" y="171"/>
      <point x="481" y="170"/>
      <point x="519" y="171"/>
      <point x="523" y="172" type="qcurve"/>
    </contour>
  </outline>
</glyph>
<glyph name="Agrave" format="1">
  <advance width="434"/>
  <unicode hex="00C0"/>
  <outline>
    <contour>
      <point x="437" y="1" type="line"/>
      <point x="437" y="0" type="line"/>
      <point x="391" y="-6"/>
      <point x="394" y="0" type="qcurve"/>
      <point x="393" y="0" type="line"/>
      <point x="387" y="16"/>
      <point x="376" y="60"/>
      <point x="365" y="106"/>
      <point x="348" y="169" type="qcurve"/>
      <point x="83" y="172" type="line"/>
      <point x="72" y="111"/>
      <point x="63" y="64"/>
      <point x="52" y="3" type="qcurve"/>
      <point x="51" y="3"/>
      <point x="44" y="2"/>
      <point x="4" y="2" type="qcurve"/>
      <point x="6" y="9"/>
      <point x="16" y="73"/>
      <point x="34" y="175"/>
      <point x="59" y="308"/>
      <point x="93" y="458"/>
      <point x="133" y="620"/>
      <point x="166" y="700" type="qcurve"/>
      <point x="173" y="701"/>
      <point x="189" y="701"/>
      <point x="206" y="701"/>
      <point x="247" y="702"/>
      <point x="280" y="705" type="qcurve"/>
      <point x="283" y="692"/>
      <point x="296" y="639"/>
      <point x="311" y="572"/>
      <point x="328" y="496"/>
      <point x="344" y="426"/>
      <point x="358" y="368"/>
      <point x="362" y="351" type="qcurve"/>
    </contour>
    <contour>
      <point x="347" y="213" type="qcurve"/>
      <point x="256" y="659"/>
      <point x="239" y="659"/>
      <point x="202" y="659"/>
      <point x="183" y="658"/>
      <point x="136" y="451"/>
      <point x="88" y="213" type="qcurve"/>
      <point x="100" y="212"/>
      <point x="215" y="210"/>
    </contour>
    <contour>
      <point x="107" y="904" type="line"/>
      <point x="119" y="891"/>
      <point x="155" y="854"/>
      <point x="197" y="815"/>
      <point x="242" y="766"/>
      <point x="259" y="750" type="qcurve"/>
      <point x="252" y="748"/>
      <point x="222" y="745"/>
      <point x="194" y="748" type="qcurve"/>
      <point x="189" y="756"/>
      <point x="162" y="782"/>
      <point x="128" y="817"/>
      <point x="75" y="872"/>
      <point x="73" y="868" type="qcurve"/>
    </contour>
  </outline>
</glyph>
<glyph name="Adieresis" format="1">
  <advance width="434"/>
  <unicode hex="00C4"/>
  <outline>
    <contour>
      <point x="437" y="1" type="line"/>
      <point x="437" y="0" type="line"/>
      <point x="391" y="-6"/>
      <point x="394" y="0" type="qcurve"/>
      <point x="393" y="0" type="line"/>
      <point x="387" y="16"/>
      <point x="376" y="60"/>
      <point x="365" y="106"/>
      <point x="348" y="169" type="qcurve"/>
      <point x="83" y="172" type="line"/>
      <point x="72" y="111"/>
      <point x="63" y="64"/>
      <point x="52" y="3" type="qcurve"/>
      <point x="51" y="3"/>
      <point x="44" y="2"/>
      <point x="4" y="2" type="qcurve"/>
      <point x="6" y="9"/>
      <point x="16" y="73"/>
      <point x="34" y="175"/>
      <point x="59" y="308"/>
      <point x="93" y="458"/>
      <point x="133" y="620"/>
      <point x="166" y="700" type="qcurve"/>
      <point x="173" y="701"/>
      <point x="189" y="701"/>
      <point x="206" y="701"/>
      <point x="247" y="702"/>
      <point x="280" y="705" type="qcurve"/>
      <point x="283" y="692"/>
      <point x="296" y="639"/>
      <point x="311" y="572"/>
      <point x="328" y="496"/>
      <point x="344" y="426"/>
      <point x="358" y="368"/>
      <point x="362" y="351" type="qcurve"/>
    </contour>
    <contour>
      <point x="347" y="213" type="qcurve"/>
      <point x="256" y="659"/>
      <point x="239" y="659"/>
      <point x="202" y="659"/>
      <point x="183" y="658"/>
      <point x="136" y="451"/>
      <point x="88" y="213" type="qcurve"/>
      <point x="100" y="212"/>
      <point x="215" y="210"/>
    </contour>
    <contour>
      <point x="120" y="760" type="line"/>
      <point x="117" y="760" type="line"/>
      <point x="115" y="770"/>
      <point x="114" y="799"/>
      <point x="115" y="829"/>
      <point x="116" y="855"/>
      <point x="116" y="861" type="qcurve"/>
      <point x="125" y="864"/>
      <point x="160" y="865"/>
      <point x="167" y="862" type="qcurve"/>
      <point x="167" y="861"/>
      <point x="165" y="835"/>
      <point x="163" y="800"/>
      <point x="161" y="768"/>
      <point x="161" y="761" type="qcurve"/>
      <point x="161" y="760" type="line"/>
      <point x="161" y="759" type="line"/>
      <point x="159" y="759" type="line"/>
    </contour>
    <contour>
      <point x="278" y="760" type="line"/>
      <point x="275" y="760" type="line"/>
      <point x="273" y="770"/>
      <point x="272" y="799"/>
      <point x="273" y="829"/>
      <point x="274" y="855"/>
      <point x="274" y="861" type="qcurve"/>
      <point x="283" y="864"/>
      <point x="318" y="865"/>
      <point x="325" y="862" type="qcurve"/>
      <point x="325" y="861"/>
      <point x="323" y="835"/>
      <point x="321" y="800"/>
      <point x="319" y="768"/>
      <point x="319" y="761" type="qcurve"/>
      <point x="319" y="760" type="line"/>
      <point x="319" y="759" type="line"/>
      <point x="317" y="759" type="line"/>
    </contour>
  </outline>
</glyph>
<glyph name="Ccedilla" format="1">
  <advance width="476"/>
  <unicode hex="00C7"/>
  <outline>
    <contour>
      <point x="204" y="-9" type="qcurve"/>
      <point x="151" y="-7"/>
      <point x="85" y="24"/>
      <point x="40" y="80"/>
      <point x="36" y="122" type="qcurve"/>
      <point x="34" y="158"/>
      <point x="32" y="236"/>
      <point x="31" y="333"/>
      <point x="32" y="456"/>
      <point x="33" y="537" type="qcurve"/>
      <point x="38" y="589"/>
      <point x="44" y="604" type="qcurve"/>
      <point x="53" y="630"/>
      <point x="80" y="674"/>
      <point x="99" y="691" type="qcurve"/>
      <point x="110" y="699"/>
      <point x="136" y="710"/>
      <point x="150" y="714" type="qcurve"/>
      <point x="196" y="729"/>
      <point x="286" y="723"/>
      <point x="365" y="688"/>
      <point x="429" y="630"/>
      <point x="467" y="555"/>
      <point x="475" y="467"/>
      <point x="471" y="420" type="qcurve"/>
      <point x="420" y="413"/>
      <point x="426" y="418" type="qcurve"/>
      <point x="428" y="433"/>
      <point x="422" y="528"/>
      <point x="411" y="579"/>
      <point x="335" y="677"/>
      <point x="212" y="680" type="qcurve"/>
      <point x="64" y="683"/>
      <point x="76" y="360" type="qcurve"/>
      <point x="75" y="254"/>
      <point x="76" y="197" type="qcurve"/>
      <point x="78" y="89"/>
      <point x="196" y="21"/>
      <point x="269" y="28" type="qcurve"/>
      <point x="339" y="37"/>
      <point x="435" y="159"/>
      <point x="421" y="283" type="qcurve"/>
      <point x="444" y="284"/>
      <point x="465" y="287" type="qcurve"/>
      <point x="475" y="228"/>
      <point x="459" y="125"/>
      <point x="405" y="43"/>
      <point x="318" y="-10"/>
      <point x="253" y="-9" type="qcurve"/>
      <point x="248" y="-35"/>
      <point x="242" y="-58" type="qcurve"/>
      <point x="234" y="-91"/>
      <point x="232" y="-98" type="qcurve"/>
      <point x="232" y="-98"/>
      <point x="192" y="-98"/>
      <point x="182" y="-98" type="qcurve"/>
      <point x="182" y="-97" type="line"/>
      <point x="194" y="-52"/>
      <point x="201" y="-20" type="qcurve"/>
      <point x="203" y="-14"/>
    </contour>
  </outline>
</glyph>
<glyph name="Edieresis" format="1">
  <advance width="481"/>
  <unicode hex="00CB"/>
  <outline>
    <contour>
      <point x="457" y="39" type="line"/>
      <point x="455" y="3" type="line"/>
      <point x="353" y="4"/>
      <point x="142" y="-3"/>
      <point x="45" y="5" type="qcurve"/>
      <point x="45" y="92"/>
      <point x="41" y="263"/>
      <point x="39" y="433"/>
      <point x="41" y="603"/>
      <point x="46" y="689" type="qcurve"/>
      <point x="85" y="691"/>
      <point x="176" y="694"/>
      <point x="268" y="696"/>
      <point x="354" y="698"/>
      <point x="420" y="698"/>
      <point x="460" y="696"/>
      <point x="460" y="695" type="qcurve"/>
      <point x="459" y="657" type="line"/>
      <point x="427" y="659"/>
      <point x="368" y="656"/>
      <point x="302" y="657"/>
      <point x="236" y="657"/>
      <point x="95" y="653" type="qcurve"/>
      <point x="92" y="653" type="line"/>
      <point x="91" y="652" type="line"/>
      <point x="92" y="623"/>
      <point x="80" y="395"/>
      <point x="87" y="368" type="qcurve"/>
      <point x="88" y="367" type="line"/>
      <point x="226" y="366"/>
      <point x="288" y="366"/>
      <point x="319" y="365" type="qcurve"/>
      <point x="319" y="364" type="line"/>
      <point x="320" y="345"/>
      <point x="320" y="326"/>
      <point x="321" y="329" type="qcurve"/>
      <point x="280" y="327"/>
      <point x="268" y="324"/>
      <point x="233" y="326"/>
      <point x="97" y="323"/>
      <point x="92" y="319" type="qcurve"/>
      <point x="87" y="290"/>
      <point x="90" y="165"/>
      <point x="86" y="46" type="qcurve"/>
      <point x="87" y="45" type="line"/>
      <point x="261" y="46"/>
      <point x="389" y="39"/>
      <point x="457" y="41" type="qcurve"/>
    </contour>
    <contour>
      <point x="134" y="760" type="line"/>
      <point x="131" y="760" type="line"/>
      <point x="129" y="770"/>
      <point x="128" y="799"/>
      <point x="129" y="829"/>
      <point x="130" y="855"/>
      <point x="130" y="861" type="qcurve"/>
      <point x="139" y="864"/>
      <point x="174" y="865"/>
      <point x="181" y="862" type="qcurve"/>
      <point x="181" y="861"/>
      <point x="179" y="835"/>
      <point x="177" y="800"/>
      <point x="175" y="768"/>
      <point x="175" y="761" type="qcurve"/>
      <point x="175" y="760" type="line"/>
      <point x="175" y="759" type="line"/>
      <point x="173" y="759" type="line"/>
    </contour>
    <contour>
      <point x="292" y="760" type="line"/>
      <point x="289" y="760" type="line"/>
      <point x="287" y="770"/>
      <point x="286" y="799"/>
      <point x="287" y="829"/>
      <point x="288" y="855"/>
      <point x="288" y="861" type="qcurve"/>
      <point x="297" y="864"/>
      <point x="332" y="865"/>
      <point x="339" y="862" type="qcurve"/>
      <point x="339" y="861"/>
      <point x="337" y="835"/>
      <point x="335" y="800"/>
      <point x="333" y="768"/>
      <point x="333" y="761" type="qcurve"/>
      <point x="333" y="760" type="line"/>
      <point x="333" y="759" type="line"/>
      <point x="331" y="759" type="line"/>
    </contour>
  </outline>
</glyph>
<glyph name="Igrave" format="1">
  <advance width="260"/>
  <unicode hex="00CC"/>
  <outline>
    <contour>
      <point x="19" y="904" type="line"/>
      <point x="31" y="891"/>
      <point x="67" y="854"/>
      <point x="109" y="815"/>
      <point x="154" y="766"/>
      <point x="171" y="750" type="qcurve"/>
      <point x="164" y="748"/>
      <point x="134" y="745"/>
      <point x="106" y="748" type="qcurve"/>
      <point x="101" y="756"/>
      <point x="74" y="782"/>
      <point x="40" y="817"/>
      <point x="-13" y="872"/>
      <point x="-15" y="868" type="qcurve"/>
    </contour>
    <contour>
      <point x="155" y="703" type="qcurve"/>
      <point x="155" y="699" type="line"/>
      <point x="155" y="613"/>
      <point x="150" y="439"/>
      <point x="152" y="264"/>
      <point x="149" y="90"/>
      <point x="154" y="1" type="qcurve"/>
      <point x="144" y="0"/>
      <point x="133" y="-1"/>
      <point x="106" y="-1"/>
      <point x="96" y="-4" type="qcurve"/>
      <point x="98" y="118"/>
      <point x="96" y="447"/>
      <point x="95" y="622"/>
      <point x="104" y="706" type="qcurve"/>
      <point x="104" y="708" type="line"/>
      <point x="120" y="709"/>
      <point x="126" y="706"/>
      <point x="128" y="706" type="qcurve"/>
      <point x="136" y="705"/>
    </contour>
  </outline>
</glyph>
<glyph name="Icircumflex" format="1">
  <advance width="260"/>
  <unicode hex="00CE"/>
  <outline>
    <contour>
      <point x="155" y="703" type="qcurve"/>
      <point x="155" y="699" type="line"/>
      <point x="155" y="613"/>
      <point x="150" y="439"/>
      <point x="152" y="264"/>
      <point x="149" y="90"/>
      <point x="154" y="1" type="qcurve"/>
      <point x="144" y="0"/>
      <point x="133" y="-1"/>
      <point x="106" y="-1"/>
      <point x="96" y="-4" type="qcurve"/>
      <point x="98" y="118"/>
      <point x="96" y="447"/>
      <point x="95" y="622"/>
      <point x="104" y="706" type="qcurve"/>
      <point x="104" y="708" type="line"/>
      <point x="120" y="709"/>
      <point x="126" y="706"/>
      <point x="128" y="706" type="qcurve"/>
      <point x="136" y="705"/>
    </contour>
    <contour>
      <point x="302" y="754" type="line"/>
      <point x="300" y="755"/>
      <point x="276" y="752"/>
      <point x="257" y="749" type="qcurve"/>
      <point x="253" y="749"/>
      <point x="176" y="823"/>
      <point x="162" y="840"/>
      <point x="147" y="855"/>
      <point x="143" y="857" type="qcurve"/>
      <point x="138" y="856"/>
      <point x="121" y="838"/>
      <point x="106" y="821"/>
      <point x="43" y="754"/>
      <point x="39" y="753" type="qcurve"/>
      <point x="30" y="752"/>
      <point x="12" y="752"/>
      <point x="-19" y="753" type="qcurve"/>
      <point x="28" y="808"/>
      <point x="97" y="874"/>
      <point x="141" y="915" type="qcurve"/>
    </contour>
  </outline>
</glyph>
<glyph name="Eth" format="1">
  <advance width="482"/>
  <unicode hex="00D0"/>
  <outline>
    <contour>
      <point x="-4" y="322" type="qcurve"/>
      <point x="-4" y="334"/>
      <point x="-2" y="342"/>
      <point x="-1" y="370"/>
      <point x="-1" y="373" type="qcurve"/>
      <point x="0" y="373"/>
      <point x="21" y="374" type="qcurve"/>
      <point x="28" y="374"/>
      <point x="39" y="374" type="qcurve"/>
      <point x="39" y="442"/>
      <point x="40" y="511" type="qcurve"/>
      <point x="42" y="600"/>
      <point x="40" y="687" type="qcurve"/>
      <point x="41" y="688"/>
      <point x="42" y="690"/>
      <point x="43" y="691" type="qcurve"/>
      <point x="71" y="698"/>
      <point x="132" y="703"/>
      <point x="194" y="702"/>
      <point x="255" y="700"/>
      <point x="284" y="701" type="qcurve"/>
      <point x="316" y="693"/>
      <point x="375" y="646"/>
      <point x="393" y="617" type="qcurve"/>
      <point x="414" y="583"/>
      <point x="444" y="510"/>
      <point x="453" y="470" type="qcurve"/>
      <point x="458" y="454"/>
      <point x="461" y="423"/>
      <point x="462" y="407" type="qcurve"/>
      <point x="460" y="360"/>
      <point x="457" y="265"/>
      <point x="448" y="219" type="qcurve"/>
      <point x="447" y="218" type="line"/>
      <point x="447" y="218"/>
      <point x="427" y="158"/>
      <point x="358" y="52"/>
      <point x="320" y="5" type="qcurve"/>
      <point x="254" y="3"/>
      <point x="120" y="2"/>
      <point x="57" y="2" type="qcurve"/>
      <point x="56" y="1" type="line"/>
      <point x="45" y="80"/>
      <point x="42" y="164" type="qcurve"/>
      <point x="39" y="241"/>
      <point x="39" y="320" type="qcurve"/>
      <point x="34" y="320"/>
      <point x="29" y="320" type="qcurve"/>
      <point x="1" y="322"/>
    </contour>
    <contour>
      <point x="418" y="296" type="qcurve"/>
      <point x="425" y="369"/>
      <point x="417" y="441" type="qcurve"/>
      <point x="392" y="556"/>
      <point x="303" y="660"/>
      <point x="243" y="662"/>
      <point x="203" y="663"/>
      <point x="88" y="657" type="qcurve"/>
      <point x="80" y="657" type="line"/>
      <point x="87" y="626"/>
      <point x="87" y="508" type="qcurve"/>
      <point x="87" y="416"/>
      <point x="85" y="375" type="qcurve"/>
      <point x="90" y="375" type="line"/>
      <point x="225" y="375" type="line"/>
      <point x="226" y="347"/>
      <point x="228" y="317" type="qcurve"/>
      <point x="188" y="317" type="line"/>
      <point x="154" y="317"/>
      <point x="106" y="318" type="qcurve"/>
      <point x="93" y="318"/>
      <point x="82" y="318" type="qcurve"/>
      <point x="82" y="277"/>
      <point x="86" y="201" type="qcurve"/>
      <point x="92" y="79"/>
      <point x="94" y="49" type="qcurve"/>
      <point x="105" y="44"/>
      <point x="241" y="48"/>
      <point x="259" y="50" type="qcurve"/>
      <point x="290" y="50" type="line"/>
      <point x="325" y="82"/>
      <point x="391" y="161"/>
    </contour>
  </outline>
</glyph>
<glyph name="Ugrave" format="1">
  <advance width="505"/>
  <unicode hex="00D9"/>
  <outline>
    <contour>
      <point x="469" y="669" type="qcurve"/>
      <point x="475" y="541"/>
      <point x="471" y="280"/>
      <point x="457" y="151" type="qcurve"/>
      <point x="449" y="85"/>
      <point x="365" y="-7"/>
      <point x="293" y="-14" type="qcurve"/>
      <point x="251" y="-18"/>
      <point x="161" y="-3"/>
      <point x="88" y="36"/>
      <point x="46" y="122"/>
      <point x="44" y="168" type="qcurve"/>
      <point x="37" y="279"/>
      <point x="43" y="547"/>
      <point x="41" y="679" type="qcurve"/>
      <point x="40" y="680" type="line"/>
      <point x="41" y="680" type="line"/>
      <point x="56" y="680"/>
      <point x="94" y="680" type="qcurve"/>
      <point x="85" y="283"/>
      <point x="110" y="63"/>
      <point x="294" y="16"/>
      <point x="407" y="116"/>
      <point x="422" y="322"/>
      <point x="417" y="555"/>
      <point x="420" y="671" type="qcurve"/>
      <point x="457" y="676"/>
    </contour>
    <contour>
      <point x="151" y="904" type="line"/>
      <point x="163" y="891"/>
      <point x="199" y="854"/>
      <point x="241" y="815"/>
      <point x="286" y="766"/>
      <point x="303" y="750" type="qcurve"/>
      <point x="296" y="748"/>
      <point x="266" y="745"/>
      <point x="238" y="748" type="qcurve"/>
      <point x="233" y="756"/>
      <point x="206" y="782"/>
      <point x="172" y="817"/>
      <point x="119" y="872"/>
      <point x="117" y="868" type="qcurve"/>
    </contour>
  </outline>
</glyph>
<glyph name="Udieresis" format="1">
  <advance width="505"/>
  <unicode hex="00DC"/>
  <outline>
    <contour>
      <point x="469" y="669" type="qcurve"/>
      <point x="475" y="541"/>
      <point x="471" y="280"/>
      <point x="457" y="151" type="qcurve"/>
      <point x="449" y="85"/>
      <point x="365" y="-7"/>
      <point x="293" y="-14" type="qcurve"/>
      <point x="251" y="-18"/>
      <point x="161" y="-3"/>
      <point x="88" y="36"/>
      <point x="46" y="122"/>
      <point x="44" y="168" type="qcurve"/>
      <point x="37" y="279"/>
      <point x="43" y="547"/>
      <point x="41" y="679" type="qcurve"/>
      <point x="40" y="680" type="line"/>
      <point x="41" y="680" type="line"/>
      <point x="56" y="680"/>
      <point x="94" y="680" type="qcurve"/>
      <point x="85" y="283"/>
      <point x="110" y="63"/>
      <point x="294" y="16"/>
      <point x="407" y="116"/>
      <point x="422" y="322"/>
      <point x="417" y="555"/>
      <point x="420" y="671" type="qcurve"/>
      <point x="457" y="676"/>
    </contour>
    <contour>
      <point x="157" y="760" type="line"/>
      <point x="154" y="760" type="line"/>
      <point x="152" y="770"/>
      <point x="151" y="799"/>
      <point x="152" y="829"/>
      <point x="153" y="855"/>
      <point x="153" y="861" type="qcurve"/>
      <point x="162" y="864"/>
      <point x="197" y="865"/>
      <point x="204" y="862" type="qcurve"/>
      <point x="204" y="861"/>
      <point x="202" y="835"/>
      <point x="200" y="800"/>
      <point x="198" y="768"/>
      <point x="198" y="761" type="qcurve"/>
      <point x="198" y="760" type="line"/>
      <point x="198" y="759" type="line"/>
      <point x="196" y="759" type="line"/>
    </contour>
    <contour>
      <point x="315" y="760" type="line"/>
      <point x="312" y="760" type="line"/>
      <point x="310" y="770"/>
      <point x="309" y="799"/>
      <point x="310" y="829"/>
      <point x="311" y="855"/>
      <point x="311" y="861" type="qcurve"/>
      <point x="320" y="864"/>
      <point x="355" y="865"/>
      <point x="362" y="862" type="qcurve"/>
      <point x="362" y="861"/>
      <point x="360" y="835"/>
      <point x="358" y="800"/>
      <point x="356" y="768"/>
      <point x="356" y="761" type="qcurve"/>
      <point x="356" y="760" type="line"/>
      <point x="356" y="759" type="line"/>
      <point x="354" y="759" type="line"/>
    </contour>
  </outline>
</glyph>
<glyph name="acircumflex" format="1">
  <advance width="476"/>
  <unicode hex="00E2"/>
  <outline>
    <contour>
      <point x="414" y="595" type="line"/>
      <point x="412" y="596"/>
      <point x="388" y="593"/>
      <point x="369" y="590" type="qcurve"/>
      <point x="365" y="590"/>
      <point x="288" y="664"/>
      <point x="274" y="681"/>
      <point x="259" y="696"/>
      <point x="255" y="698" type="qcurve"/>
      <point x="250" y="697"/>
      <point x="233" y="679"/>
      <point x="218" y="662"/>
      <point x="155" y="595"/>
      <point x="151" y="594" type="qcurve"/>
      <point x="142" y="593"/>
      <point x="124" y="593"/>
      <point x="93" y="594" type="qcurve"/>
      <point x="140" y="649"/>
      <point x="209" y="715"/>
      <point x="253" y="756" type="qcurve"/>
    </contour>
    <contour>
      <point x="439" y="498" type="qcurve"/>
      <point x="440" y="492"/>
      <point x="441" y="480"/>
      <point x="441" y="474" type="qcurve"/>
      <point x="441" y="464" type="line"/>
      <point x="438" y="356"/>
      <point x="446" y="147"/>
      <point x="439" y="40" type="qcurve"/>
      <point x="439" y="27"/>
      <point x="438" y="1"/>
      <point x="426" y="-1" type="qcurve"/>
      <point x="398" y="-1"/>
      <point x="399" y="-2" type="qcurve"/>
      <point x="392" y="0"/>
      <point x="391" y="20"/>
      <point x="391" y="45"/>
      <point x="391" y="55" type="qcurve"/>
      <point x="358" y="2"/>
      <point x="201" y="-2"/>
      <point x="166" y="-2" type="qcurve"/>
      <point x="127" y="-2"/>
      <point x="72" y="52"/>
      <point x="36" y="132"/>
      <point x="19" y="226"/>
      <point x="19" y="266" type="qcurve"/>
      <point x="19" y="316"/>
      <point x="45" y="400"/>
      <point x="90" y="461"/>
      <point x="152" y="496"/>
      <point x="187" y="497" type="qcurve"/>
      <point x="212" y="498"/>
      <point x="326" y="496"/>
      <point x="356" y="481"/>
      <point x="375" y="466"/>
      <point x="385" y="448" type="qcurve"/>
      <point x="389" y="473"/>
      <point x="389" y="499" type="qcurve"/>
      <point x="389" y="500"/>
      <point x="402" y="501"/>
      <point x="407" y="500"/>
    </contour>
    <contour>
      <point x="74" y="341" type="qcurve"/>
      <point x="67" y="316"/>
      <point x="64" y="264"/>
      <point x="64" y="239" type="qcurve"/>
      <point x="69" y="139"/>
      <point x="141" y="31"/>
      <point x="236" y="39" type="qcurve"/>
      <point x="283" y="38"/>
      <point x="344" y="58"/>
      <point x="389" y="113"/>
      <point x="390" y="199"/>
      <point x="390" y="253" type="qcurve"/>
      <point x="390" y="320"/>
      <point x="379" y="403"/>
      <point x="348" y="432"/>
      <point x="308" y="457"/>
      <point x="243" y="461" type="qcurve"/>
      <point x="175" y="464"/>
      <point x="85" y="388"/>
    </contour>
  </outline>
</glyph>
<glyph name="ccedilla" format="1">
  <advance width="443"/>
  <unicode hex="00E7"/>
  <outline>
    <contour>
      <point x="421" y="192" type="qcurve"/>
      <point x="419" y="166"/>
      <point x="415" y="116"/>
      <point x="409" y="73"/>
      <point x="400" y="42"/>
      <point x="393" y="35" type="qcurve"/>
      <point x="376" y="11"/>
      <point x="321" y="-9"/>
      <point x="289" y="-11" type="qcurve"/>
      <point x="266" y="-13"/>
      <point x="241" y="-12" type="qcurve"/>
      <point x="239" y="-24"/>
      <point x="235" y="-38" type="qcurve"/>
      <point x="227" y="-71"/>
      <point x="210" y="-137"/>
      <point x="208" y="-144" type="qcurve"/>
      <point x="158" y="-144" type="line"/>
      <point x="158" y="-143" type="line"/>
      <point x="170" y="-98"/>
      <point x="177" y="-66" type="qcurve"/>
      <point x="183" y="-42"/>
      <point x="194" y="-9" type="qcurve"/>
      <point x="176" y="-9"/>
      <point x="161" y="-9" type="qcurve"/>
      <point x="110" y="0"/>
      <point x="75" y="35" type="qcurve"/>
      <point x="48" y="59"/>
      <point x="28" y="131"/>
      <point x="24" y="210"/>
      <point x="23" y="257"/>
      <point x="23" y="323" type="qcurve"/>
      <point x="23" y="359"/>
      <point x="29" y="395" type="qcurve"/>
      <point x="30" y="406"/>
      <point x="42" y="444"/>
      <point x="45" y="454" type="qcurve"/>
      <point x="52" y="469"/>
      <point x="83" y="491"/>
      <point x="124" y="506"/>
      <point x="171" y="512"/>
      <point x="195" y="512" type="qcurve"/>
      <point x="215" y="510"/>
      <point x="252" y="513"/>
      <point x="273" y="511" type="qcurve"/>
      <point x="305" y="509"/>
      <point x="363" y="489"/>
      <point x="384" y="469" type="qcurve"/>
      <point x="398" y="459"/>
      <point x="413" y="425"/>
      <point x="421" y="379"/>
      <point x="422" y="322"/>
      <point x="423" y="289" type="qcurve"/>
      <point x="410" y="286"/>
      <point x="397" y="287"/>
      <point x="384" y="289" type="qcurve"/>
      <point x="387" y="443"/>
      <point x="257" y="473"/>
      <point x="134" y="465" type="qcurve"/>
      <point x="102" y="459"/>
      <point x="79" y="418"/>
      <point x="65" y="320"/>
      <point x="71" y="188" type="qcurve"/>
      <point x="69" y="165"/>
      <point x="103" y="33"/>
      <point x="306" y="18"/>
      <point x="377" y="84"/>
      <point x="380" y="181"/>
      <point x="379" y="198" type="qcurve"/>
      <point x="393" y="193"/>
      <point x="410" y="195"/>
    </contour>
  </outline>
</glyph>
<glyph name="edieresis" format="1">
  <advance width="444"/>
  <unicode hex="00EB"/>
  <outline>
    <contour>
      <point x="65" y="237" type="line"/>
      <point x="65" y="222"/>
      <point x="66" y="198"/>
      <point x="67" y="188" type="qcurve"/>
      <point x="68" y="179"/>
      <point x="71" y="153"/>
      <point x="80" y="120"/>
      <point x="99" y="82"/>
      <point x="116" y="60" type="qcurve"/>
      <point x="148" y="19"/>
      <point x="241" y="19" type="qcurve"/>
      <point x="355" y="19"/>
      <point x="367" y="85" type="qcurve"/>
      <point x="372" y="112"/>
      <point x="375" y="158"/>
      <point x="375" y="176" type="qcurve"/>
      <point x="375" y="190" type="line"/>
      <point x="379" y="190" type="line"/>
      <point x="385" y="190"/>
      <point x="400" y="191"/>
      <point x="408" y="191" type="qcurve"/>
      <point x="417" y="191"/>
      <point x="422" y="190" type="qcurve"/>
      <point x="420" y="164"/>
      <point x="416" y="114"/>
      <point x="410" y="71"/>
      <point x="401" y="40"/>
      <point x="394" y="34" type="qcurve"/>
      <point x="373" y="4"/>
      <point x="301" y="-13"/>
      <point x="261" y="-13" type="qcurve"/>
      <point x="218" y="-13"/>
      <point x="142" y="-9"/>
      <point x="112" y="8" type="qcurve"/>
      <point x="88" y="25"/>
      <point x="53" y="79"/>
      <point x="30" y="145"/>
      <point x="20" y="219"/>
      <point x="20" y="257" type="qcurve"/>
      <point x="20" y="299"/>
      <point x="29" y="385"/>
      <point x="43" y="423" type="qcurve"/>
      <point x="53" y="446"/>
      <point x="90" y="480"/>
      <point x="138" y="503"/>
      <point x="194" y="515"/>
      <point x="223" y="515" type="qcurve"/>
      <point x="284" y="515"/>
      <point x="363" y="482"/>
      <point x="408" y="424"/>
      <point x="426" y="346"/>
      <point x="426" y="302" type="qcurve"/>
      <point x="426" y="291"/>
      <point x="425" y="270"/>
      <point x="424" y="259" type="qcurve"/>
      <point x="419" y="257"/>
      <point x="389" y="253"/>
      <point x="347" y="250"/>
      <point x="298" y="247"/>
      <point x="274" y="247" type="qcurve"/>
      <point x="231" y="247"/>
      <point x="153" y="250"/>
      <point x="95" y="253"/>
      <point x="62" y="255"/>
      <point x="65" y="255" type="qcurve"/>
    </contour>
    <contour>
      <point x="315" y="467" type="qcurve"/>
      <point x="293" y="475"/>
      <point x="265" y="479"/>
      <point x="242" y="479" type="qcurve"/>
      <point x="192" y="479"/>
      <point x="126" y="452"/>
      <point x="85" y="407"/>
      <point x="68" y="345"/>
      <point x="68" y="311" type="qcurve"/>
      <point x="68" y="294"/>
      <point x="129" y="286"/>
      <point x="179" y="286" type="qcurve"/>
      <point x="196" y="286"/>
      <point x="240" y="289"/>
      <point x="267" y="289" type="qcurve"/>
      <point x="281" y="289"/>
      <point x="305" y="288"/>
      <point x="315" y="288" type="qcurve"/>
      <point x="342" y="288"/>
      <point x="372" y="289"/>
      <point x="387" y="293"/>
      <point x="391" y="298"/>
      <point x="391" y="303" type="qcurve"/>
      <point x="391" y="322"/>
      <point x="383" y="368"/>
      <point x="365" y="412"/>
      <point x="336" y="452"/>
    </contour>
    <contour>
      <point x="128" y="652" type="line"/>
      <point x="125" y="652" type="line"/>
      <point x="122" y="667"/>
      <point x="122" y="692" type="qcurve"/>
      <point x="122" y="709"/>
      <point x="120" y="734"/>
      <point x="124" y="749"/>
      <point x="138" y="756"/>
      <point x="154" y="756" type="qcurve"/>
      <point x="161" y="756"/>
      <point x="172" y="756"/>
      <point x="175" y="754" type="qcurve"/>
      <point x="175" y="753"/>
      <point x="173" y="727"/>
      <point x="171" y="692"/>
      <point x="169" y="660"/>
      <point x="169" y="653" type="qcurve"/>
      <point x="169" y="651" type="line"/>
      <point x="167" y="651" type="line"/>
    </contour>
    <contour>
      <point x="286" y="651" type="line"/>
      <point x="283" y="651" type="line"/>
      <point x="280" y="667"/>
      <point x="280" y="692" type="qcurve"/>
      <point x="280" y="709"/>
      <point x="278" y="734"/>
      <point x="282" y="749"/>
      <point x="296" y="756"/>
      <point x="312" y="756" type="qcurve"/>
      <point x="319" y="756"/>
      <point x="330" y="756"/>
      <point x="333" y="754" type="qcurve"/>
      <point x="333" y="753"/>
      <point x="331" y="727"/>
      <point x="329" y="692"/>
      <point x="327" y="660"/>
      <point x="327" y="653" type="qcurve"/>
      <point x="327" y="651" type="line"/>
      <point x="325" y="651" type="line"/>
    </contour>
  </outline>
</glyph>
<glyph name="iacute" format="1">
  <advance width="207"/>
  <unicode hex="00ED"/>
  <outline>
    <contour>
      <point x="234" y="738" type="line"/>
      <point x="222" y="725"/>
      <point x="186" y="688"/>
      <point x="144" y="649"/>
      <point x="99" y="600"/>
      <point x="82" y="584" type="qcurve"/>
      <point x="89" y="582"/>
      <point x="119" y="579"/>
      <point x="147" y="582" type="qcurve"/>
      <point x="152" y="590"/>
      <point x="179" y="616"/>
      <point x="213" y="651"/>
      <point x="266" y="706"/>
      <point x="268" y="702" type="qcurve"/>
    </contour>
    <contour>
      <point x="139" y="503" type="qcurve"/>
      <point x="139" y="500" type="line"/>
      <point x="138" y="379"/>
      <point x="131" y="127"/>
      <point x="139" y="0" type="qcurve"/>
      <point x="112" y="2"/>
      <point x="90" y="0"/>
      <point x="83" y="-2" type="qcurve"/>
      <point x="83" y="108"/>
      <point x="83" y="214"/>
      <point x="83" y="319"/>
      <point x="81" y="444"/>
      <point x="87" y="503" type="qcurve"/>
      <point x="87" y="504" type="line"/>
      <point x="91" y="505"/>
    </contour>
  </outline>
</glyph>
<glyph name="icircumflex" format="1">
  <advance width="207"/>
  <unicode hex="00EE"/>
  <outline>
    <contour>
      <point x="270" y="592" type="line"/>
      <point x="268" y="593"/>
      <point x="244" y="590"/>
      <point x="225" y="587" type="qcurve"/>
      <point x="221" y="587"/>
      <point x="144" y="661"/>
      <point x="130" y="678"/>
      <point x="115" y="693"/>
      <point x="111" y="695" type="qcurve"/>
      <point x="106" y="694"/>
      <point x="89" y="676"/>
      <point x="74" y="659"/>
      <point x="11" y="592"/>
      <point x="7" y="591" type="qcurve"/>
      <point x="-2" y="590"/>
      <point x="-20" y="590"/>
      <point x="-51" y="591" type="qcurve"/>
      <point x="-4" y="646"/>
      <point x="65" y="712"/>
      <point x="109" y="753" type="qcurve"/>
    </contour>
    <contour>
      <point x="139" y="503" type="qcurve"/>
      <point x="139" y="500" type="line"/>
      <point x="138" y="379"/>
      <point x="131" y="127"/>
      <point x="139" y="0" type="qcurve"/>
      <point x="112" y="2"/>
      <point x="90" y="0"/>
      <point x="83" y="-2" type="qcurve"/>
      <point x="83" y="108"/>
      <point x="83" y="214"/>
      <point x="83" y="319"/>
      <point x="81" y="444"/>
      <point x="87" y="503" type="qcurve"/>
      <point x="87" y="504" type="line"/>
      <point x="91" y="505"/>
    </contour>
  </outline>
</glyph>
<glyph name="idieresis" format="1">
  <advance width="207"/>
  <unicode hex="00EF"/>
  <outline>
    <contour>
      <point x="139" y="503" type="qcurve"/>
      <point x="139" y="500" type="line"/>
      <point x="138" y="379"/>
      <point x="131" y="127"/>
      <point x="139" y="0" type="qcurve"/>
      <point x="112" y="2"/>
      <point x="90" y="0"/>
      <point x="83" y="-2" type="qcurve"/>
      <point x="83" y="108"/>
      <point x="83" y="214"/>
      <point x="83" y="319"/>
      <point x="81" y="444"/>
      <point x="87" y="503" type="qcurve"/>
      <point x="87" y="504" type="line"/>
      <point x="91" y="505"/>
    </contour>
    <contour>
      <point x="4" y="651" type="line"/>
      <point x="1" y="651" type="line"/>
      <point x="-1" y="661"/>
      <point x="-2" y="690"/>
      <point x="-1" y="720"/>
      <point x="0" y="746"/>
      <point x="0" y="752" type="qcurve"/>
      <point x="9" y="755"/>
      <point x="44" y="756"/>
      <point x="51" y="753" type="qcurve"/>
      <point x="51" y="752"/>
      <point x="49" y="726"/>
      <point x="47" y="691"/>
      <point x="45" y="659"/>
      <point x="45" y="652" type="qcurve"/>
      <point x="45" y="651" type="line"/>
      <point x="45" y="650" type="line"/>
      <point x="43" y="650" type="line"/>
    </contour>
    <contour>
      <point x="162" y="651" type="line"/>
      <point x="159" y="651" type="line"/>
      <point x="157" y="661"/>
      <point x="156" y="690"/>
      <point x="157" y="720"/>
      <point x="158" y="746"/>
      <point x="158" y="752" type="qcurve"/>
      <point x="167" y="755"/>
      <point x="202" y="756"/>
      <point x="209" y="753" type="qcurve"/>
      <point x="209" y="752"/>
      <point x="207" y="726"/>
      <point x="205" y="691"/>
      <point x="203" y="659"/>
      <point x="203" y="652" type="qcurve"/>
      <point x="203" y="651" type="line"/>
      <point x="203" y="650" type="line"/>
      <point x="201" y="650" type="line"/>
    </contour>
  </outline>
</glyph>
<glyph name="eth" format="1">
  <advance width="529"/>
  <unicode hex="00F0"/>
  <outline>
    <contour>
      <point x="70" y="159" type="line"/>
      <point x="80" y="119"/>
      <point x="128" y="61"/>
      <point x="190" y="31"/>
      <point x="261" y="21"/>
      <point x="293" y="26" type="qcurve"/>
      <point x="370" y="35"/>
      <point x="444" y="128"/>
      <point x="437" y="206" type="qcurve"/>
      <point x="431" y="263"/>
      <point x="375" y="343"/>
      <point x="297" y="390"/>
      <point x="210" y="406"/>
      <point x="177" y="402" type="qcurve"/>
      <point x="105" y="392"/>
      <point x="58" y="269"/>
      <point x="65" y="192" type="qcurve"/>
    </contour>
    <contour>
      <point x="244" y="750" type="qcurve"/>
      <point x="318" y="807"/>
      <point x="376" y="849"/>
      <point x="387" y="855" type="qcurve"/>
      <point x="399" y="839"/>
      <point x="424" y="812" type="qcurve"/>
      <point x="371" y="779"/>
      <point x="326" y="745"/>
      <point x="288" y="722"/>
      <point x="274" y="713" type="qcurve"/>
      <point x="293" y="697"/>
      <point x="474" y="500"/>
      <point x="494" y="393" type="qcurve"/>
      <point x="503" y="318"/>
      <point x="501" y="178"/>
      <point x="470" y="62"/>
      <point x="386" y="-12"/>
      <point x="313" y="-21" type="qcurve"/>
      <point x="261" y="-27"/>
      <point x="162" y="-13"/>
      <point x="81" y="29"/>
      <point x="27" y="102"/>
      <point x="21" y="155" type="qcurve"/>
      <point x="20" y="160"/>
      <point x="19" y="172"/>
      <point x="19" y="178" type="qcurve"/>
      <point x="18" y="206" type="line"/>
      <point x="16" y="257"/>
      <point x="27" y="341"/>
      <point x="62" y="403"/>
      <point x="123" y="441"/>
      <point x="170" y="447" type="qcurve"/>
      <point x="241" y="444"/>
      <point x="295" y="442"/>
      <point x="334" y="433"/>
      <point x="402" y="386"/>
      <point x="441" y="325" type="qcurve"/>
      <point x="421" y="476"/>
      <point x="294" y="625"/>
      <point x="257" y="656"/>
      <point x="226" y="682" type="qcurve"/>
      <point x="195" y="661"/>
      <point x="132" y="610"/>
      <point x="90" y="582"/>
      <point x="63" y="565"/>
      <point x="60" y="563" type="qcurve"/>
      <point x="53" y="573"/>
      <point x="28" y="594"/>
      <point x="26" y="597" type="qcurve"/>
      <point x="26" y="597"/>
      <point x="46" y="611"/>
      <point x="79" y="635"/>
      <point x="163" y="698"/>
      <point x="188" y="716" type="qcurve"/>
      <point x="162" y="722"/>
      <point x="109" y="757"/>
      <point x="69" y="774" type="qcurve"/>
      <point x="68" y="775"/>
      <point x="84" y="790"/>
      <point x="122" y="816"/>
      <point x="127" y="814" type="qcurve"/>
      <point x="142" y="803"/>
      <point x="225" y="756"/>
    </contour>
  </outline>
</glyph>
<glyph name="ntilde" format="1">
  <advance width="450"/>
  <unicode hex="00F1"/>
  <outline>
    <contour>
      <point x="97" y="442" type="qcurve"/>
      <point x="102" y="445"/>
      <point x="117" y="453"/>
      <point x="122" y="457" type="qcurve"/>
      <point x="143" y="472"/>
      <point x="267" y="494"/>
      <point x="322" y="496"/>
      <point x="374" y="482"/>
      <point x="395" y="464" type="qcurve"/>
      <point x="405" y="455"/>
      <point x="416" y="398"/>
      <point x="419" y="318"/>
      <point x="418" y="223"/>
      <point x="416" y="126"/>
      <point x="414" y="36"/>
      <point x="416" y="2" type="qcurve"/>
      <point x="404" y="0"/>
      <point x="365" y="0" type="qcurve"/>
      <point x="363" y="23"/>
      <point x="363" y="81"/>
      <point x="364" y="143"/>
      <point x="369" y="240"/>
      <point x="369" y="320"/>
      <point x="363" y="459"/>
      <point x="183" y="444"/>
      <point x="120" y="410"/>
      <point x="93" y="364"/>
      <point x="91" y="337" type="qcurve"/>
      <point x="89" y="302"/>
      <point x="91" y="169"/>
      <point x="94" y="102"/>
      <point x="94" y="36"/>
      <point x="93" y="3" type="qcurve"/>
      <point x="93" y="-1" type="line"/>
      <point x="62" y="-1"/>
      <point x="38" y="-3" type="qcurve"/>
      <point x="38" y="120"/>
      <point x="33" y="366"/>
      <point x="37" y="498" type="qcurve"/>
      <point x="49" y="497"/>
      <point x="79" y="499"/>
      <point x="95" y="498"/>
      <point x="95" y="495" type="qcurve"/>
      <point x="97" y="478"/>
      <point x="96" y="456"/>
    </contour>
    <contour>
      <point x="70" y="592" type="line"/>
      <point x="58" y="593"/>
      <point x="41" y="593"/>
      <point x="26" y="592" type="qcurve"/>
      <point x="29" y="603"/>
      <point x="42" y="638"/>
      <point x="58" y="676"/>
      <point x="76" y="710"/>
      <point x="86" y="721" type="qcurve"/>
      <point x="99" y="734"/>
      <point x="133" y="752"/>
      <point x="169" y="758"/>
      <point x="205" y="751"/>
      <point x="221" y="740" type="qcurve"/>
      <point x="236" y="729"/>
      <point x="253" y="701"/>
      <point x="280" y="610"/>
      <point x="376" y="629"/>
      <point x="397" y="707"/>
      <point x="391" y="747" type="qcurve"/>
      <point x="428" y="748" type="line"/>
      <point x="428" y="747" type="line"/>
      <point x="432" y="722"/>
      <point x="423" y="669"/>
      <point x="399" y="623"/>
      <point x="360" y="590"/>
      <point x="334" y="586" type="qcurve"/>
      <point x="303" y="581"/>
      <point x="245" y="599"/>
      <point x="225" y="664" type="qcurve"/>
      <point x="209" y="707"/>
      <point x="175" y="725"/>
      <point x="153" y="721" type="qcurve"/>
      <point x="116" y="712"/>
      <point x="80" y="643"/>
      <point x="70" y="593" type="qcurve"/>
    </contour>
  </outline>
</glyph>
<glyph name="oslash" format="1">
  <advance width="351"/>
  <unicode hex="00F8"/>
  <outline>
    <contour>
      <point x="80" y="30" type="qcurve"/>
      <point x="77" y="20"/>
      <point x="74" y="10" type="qcurve"/>
      <point x="70" y="-1"/>
      <point x="66" y="-15"/>
      <point x="63" y="-20" type="qcurve"/>
      <point x="94" y="-19"/>
      <point x="98" y="-18" type="qcurve"/>
      <point x="99" y="-17"/>
      <point x="101" y="-14" type="qcurve"/>
      <point x="110" y="10" type="line"/>
      <point x="116" y="7"/>
      <point x="123" y="5" type="qcurve"/>
      <point x="144" y="-3"/>
      <point x="170" y="-4" type="qcurve"/>
      <point x="202" y="-7"/>
      <point x="252" y="15"/>
      <point x="289" y="57"/>
      <point x="316" y="109"/>
      <point x="331" y="171"/>
      <point x="337" y="232"/>
      <point x="335" y="260" type="qcurve"/>
      <point x="337" y="280"/>
      <point x="333" y="322"/>
      <point x="329" y="345" type="qcurve"/>
      <point x="325" y="375"/>
      <point x="300" y="433"/>
      <point x="281" y="454" type="qcurve"/>
      <point x="277" y="458"/>
      <point x="273" y="461" type="qcurve"/>
      <point x="281" y="484"/>
      <point x="284" y="494" type="qcurve"/>
      <point x="286" y="498"/>
      <point x="287" y="503"/>
      <point x="289" y="507" type="qcurve"/>
      <point x="279" y="512"/>
      <point x="254" y="513" type="qcurve"/>
      <point x="246" y="483" type="line"/>
      <point x="239" y="486"/>
      <point x="233" y="489" type="qcurve"/>
      <point x="207" y="502"/>
      <point x="172" y="500" type="qcurve"/>
      <point x="138" y="499"/>
      <point x="88" y="467"/>
      <point x="68" y="443" type="qcurve"/>
      <point x="63" y="439"/>
      <point x="61" y="435" type="qcurve"/>
      <point x="45" y="411"/>
      <point x="31" y="357"/>
      <point x="24" y="303"/>
      <point x="25" y="246"/>
      <point x="27" y="219" type="qcurve"/>
      <point x="28" y="186"/>
      <point x="32" y="123"/>
      <point x="50" y="64"/>
      <point x="69" y="42" type="qcurve"/>
      <point x="74" y="35"/>
    </contour>
    <contour>
      <point x="92" y="59" type="qcurve"/>
      <point x="71" y="88"/>
      <point x="65" y="137" type="qcurve"/>
      <point x="58" y="195"/>
      <point x="58" y="268"/>
      <point x="58" y="313" type="qcurve"/>
      <point x="60" y="334"/>
      <point x="64" y="359"/>
      <point x="73" y="390"/>
      <point x="116" y="471"/>
      <point x="190" y="470" type="qcurve"/>
      <point x="216" y="464"/>
      <point x="235" y="453" type="qcurve"/>
      <point x="228" y="431"/>
      <point x="215" y="392" type="qcurve"/>
      <point x="195" y="332"/>
      <point x="187" y="310" type="qcurve"/>
      <point x="163" y="249"/>
      <point x="137" y="176"/>
      <point x="127" y="149" type="qcurve"/>
      <point x="116" y="125"/>
    </contour>
    <contour>
      <point x="122" y="35" type="qcurve"/>
      <point x="143" y="93" type="line"/>
      <point x="148" y="105"/>
      <point x="156" y="128"/>
      <point x="160" y="139" type="qcurve"/>
      <point x="176" y="179"/>
      <point x="205" y="261"/>
      <point x="219" y="303" type="qcurve"/>
      <point x="227" y="322"/>
      <point x="240" y="363"/>
      <point x="249" y="385" type="qcurve"/>
      <point x="257" y="410"/>
      <point x="263" y="434" type="qcurve"/>
      <point x="271" y="419"/>
      <point x="277" y="407" type="qcurve"/>
      <point x="302" y="356"/>
      <point x="305" y="278"/>
      <point x="305" y="234"/>
      <point x="304" y="215" type="qcurve"/>
      <point x="302" y="196"/>
      <point x="301" y="164"/>
      <point x="291" y="118"/>
      <point x="233" y="27"/>
      <point x="178" y="22" type="qcurve"/>
      <point x="144" y="22"/>
    </contour>
  </outline>
</glyph>
<glyph name="ugrave" format="1">
  <advance width="450"/>
  <unicode hex="00F9"/>
  <outline>
    <contour>
      <point x="130" y="740" type="line"/>
      <point x="142" y="727"/>
      <point x="178" y="690"/>
      <point x="220" y="651"/>
      <point x="265" y="602"/>
      <point x="282" y="586" type="qcurve"/>
      <point x="275" y="584"/>
      <point x="245" y="581"/>
      <point x="217" y="584" type="qcurve"/>
      <point x="212" y="592"/>
      <point x="185" y="618"/>
      <point x="151" y="653"/>
      <point x="98" y="708"/>
      <point x="96" y="704" type="qcurve"/>
    </contour>
    <contour>
      <point x="368" y="53" type="qcurve"/>
      <point x="363" y="50"/>
      <point x="322" y="21"/>
      <point x="219" y="2"/>
      <point x="128" y="2"/>
      <point x="76" y="16"/>
      <point x="42" y="51"/>
      <point x="34" y="102"/>
      <point x="31" y="182"/>
      <point x="32" y="277"/>
      <point x="34" y="374"/>
      <point x="36" y="464"/>
      <point x="34" y="498" type="qcurve"/>
      <point x="74" y="498" type="line"/>
      <point x="76" y="475"/>
      <point x="76" y="417"/>
      <point x="75" y="355"/>
      <point x="75" y="267"/>
      <point x="73" y="49"/>
      <point x="227" y="31"/>
      <point x="370" y="94"/>
      <point x="376" y="183"/>
      <point x="374" y="251"/>
      <point x="371" y="393"/>
      <point x="370" y="459"/>
      <point x="369" y="492" type="qcurve"/>
      <point x="369" y="496" type="line"/>
      <point x="387" y="501"/>
      <point x="412" y="503" type="qcurve"/>
      <point x="412" y="380"/>
      <point x="417" y="134"/>
      <point x="413" y="2" type="qcurve"/>
      <point x="391" y="-2"/>
      <point x="381" y="-4"/>
      <point x="370" y="-3"/>
      <point x="370" y="0" type="qcurve"/>
      <point x="369" y="39"/>
    </contour>
  </outline>
</glyph>
<glyph name="uacute" format="1">
  <advance width="449"/>
  <unicode hex="00FA"/>
  <outline>
    <contour>
      <point x="327" y="739" type="line"/>
      <point x="315" y="726"/>
      <point x="279" y="689"/>
      <point x="237" y="650"/>
      <point x="192" y="601"/>
      <point x="175" y="585" type="qcurve"/>
      <point x="182" y="583"/>
      <point x="212" y="580"/>
      <point x="240" y="583" type="qcurve"/>
      <point x="245" y="591"/>
      <point x="272" y="617"/>
      <point x="306" y="652"/>
      <point x="359" y="707"/>
      <point x="361" y="703" type="qcurve"/>
    </contour>
    <contour>
      <point x="368" y="53" type="qcurve"/>
      <point x="363" y="50"/>
      <point x="322" y="21"/>
      <point x="219" y="2"/>
      <point x="128" y="2"/>
      <point x="76" y="16"/>
      <point x="42" y="51"/>
      <point x="34" y="102"/>
      <point x="31" y="182"/>
      <point x="32" y="277"/>
      <point x="34" y="374"/>
      <point x="36" y="464"/>
      <point x="34" y="498" type="qcurve"/>
      <point x="74" y="498" type="line"/>
      <point x="76" y="475"/>
      <point x="76" y="417"/>
      <point x="75" y="355"/>
      <point x="75" y="267"/>
      <point x="73" y="49"/>
      <point x="227" y="31"/>
      <point x="370" y="94"/>
      <point x="376" y="183"/>
      <point x="374" y="251"/>
      <point x="371" y="393"/>
      <point x="370" y="459"/>
      <point x="369" y="492" type="qcurve"/>
      <point x="369" y="496" type="line"/>
      <point x="387" y="501"/>
      <point x="412" y="503" type="qcurve"/>
      <point x="412" y="380"/>
      <point x="417" y="134"/>
      <point x="413" y="2" type="qcurve"/>
      <point x="391" y="-2"/>
      <point x="381" y="-4"/>
      <point x="370" y="-3"/>
      <point x="370" y="0" type="qcurve"/>
      <point x="369" y="39"/>
    </contour>
  </outline>
</glyph>
<glyph name="yacute" format="1">
  <advance width="449"/>
  <unicode hex="00FD"/>
  <outline>
    <contour>
      <point x="308" y="740" type="line"/>
      <point x="296" y="727"/>
      <point x="260" y="690"/>
      <point x="218" y="651"/>
      <point x="173" y="602"/>
      <point x="156" y="586" type="qcurve"/>
      <point x="163" y="584"/>
      <point x="193" y="581"/>
      <point x="221" y="584" type="qcurve"/>
      <point x="226" y="592"/>
      <point x="253" y="618"/>
      <point x="287" y="653"/>
      <point x="340" y="708"/>
      <point x="342" y="704" type="qcurve"/>
    </contour>
    <contour>
      <point x="55" y="498" type="qcurve"/>
      <point x="202" y="-13"/>
      <point x="230" y="-33" type="qcurve"/>
      <point x="268" y="-29"/>
      <point x="379" y="466"/>
      <point x="391" y="496" type="qcurve"/>
      <point x="441" y="499" type="line"/>
      <point x="425" y="439"/>
      <point x="400" y="330"/>
      <point x="375" y="229"/>
      <point x="354" y="121"/>
      <point x="323" y="17"/>
      <point x="275" y="-77"/>
      <point x="196" y="-146"/>
      <point x="79" y="-182"/>
      <point x="-6" y="-177" type="qcurve"/>
      <point x="-16" y="-153"/>
      <point x="-7" y="-129" type="qcurve"/>
      <point x="81" y="-140"/>
      <point x="189" y="-92"/>
      <point x="178" y="-53" type="qcurve"/>
      <point x="94" y="202"/>
      <point x="34" y="387"/>
      <point x="3" y="500" type="qcurve"/>
      <point x="34" y="502"/>
    </contour>
  </outline>
</glyph>
<glyph name="ij" format="1">
  <advance width="500"/>
  <unicode hex="0133"/>
  <outline>
    <contour>
      <point x="139" y="503" type="qcurve"/>
      <point x="139" y="500" type="line"/>
      <point x="138" y="379"/>
      <point x="131" y="127"/>
      <point x="139" y="0" type="qcurve"/>
      <point x="112" y="2"/>
      <point x="90" y="0"/>
      <point x="83" y="-2" type="qcurve"/>
      <point x="83" y="108"/>
      <point x="83" y="214"/>
      <point x="83" y="319"/>
      <point x="81" y="444"/>
      <point x="87" y="503" type="qcurve"/>
      <point x="87" y="504" type="line"/>
      <point x="91" y="505"/>
    </contour>
    <contour>
      <point x="135" y="718" type="line"/>
      <point x="135" y="712"/>
      <point x="136" y="681"/>
      <point x="137" y="644"/>
      <point x="137" y="607"/>
      <point x="138" y="583" type="qcurve"/>
      <point x="102" y="581"/>
      <point x="87" y="581" type="qcurve"/>
      <point x="87" y="610"/>
      <point x="82" y="673"/>
      <point x="83" y="719" type="qcurve"/>
    </contour>
    <contour>
      <point x="374" y="500" type="line"/>
      <point x="403" y="502"/>
      <point x="416" y="500" type="qcurve"/>
      <point x="419" y="476"/>
      <point x="419" y="409"/>
      <point x="418" y="342"/>
      <point x="416" y="281"/>
      <point x="418" y="263" type="qcurve"/>
      <point x="418" y="214"/>
      <point x="419" y="125"/>
      <point x="418" y="38"/>
      <point x="417" y="-41"/>
      <point x="403" y="-99" type="qcurve"/>
      <point x="390" y="-130"/>
      <point x="331" y="-166"/>
      <point x="255" y="-184"/>
      <point x="169" y="-189"/>
      <point x="129" y="-187" type="qcurve"/>
      <point x="127" y="-153"/>
      <point x="129" y="-139" type="qcurve"/>
      <point x="146" y="-140"/>
      <point x="191" y="-138"/>
      <point x="298" y="-130"/>
      <point x="365" y="-96"/>
      <point x="377" y="54"/>
      <point x="373" y="261"/>
      <point x="376" y="361" type="qcurve"/>
    </contour>
    <contour>
      <point x="414" y="718" type="line"/>
      <point x="414" y="712"/>
      <point x="415" y="681"/>
      <point x="416" y="644"/>
      <point x="417" y="605"/>
      <point x="417" y="590" type="qcurve"/>
      <point x="413" y="584"/>
      <point x="387" y="582"/>
      <point x="368" y="585" type="qcurve"/>
      <point x="368" y="610"/>
      <point x="363" y="673"/>
      <point x="364" y="719" type="qcurve"/>
    </contour>
  </outline>
</glyph>
<glyph name="Ydieresis" format="1">
  <advance width="434"/>
  <unicode hex="0178"/>
  <outline>
    <contour>
      <point x="450" y="692" type="line"/>
      <point x="422" y="602"/>
      <point x="346" y="430"/>
      <point x="264" y="259"/>
      <point x="199" y="102"/>
      <point x="156" y="0" type="qcurve"/>
      <point x="150" y="1"/>
      <point x="109" y="-1"/>
      <point x="103" y="0" type="qcurve"/>
      <point x="101" y="0" type="line"/>
      <point x="183" y="195"/>
      <point x="223" y="298" type="qcurve"/>
      <point x="178" y="376"/>
      <point x="135" y="449"/>
      <point x="83" y="538"/>
      <point x="26" y="650"/>
      <point x="16" y="692" type="qcurve"/>
      <point x="36" y="692"/>
      <point x="56" y="695"/>
      <point x="61" y="693" type="qcurve"/>
      <point x="111" y="576"/>
      <point x="213" y="408"/>
      <point x="255" y="347" type="qcurve"/>
      <point x="323" y="496"/>
      <point x="395" y="670"/>
      <point x="404" y="692" type="qcurve"/>
      <point x="417" y="694"/>
      <point x="424" y="695"/>
      <point x="444" y="694"/>
      <point x="450" y="693" type="qcurve"/>
    </contour>
    <contour>
      <point x="120" y="760" type="line"/>
      <point x="117" y="760" type="line"/>
      <point x="115" y="770"/>
      <point x="114" y="799"/>
      <point x="115" y="829"/>
      <point x="116" y="855"/>
      <point x="116" y="861" type="qcurve"/>
      <point x="125" y="864"/>
      <point x="160" y="865"/>
      <point x="167" y="862" type="qcurve"/>
      <point x="167" y="861"/>
      <point x="165" y="835"/>
      <point x="163" y="800"/>
      <point x="161" y="768"/>
      <point x="161" y="761" type="qcurve"/>
      <point x="161" y="760" type="line"/>
      <point x="161" y="759" type="line"/>
      <point x="159" y="759" type="line"/>
    </contour>
    <contour>
      <point x="278" y="760" type="line"/>
      <point x="275" y="760" type="line"/>
      <point x="273" y="770"/>
      <point x="272" y="799"/>
      <point x="273" y="829"/>
      <point x="274" y="855"/>
      <point x="274" y="861" type="qcurve"/>
      <point x="283" y="864"/>
      <point x="318" y="865"/>
      <point x="325" y="862" type="qcurve"/>
      <point x="325" y="861"/>
      <point x="323" y="835"/>
      <point x="321" y="800"/>
      <point x="319" y="768"/>
      <point x="319" y="761" type="qcurve"/>
      <point x="319" y="760" type="line"/>
      <point x="319" y="759" type="line"/>
      <point x="317" y="759" type="line"/>
    </contour>
  </outline>
</glyph>
<glyph name="zcaron" format="1">
  <advance width="456"/>
  <unicode hex="017E"/>
  <outline>
    <contour>
      <point x="411" y="713" type="line"/>
      <point x="409" y="712"/>
      <point x="385" y="715"/>
      <point x="366" y="718" type="qcurve"/>
      <point x="362" y="718"/>
      <point x="285" y="644"/>
      <point x="271" y="627"/>
      <point x="256" y="612"/>
      <point x="252" y="610" type="qcurve"/>
      <point x="247" y="611"/>
      <point x="230" y="629"/>
      <point x="215" y="646"/>
      <point x="152" y="713"/>
      <point x="148" y="714" type="qcurve"/>
      <point x="139" y="715"/>
      <point x="121" y="715"/>
      <point x="90" y="714" type="qcurve"/>
      <point x="137" y="659"/>
      <point x="206" y="593"/>
      <point x="250" y="552" type="qcurve"/>
    </contour>
    <component base="z" xOffset="-9"/>
  </outline>
</glyph>
<glyph name="emdash" format="1">
  <advance width="692"/>
  <unicode hex="2014"/>
  <outline>
    <contour>
      <point x="36" y="232" type="qcurve"/>
      <point x="36" y="244"/>
      <point x="39" y="252"/>
      <point x="41" y="280"/>
      <point x="41" y="283" type="qcurve"/>
      <point x="42" y="283"/>
      <point x="138" y="283"/>
      <point x="283" y="283"/>
      <point x="455" y="283"/>
      <point x="610" y="283"/>
      <point x="642" y="283"/>
      <point x="650" y="283" type="qcurve"/>
      <point x="652" y="255"/>
      <point x="655" y="225" type="qcurve"/>
      <point x="653" y="225" type="line"/>
      <point x="656" y="225"/>
      <point x="634" y="225"/>
      <point x="481" y="227"/>
      <point x="306" y="229"/>
      <point x="152" y="230"/>
      <point x="44" y="232"/>
    </contour>
  </outline>
</glyph>
<glyph name="quoteleft" format="1">
  <advance width="207"/>
  <unicode hex="2018"/>
  <outline>
    <contour>
      <point x="118" y="705" type="line"/>
      <point x="122" y="705"/>
      <point x="131" y="709"/>
      <point x="162" y="708"/>
      <point x="163" y="704" type="qcurve"/>
      <point x="159" y="687"/>
      <point x="139" y="612"/>
      <point x="118" y="531"/>
      <point x="101" y="465"/>
      <point x="99" y="458" type="qcurve"/>
      <point x="99" y="458"/>
      <point x="59" y="458"/>
      <point x="49" y="458" type="qcurve"/>
      <point x="49" y="459" type="line"/>
      <point x="61" y="504"/>
      <point x="76" y="567"/>
      <point x="90" y="618"/>
      <point x="104" y="668"/>
      <point x="116" y="703" type="qcurve"/>
      <point x="116" y="703"/>
      <point x="117" y="705" type="qcurve"/>
    </contour>
  </outline>
</glyph>
<glyph name="quotesinglbase" format="1">
  <advance width="196"/>
  <unicode hex="201A"/>
  <outline>
    <contour>
      <point x="107" y="149" type="line"/>
      <point x="111" y="149"/>
      <point x="121" y="149"/>
      <point x="133" y="149"/>
      <point x="152" y="148" type="qcurve"/>
      <point x="148" y="131"/>
      <point x="128" y="56"/>
      <point x="107" y="-25"/>
      <point x="90" y="-91"/>
      <point x="88" y="-98" type="qcurve"/>
      <point x="88" y="-98"/>
      <point x="48" y="-98"/>
      <point x="38" y="-98" type="qcurve"/>
      <point x="38" y="-97" type="line"/>
      <point x="50" y="-52"/>
      <point x="65" y="11"/>
      <point x="79" y="62"/>
      <point x="93" y="112"/>
      <point x="105" y="147" type="qcurve"/>
      <point x="105" y="147"/>
      <point x="106" y="149" type="qcurve"/>
    </contour>
  </outline>
</glyph>
<glyph name="quotedblbase" format="1">
  <advance width="353"/>
  <unicode hex="201E"/>
  <outline>
    <contour>
      <point x="106" y="149" type="line"/>
      <point x="110" y="149"/>
      <point x="120" y="150"/>
      <point x="140" y="149"/>
      <point x="151" y="148" type="qcurve"/>
      <point x="147" y="131"/>
      <point x="127" y="56"/>
      <point x="106" y="-25"/>
      <point x="89" y="-91"/>
      <point x="87" y="-98" type="qcurve"/>
      <point x="87" y="-98"/>
      <point x="47" y="-98"/>
      <point x="37" y="-98" type="qcurve"/>
      <point x="37" y="-97" type="line"/>
      <point x="49" y="-52"/>
      <point x="64" y="11"/>
      <point x="78" y="62"/>
      <point x="92" y="112"/>
      <point x="104" y="147" type="qcurve"/>
      <point x="104" y="147"/>
      <point x="105" y="149" type="qcurve"/>
    </contour>
    <contour>
      <point x="262" y="149" type="line"/>
      <point x="266" y="149"/>
      <point x="276" y="149"/>
      <point x="288" y="149"/>
      <point x="307" y="148" type="qcurve"/>
      <point x="303" y="131"/>
      <point x="283" y="56"/>
      <point x="262" y="-25"/>
      <point x="245" y="-91"/>
      <point x="243" y="-98" type="qcurve"/>
      <point x="243" y="-98"/>
      <point x="203" y="-98"/>
      <point x="193" y="-98" type="qcurve"/>
      <point x="193" y="-97" type="line"/>
      <point x="205" y="-52"/>
      <point x="220" y="11"/>
      <point x="234" y="62"/>
      <point x="248" y="112"/>
      <point x="260" y="147" type="qcurve"/>
      <point x="260" y="147"/>
      <point x="261" y="149" type="qcurve"/>
    </contour>
  </outline>
</glyph>
<glyph name="daggerdbl" format="1">
  <advance width="286"/>
  <unicode hex="2021"/>
  <outline>
    <contour>
      <point x="27" y="409" type="qcurve"/>
      <point x="58" y="412"/>
      <point x="99" y="411"/>
      <point x="118" y="412" type="qcurve"/>
      <point x="119" y="432"/>
      <point x="120" y="503"/>
      <point x="118" y="525" type="qcurve"/>
      <point x="118" y="526" type="line"/>
      <point x="103" y="528"/>
      <point x="57" y="523"/>
      <point x="30" y="529" type="qcurve"/>
      <point x="27" y="535"/>
      <point x="26" y="556"/>
      <point x="27" y="555"/>
      <point x="28" y="563"/>
      <point x="27" y="570" type="qcurve"/>
      <point x="57" y="573"/>
      <point x="100" y="572"/>
      <point x="118" y="574" type="qcurve"/>
      <point x="117" y="601"/>
      <point x="120" y="653"/>
      <point x="121" y="679" type="qcurve"/>
      <point x="121" y="680" type="line"/>
      <point x="133" y="684"/>
      <point x="153" y="687"/>
      <point x="169" y="683" type="qcurve"/>
      <point x="168" y="655"/>
      <point x="171" y="604"/>
      <point x="170" y="574" type="qcurve"/>
      <point x="199" y="575"/>
      <point x="239" y="577"/>
      <point x="258" y="574" type="qcurve"/>
      <point x="258" y="557"/>
      <point x="258" y="548"/>
      <point x="259" y="532" type="qcurve"/>
      <point x="247" y="534"/>
      <point x="199" y="527"/>
      <point x="170" y="529" type="qcurve"/>
      <point x="169" y="529" type="line"/>
      <point x="167" y="512"/>
      <point x="169" y="429"/>
      <point x="171" y="413" type="qcurve"/>
      <point x="188" y="415"/>
      <point x="244" y="416"/>
      <point x="258" y="414" type="qcurve"/>
      <point x="260" y="367" type="line"/>
      <point x="260" y="366" type="line"/>
      <point x="246" y="365"/>
      <point x="202" y="362"/>
      <point x="171" y="362" type="qcurve"/>
      <point x="169" y="362" type="line"/>
      <point x="171" y="330"/>
      <point x="169" y="275"/>
      <point x="171" y="245" type="qcurve"/>
      <point x="154" y="242"/>
      <point x="137" y="242"/>
      <point x="120" y="242" type="qcurve"/>
      <point x="119" y="242" type="line"/>
      <point x="119" y="248"/>
      <point x="119" y="274"/>
      <point x="118" y="304"/>
      <point x="117" y="334"/>
      <point x="118" y="358" type="qcurve"/>
      <point x="110" y="360"/>
      <point x="90" y="360"/>
      <point x="68" y="359"/>
      <point x="47" y="360"/>
      <point x="29" y="363" type="qcurve"/>
      <point x="27" y="369"/>
      <point x="28" y="402"/>
    </contour>
  </outline>
</glyph>
<glyph name="bullet" format="1">
  <advance width="289"/>
  <unicode hex="2022"/>
  <outline>
    <contour>
      <point x="122" y="247" type="qcurve"/>
      <point x="121" y="249"/>
      <point x="120" y="252" type="qcurve"/>
      <point x="119" y="260"/>
      <point x="120" y="268" type="qcurve"/>
      <point x="120" y="272"/>
      <point x="120" y="279"/>
      <point x="121" y="283" type="qcurve"/>
      <point x="121" y="283"/>
      <point x="121" y="284"/>
      <point x="121" y="285" type="qcurve"/>
      <point x="123" y="288"/>
      <point x="125" y="289" type="qcurve"/>
      <point x="127" y="291"/>
      <point x="129" y="291" type="qcurve"/>
      <point x="130" y="292"/>
      <point x="133" y="292" type="qcurve"/>
      <point x="133" y="292"/>
      <point x="135" y="293"/>
      <point x="135" y="293" type="qcurve"/>
      <point x="138" y="293"/>
      <point x="145" y="293"/>
      <point x="148" y="293" type="qcurve"/>
      <point x="150" y="293"/>
      <point x="155" y="293"/>
      <point x="158" y="292" type="qcurve"/>
      <point x="162" y="291"/>
      <point x="170" y="284"/>
      <point x="170" y="279" type="qcurve"/>
      <point x="171" y="273"/>
      <point x="170" y="261"/>
      <point x="170" y="255" type="qcurve"/>
      <point x="169" y="251"/>
      <point x="165" y="245"/>
      <point x="161" y="243" type="qcurve"/>
      <point x="159" y="242"/>
      <point x="154" y="242"/>
      <point x="151" y="241" type="qcurve"/>
      <point x="147" y="241"/>
      <point x="140" y="241"/>
      <point x="136" y="241" type="qcurve"/>
      <point x="135" y="241" type="line"/>
      <point x="132" y="240"/>
      <point x="124" y="244"/>
    </contour>
  </outline>
</glyph>
<glyph name="ellipsis" format="1">
  <advance width="520"/>
  <unicode hex="2026"/>
  <outline>
    <contour>
      <point x="77" y="1" type="line"/>
      <point x="74" y="1" type="line"/>
      <point x="72" y="12"/>
      <point x="71" y="46"/>
      <point x="72" y="80"/>
      <point x="73" y="110"/>
      <point x="73" y="117" type="qcurve"/>
      <point x="83" y="121"/>
      <point x="105" y="125"/>
      <point x="118" y="122"/>
      <point x="125" y="119" type="qcurve"/>
      <point x="125" y="118"/>
      <point x="123" y="87"/>
      <point x="121" y="47"/>
      <point x="119" y="9"/>
      <point x="119" y="2" type="qcurve"/>
      <point x="119" y="1" type="line"/>
      <point x="119" y="0" type="line"/>
      <point x="117" y="0" type="line"/>
    </contour>
    <contour>
      <point x="240" y="1" type="line"/>
      <point x="237" y="1" type="line"/>
      <point x="235" y="12"/>
      <point x="234" y="46"/>
      <point x="235" y="80"/>
      <point x="236" y="110"/>
      <point x="236" y="117" type="qcurve"/>
      <point x="246" y="121"/>
      <point x="268" y="125"/>
      <point x="281" y="122"/>
      <point x="288" y="119" type="qcurve"/>
      <point x="288" y="118"/>
      <point x="286" y="87"/>
      <point x="284" y="47"/>
      <point x="282" y="9"/>
      <point x="282" y="2" type="qcurve"/>
      <point x="282" y="1" type="line"/>
      <point x="282" y="0" type="line"/>
      <point x="280" y="0" type="line"/>
    </contour>
    <contour>
      <point x="406" y="1" type="line"/>
      <point x="403" y="1" type="line"/>
      <point x="401" y="12"/>
      <point x="400" y="46"/>
      <point x="401" y="80"/>
      <point x="402" y="110"/>
      <point x="402" y="117" type="qcurve"/>
      <point x="412" y="121"/>
      <point x="434" y="125"/>
      <point x="447" y="122"/>
      <point x="454" y="119" type="qcurve"/>
      <point x="454" y="118"/>
      <point x="452" y="87"/>
      <point x="450" y="47"/>
      <point x="448" y="9"/>
      <point x="448" y="2" type="qcurve"/>
      <point x="448" y="1" type="line"/>
      <point x="448" y="0" type="line"/>
      <point x="446" y="0" type="line"/>
    </contour>
  </outline>
</glyph>
<glyph name="perthousand" format="1">
  <advance width="853"/>
  <unicode hex="2030"/>
  <outline>
    <contour>
      <point x="251" y="151" type="line"/>
      <point x="257" y="166"/>
      <point x="268" y="196"/>
      <point x="273" y="211" type="qcurve"/>
      <point x="294" y="265"/>
      <point x="331" y="373"/>
      <point x="350" y="428" type="qcurve"/>
      <point x="359" y="455"/>
      <point x="377" y="510"/>
      <point x="387" y="538" type="qcurve"/>
      <point x="409" y="604"/>
      <point x="429" y="669"/>
      <point x="433" y="683" type="qcurve"/>
      <point x="435" y="689"/>
      <point x="437" y="696"/>
      <point x="439" y="701" type="qcurve"/>
      <point x="427" y="707"/>
      <point x="394" y="709" type="qcurve"/>
      <point x="387" y="681"/>
      <point x="371" y="627"/>
      <point x="318" y="467"/>
      <point x="307" y="438" type="qcurve"/>
      <point x="277" y="357"/>
      <point x="243" y="261"/>
      <point x="216" y="189"/>
      <point x="181" y="90" type="qcurve"/>
      <point x="180" y="86"/>
      <point x="168" y="57"/>
      <point x="157" y="25"/>
      <point x="151" y="6"/>
      <point x="148" y="0" type="qcurve"/>
      <point x="188" y="1"/>
      <point x="194" y="2" type="qcurve"/>
      <point x="195" y="3"/>
      <point x="197" y="7" type="qcurve"/>
    </contour>
    <contour>
      <point x="390" y="304" type="qcurve"/>
      <point x="392" y="307"/>
      <point x="396" y="309" type="qcurve"/>
      <point x="408" y="327"/>
      <point x="446" y="347"/>
      <point x="469" y="347" type="qcurve"/>
      <point x="493" y="349"/>
      <point x="533" y="331"/>
      <point x="560" y="302"/>
      <point x="578" y="264"/>
      <point x="582" y="244" type="qcurve"/>
      <point x="584" y="228"/>
      <point x="586" y="201"/>
      <point x="586" y="187" type="qcurve"/>
      <point x="586" y="167"/>
      <point x="582" y="126"/>
      <point x="570" y="86"/>
      <point x="552" y="49"/>
      <point x="525" y="23"/>
      <point x="489" y="7"/>
      <point x="469" y="9" type="qcurve"/>
      <point x="450" y="11"/>
      <point x="434" y="15" type="qcurve"/>
      <point x="410" y="25"/>
      <point x="382" y="56"/>
      <point x="371" y="94"/>
      <point x="367" y="135"/>
      <point x="367" y="159" type="qcurve"/>
      <point x="365" y="177"/>
      <point x="365" y="215"/>
      <point x="369" y="252"/>
      <point x="380" y="288"/>
    </contour>
    <contour>
      <point x="474" y="48" type="qcurve"/>
      <point x="508" y="50"/>
      <point x="543" y="103"/>
      <point x="549" y="129"/>
      <point x="549" y="146"/>
      <point x="549" y="157" type="qcurve"/>
      <point x="551" y="167"/>
      <point x="551" y="194"/>
      <point x="549" y="239"/>
      <point x="520" y="296"/>
      <point x="481" y="302" type="qcurve"/>
      <point x="437" y="304"/>
      <point x="410" y="256"/>
      <point x="406" y="239"/>
      <point x="402" y="225"/>
      <point x="402" y="213" type="qcurve"/>
      <point x="402" y="189"/>
      <point x="402" y="146"/>
      <point x="406" y="113" type="qcurve"/>
      <point x="414" y="48"/>
    </contour>
    <contour>
      <point x="45" y="639" type="qcurve"/>
      <point x="47" y="642"/>
      <point x="51" y="644" type="qcurve"/>
      <point x="63" y="662"/>
      <point x="101" y="682"/>
      <point x="124" y="682" type="qcurve"/>
      <point x="148" y="684"/>
      <point x="188" y="666"/>
      <point x="215" y="637"/>
      <point x="233" y="599"/>
      <point x="237" y="579" type="qcurve"/>
      <point x="239" y="563"/>
      <point x="241" y="536"/>
      <point x="241" y="522" type="qcurve"/>
      <point x="241" y="502"/>
      <point x="237" y="461"/>
      <point x="225" y="421"/>
      <point x="207" y="384"/>
      <point x="180" y="358"/>
      <point x="144" y="342"/>
      <point x="124" y="344" type="qcurve"/>
      <point x="105" y="346"/>
      <point x="89" y="350" type="qcurve"/>
      <point x="65" y="360"/>
      <point x="37" y="391"/>
      <point x="26" y="429"/>
      <point x="22" y="470"/>
      <point x="22" y="494" type="qcurve"/>
      <point x="20" y="512"/>
      <point x="20" y="550"/>
      <point x="24" y="587"/>
      <point x="35" y="623"/>
    </contour>
    <contour>
      <point x="129" y="383" type="qcurve"/>
      <point x="163" y="385"/>
      <point x="198" y="438"/>
      <point x="204" y="464"/>
      <point x="204" y="481"/>
      <point x="204" y="492" type="qcurve"/>
      <point x="206" y="502"/>
      <point x="206" y="529"/>
      <point x="204" y="574"/>
      <point x="175" y="631"/>
      <point x="136" y="637" type="qcurve"/>
      <point x="92" y="639"/>
      <point x="65" y="591"/>
      <point x="61" y="574"/>
      <point x="57" y="560"/>
      <point x="57" y="548" type="qcurve"/>
      <point x="57" y="524"/>
      <point x="57" y="481"/>
      <point x="61" y="448" type="qcurve"/>
      <point x="69" y="383"/>
    </contour>
    <contour>
      <point x="640" y="304" type="qcurve"/>
      <point x="642" y="307"/>
      <point x="646" y="309" type="qcurve"/>
      <point x="658" y="327"/>
      <point x="696" y="347"/>
      <point x="719" y="347" type="qcurve"/>
      <point x="743" y="349"/>
      <point x="783" y="331"/>
      <point x="810" y="302"/>
      <point x="828" y="264"/>
      <point x="832" y="244" type="qcurve"/>
      <point x="834" y="228"/>
      <point x="836" y="201"/>
      <point x="836" y="187" type="qcurve"/>
      <point x="836" y="167"/>
      <point x="832" y="126"/>
      <point x="820" y="86"/>
      <point x="802" y="49"/>
      <point x="775" y="23"/>
      <point x="739" y="7"/>
      <point x="719" y="9" type="qcurve"/>
      <point x="700" y="11"/>
      <point x="684" y="15" type="qcurve"/>
      <point x="660" y="25"/>
      <point x="632" y="56"/>
      <point x="621" y="94"/>
      <point x="617" y="135"/>
      <point x="617" y="159" type="qcurve"/>
      <point x="615" y="177"/>
      <point x="615" y="215"/>
      <point x="619" y="252"/>
      <point x="630" y="288"/>
    </contour>
    <contour>
      <point x="724" y="48" type="qcurve"/>
      <point x="758" y="50"/>
      <point x="793" y="103"/>
      <point x="799" y="129"/>
      <point x="799" y="146"/>
      <point x="799" y="157" type="qcurve"/>
      <point x="801" y="167"/>
      <point x="801" y="194"/>
      <point x="799" y="239"/>
      <point x="770" y="296"/>
      <point x="731" y="302" type="qcurve"/>
      <point x="687" y="304"/>
      <point x="660" y="256"/>
      <point x="656" y="239"/>
      <point x="652" y="225"/>
      <point x="652" y="213" type="qcurve"/>
      <point x="652" y="189"/>
      <point x="652" y="146"/>
      <point x="656" y="113" type="qcurve"/>
      <point x="664" y="48"/>
    </contour>
  </outline>
</glyph>
<glyph name="guilsinglleft" format="1">
  <advance width="362"/>
  <unicode hex="2039"/>
  <outline>
    <contour>
      <point x="302" y="45" type="line"/>
      <point x="286" y="33" type="line"/>
      <point x="256" y="64"/>
      <point x="212" y="101"/>
      <point x="151" y="161"/>
      <point x="84" y="225"/>
      <point x="56" y="263" type="qcurve"/>
      <point x="75" y="287"/>
      <point x="121" y="336"/>
      <point x="171" y="387"/>
      <point x="221" y="438"/>
      <point x="259" y="477"/>
      <point x="280" y="496" type="qcurve"/>
      <point x="289" y="491"/>
      <point x="307" y="472"/>
      <point x="310" y="465" type="qcurve"/>
      <point x="187" y="336"/>
      <point x="138" y="284"/>
      <point x="119" y="260" type="qcurve"/>
      <point x="169" y="205"/>
      <point x="272" y="105"/>
      <point x="320" y="66" type="qcurve"/>
    </contour>
  </outline>
</glyph>
<glyph name="trademark" format="1">
  <advance width="564"/>
  <unicode hex="2122"/>
  <outline>
    <contour>
      <point x="263" y="643" type="qcurve"/>
      <point x="264" y="631"/>
      <point x="261" y="617" type="qcurve"/>
      <point x="252" y="619"/>
      <point x="212" y="619"/>
      <point x="169" y="619" type="qcurve"/>
      <point x="170" y="613"/>
      <point x="169" y="602"/>
      <point x="169" y="524"/>
      <point x="169" y="486"/>
      <point x="171" y="426"/>
      <point x="171" y="342"/>
      <point x="172" y="286" type="qcurve"/>
      <point x="172" y="285" type="line"/>
      <point x="172" y="285" type="line"/>
      <point x="162" y="284"/>
      <point x="151" y="284"/>
      <point x="138" y="281" type="qcurve"/>
      <point x="138" y="284"/>
      <point x="139" y="316"/>
      <point x="140" y="383"/>
      <point x="138" y="485"/>
      <point x="136" y="613" type="qcurve"/>
      <point x="136" y="617" type="line"/>
      <point x="129" y="617"/>
      <point x="100" y="619"/>
      <point x="66" y="619"/>
      <point x="50" y="619"/>
      <point x="47" y="619" type="qcurve"/>
      <point x="46" y="622"/>
      <point x="43" y="634"/>
      <point x="44" y="647" type="qcurve"/>
      <point x="44" y="647"/>
      <point x="44" y="647"/>
      <point x="44" y="648" type="qcurve"/>
      <point x="97" y="648"/>
      <point x="209" y="649"/>
    </contour>
    <contour>
      <point x="520" y="282" type="line"/>
      <point x="512" y="284"/>
      <point x="501" y="284"/>
      <point x="495" y="284" type="qcurve"/>
      <point x="495" y="306"/>
      <point x="495" y="357"/>
      <point x="496" y="411"/>
      <point x="494" y="462"/>
      <point x="495" y="605" type="qcurve"/>
      <point x="491" y="599"/>
      <point x="483" y="580"/>
      <point x="423" y="459"/>
      <point x="415" y="440"/>
      <point x="413" y="440" type="qcurve"/>
      <point x="402" y="452"/>
      <point x="382" y="496"/>
      <point x="331" y="599"/>
      <point x="331" y="599" type="qcurve"/>
      <point x="333" y="431"/>
      <point x="335" y="332"/>
      <point x="338" y="285" type="qcurve"/>
      <point x="310" y="283" type="line"/>
      <point x="309" y="283"/>
      <point x="308" y="285" type="qcurve"/>
      <point x="308" y="286"/>
      <point x="306" y="302"/>
      <point x="306" y="333"/>
      <point x="306" y="385"/>
      <point x="306" y="462"/>
      <point x="307" y="567"/>
      <point x="308" y="636" type="qcurve"/>
      <point x="314" y="639"/>
      <point x="334" y="639" type="qcurve"/>
      <point x="334" y="639" type="line"/>
      <point x="339" y="633"/>
      <point x="348" y="613"/>
      <point x="397" y="512"/>
      <point x="410" y="484" type="qcurve"/>
      <point x="421" y="503"/>
      <point x="430" y="530"/>
      <point x="485" y="635"/>
      <point x="489" y="641" type="qcurve"/>
      <point x="493" y="640"/>
      <point x="514" y="642"/>
      <point x="522" y="642" type="qcurve"/>
      <point x="520" y="593"/>
      <point x="524" y="496"/>
      <point x="521" y="447" type="qcurve"/>
    </contour>
  </outline>
</glyph>
<glyph name="oneeighth" format="1">
  <advance width="588"/>
  <unicode hex="215B"/>
  <outline>
    <contour>
      <point x="162" y="308" type="qcurve"/>
      <point x="143" y="308"/>
      <point x="129" y="307"/>
      <point x="119" y="308" type="qcurve"/>
      <point x="119" y="308" type="line"/>
      <point x="119" y="355" type="line"/>
      <point x="120" y="405"/>
      <point x="123" y="507"/>
      <point x="125" y="598" type="qcurve"/>
      <point x="125" y="600"/>
      <point x="125" y="606"/>
      <point x="125" y="608" type="qcurve"/>
      <point x="123" y="608"/>
      <point x="119" y="599"/>
      <point x="74" y="524"/>
      <point x="70" y="524" type="qcurve"/>
      <point x="68" y="524"/>
      <point x="34" y="536"/>
      <point x="34" y="538" type="qcurve"/>
      <point x="49" y="565"/>
      <point x="79" y="613"/>
      <point x="97" y="641"/>
      <point x="107" y="655"/>
      <point x="108" y="656" type="qcurve"/>
      <point x="119" y="657"/>
      <point x="165" y="656" type="qcurve"/>
      <point x="166" y="635"/>
      <point x="165" y="594"/>
      <point x="165" y="573" type="qcurve"/>
      <point x="167" y="516"/>
      <point x="162" y="405"/>
      <point x="162" y="348" type="qcurve"/>
      <point x="162" y="340"/>
      <point x="162" y="323"/>
    </contour>
    <contour>
      <point x="243" y="151" type="line"/>
      <point x="249" y="166"/>
      <point x="260" y="196"/>
      <point x="265" y="211" type="qcurve"/>
      <point x="286" y="265"/>
      <point x="323" y="373"/>
      <point x="342" y="428" type="qcurve"/>
      <point x="351" y="455"/>
      <point x="369" y="510"/>
      <point x="379" y="538" type="qcurve"/>
      <point x="401" y="604"/>
      <point x="421" y="669"/>
      <point x="425" y="683" type="qcurve"/>
      <point x="427" y="689"/>
      <point x="429" y="696"/>
      <point x="431" y="701" type="qcurve"/>
      <point x="419" y="707"/>
      <point x="386" y="709" type="qcurve"/>
      <point x="379" y="681"/>
      <point x="363" y="627"/>
      <point x="310" y="467"/>
      <point x="299" y="438" type="qcurve"/>
      <point x="269" y="357"/>
      <point x="235" y="261"/>
      <point x="208" y="189"/>
      <point x="173" y="90" type="qcurve"/>
      <point x="172" y="86"/>
      <point x="160" y="57"/>
      <point x="149" y="25"/>
      <point x="143" y="6"/>
      <point x="140" y="0" type="qcurve"/>
      <point x="180" y="1"/>
      <point x="186" y="2" type="qcurve"/>
      <point x="187" y="3"/>
      <point x="189" y="7" type="qcurve"/>
    </contour>
    <contour>
      <point x="563" y="250" type="line"/>
      <point x="563" y="229"/>
      <point x="545" y="191"/>
      <point x="530" y="177" type="qcurve"/>
      <point x="546" y="163"/>
      <point x="562" y="122"/>
      <point x="562" y="101" type="qcurve"/>
      <point x="562" y="60"/>
      <point x="517" y="2"/>
      <point x="469" y="2" type="qcurve"/>
      <point x="421" y="2"/>
      <point x="373" y="59"/>
      <point x="373" y="104" type="qcurve"/>
      <point x="373" y="124"/>
      <point x="385" y="165"/>
      <point x="399" y="180" type="qcurve"/>
      <point x="376" y="208"/>
      <point x="376" y="251" type="qcurve"/>
      <point x="376" y="269"/>
      <point x="386" y="306"/>
      <point x="404" y="335"/>
      <point x="431" y="354"/>
      <point x="449" y="355" type="qcurve"/>
      <point x="469" y="356"/>
      <point x="507" y="353"/>
      <point x="526" y="343" type="qcurve"/>
      <point x="530" y="341"/>
      <point x="543" y="328"/>
      <point x="555" y="308"/>
      <point x="563" y="281"/>
      <point x="563" y="264" type="qcurve"/>
    </contour>
    <contour>
      <point x="412" y="276" type="line"/>
      <point x="411" y="270"/>
      <point x="411" y="256" type="qcurve"/>
      <point x="411" y="232"/>
      <point x="439" y="195"/>
      <point x="476" y="194" type="qcurve"/>
      <point x="504" y="194"/>
      <point x="537" y="230"/>
      <point x="537" y="253" type="qcurve"/>
      <point x="537" y="276"/>
      <point x="504" y="314"/>
      <point x="469" y="314" type="qcurve"/>
      <point x="459" y="314"/>
      <point x="424" y="306"/>
      <point x="414" y="284" type="qcurve"/>
    </contour>
    <contour>
      <point x="407" y="131" type="qcurve"/>
      <point x="404" y="122"/>
      <point x="404" y="105" type="qcurve"/>
      <point x="404" y="77"/>
      <point x="437" y="28"/>
      <point x="468" y="28" type="qcurve"/>
      <point x="496" y="28"/>
      <point x="527" y="70"/>
      <point x="527" y="95" type="qcurve"/>
      <point x="527" y="122"/>
      <point x="492" y="166"/>
      <point x="457" y="166" type="qcurve"/>
      <point x="441" y="166"/>
      <point x="413" y="148"/>
    </contour>
  </outline>
</glyph>
<glyph name="threeeighths" format="1">
  <advance width="624"/>
  <unicode hex="215C"/>
  <outline>
    <contour>
      <point x="605" y="250" type="line"/>
      <point x="605" y="229"/>
      <point x="587" y="191"/>
      <point x="572" y="177" type="qcurve"/>
      <point x="588" y="163"/>
      <point x="604" y="122"/>
      <point x="604" y="101" type="qcurve"/>
      <point x="604" y="60"/>
      <point x="559" y="2"/>
      <point x="511" y="2" type="qcurve"/>
      <point x="463" y="2"/>
      <point x="415" y="59"/>
      <point x="415" y="104" type="qcurve"/>
      <point x="415" y="124"/>
      <point x="427" y="165"/>
      <point x="441" y="180" type="qcurve"/>
      <point x="418" y="208"/>
      <point x="418" y="251" type="qcurve"/>
      <point x="418" y="269"/>
      <point x="428" y="306"/>
      <point x="446" y="335"/>
      <point x="473" y="354"/>
      <point x="491" y="355" type="qcurve"/>
      <point x="511" y="356"/>
      <point x="549" y="353"/>
      <point x="568" y="343" type="qcurve"/>
      <point x="572" y="341"/>
      <point x="585" y="328"/>
      <point x="597" y="308"/>
      <point x="605" y="281"/>
      <point x="605" y="264" type="qcurve"/>
    </contour>
    <contour>
      <point x="454" y="276" type="line"/>
      <point x="453" y="270"/>
      <point x="453" y="256" type="qcurve"/>
      <point x="453" y="232"/>
      <point x="481" y="195"/>
      <point x="518" y="194" type="qcurve"/>
      <point x="546" y="194"/>
      <point x="579" y="230"/>
      <point x="579" y="253" type="qcurve"/>
      <point x="579" y="276"/>
      <point x="546" y="314"/>
      <point x="511" y="314" type="qcurve"/>
      <point x="501" y="314"/>
      <point x="466" y="306"/>
      <point x="456" y="284" type="qcurve"/>
    </contour>
    <contour>
      <point x="449" y="131" type="qcurve"/>
      <point x="446" y="122"/>
      <point x="446" y="105" type="qcurve"/>
      <point x="446" y="77"/>
      <point x="479" y="28"/>
      <point x="510" y="28" type="qcurve"/>
      <point x="538" y="28"/>
      <point x="569" y="70"/>
      <point x="569" y="95" type="qcurve"/>
      <point x="569" y="122"/>
      <point x="534" y="166"/>
      <point x="499" y="166" type="qcurve"/>
      <point x="483" y="166"/>
      <point x="455" y="148"/>
    </contour>
    <contour>
      <point x="46" y="327" type="qcurve"/>
      <point x="40" y="334"/>
      <point x="32" y="353"/>
      <point x="30" y="363" type="qcurve"/>
      <point x="28" y="374"/>
      <point x="27" y="398"/>
      <point x="26" y="413" type="qcurve"/>
      <point x="26" y="414"/>
      <point x="27" y="414" type="qcurve"/>
      <point x="27" y="414" type="line"/>
      <point x="42" y="413"/>
      <point x="71" y="414" type="qcurve"/>
      <point x="72" y="414" type="line"/>
      <point x="72" y="414" type="line"/>
      <point x="69" y="401"/>
      <point x="84" y="344"/>
      <point x="185" y="344"/>
      <point x="202" y="412"/>
      <point x="196" y="458"/>
      <point x="164" y="470"/>
      <point x="97" y="468"/>
      <point x="85" y="468" type="qcurve"/>
      <point x="82" y="490"/>
      <point x="90" y="510"/>
      <point x="89" y="506" type="qcurve"/>
      <point x="89" y="506" type="line"/>
      <point x="98" y="509"/>
      <point x="164" y="508"/>
      <point x="195" y="507"/>
      <point x="203" y="536"/>
      <point x="194" y="607"/>
      <point x="123" y="615"/>
      <point x="86" y="605"/>
      <point x="65" y="577"/>
      <point x="73" y="547" type="qcurve"/>
      <point x="37" y="547"/>
      <point x="27" y="546"/>
      <point x="26" y="546" type="qcurve"/>
      <point x="26" y="547" type="line"/>
      <point x="26" y="557"/>
      <point x="24" y="582"/>
      <point x="28" y="593" type="qcurve"/>
      <point x="34" y="612"/>
      <point x="64" y="639"/>
      <point x="103" y="654"/>
      <point x="147" y="656"/>
      <point x="188" y="648"/>
      <point x="220" y="628"/>
      <point x="229" y="613" type="qcurve"/>
      <point x="234" y="605"/>
      <point x="237" y="587"/>
      <point x="236" y="578" type="qcurve"/>
      <point x="237" y="535"/>
      <point x="237" y="454"/>
      <point x="235" y="414" type="qcurve"/>
      <point x="234" y="400"/>
      <point x="233" y="371"/>
      <point x="226" y="357" type="qcurve"/>
      <point x="220" y="340"/>
      <point x="195" y="317"/>
      <point x="177" y="311" type="qcurve"/>
      <point x="159" y="306"/>
      <point x="116" y="305"/>
      <point x="97" y="308" type="qcurve"/>
      <point x="90" y="308"/>
      <point x="77" y="313"/>
      <point x="70" y="315" type="qcurve"/>
      <point x="59" y="318"/>
      <point x="47" y="327"/>
    </contour>
    <contour>
      <point x="288" y="151" type="line"/>
      <point x="294" y="166"/>
      <point x="305" y="196"/>
      <point x="310" y="211" type="qcurve"/>
      <point x="331" y="265"/>
      <point x="368" y="373"/>
      <point x="387" y="428" type="qcurve"/>
      <point x="396" y="455"/>
      <point x="414" y="510"/>
      <point x="424" y="538" type="qcurve"/>
      <point x="446" y="604"/>
      <point x="466" y="669"/>
      <point x="470" y="683" type="qcurve"/>
      <point x="472" y="689"/>
      <point x="474" y="696"/>
      <point x="476" y="701" type="qcurve"/>
      <point x="464" y="707"/>
      <point x="431" y="709" type="qcurve"/>
      <point x="424" y="681"/>
      <point x="408" y="627"/>
      <point x="355" y="467"/>
      <point x="344" y="438" type="qcurve"/>
      <point x="314" y="357"/>
      <point x="280" y="261"/>
      <point x="253" y="189"/>
      <point x="218" y="90" type="qcurve"/>
      <point x="217" y="86"/>
      <point x="205" y="57"/>
      <point x="194" y="25"/>
      <point x="188" y="6"/>
      <point x="185" y="0" type="qcurve"/>
      <point x="225" y="1"/>
      <point x="231" y="2" type="qcurve"/>
      <point x="232" y="3"/>
      <point x="234" y="7" type="qcurve"/>
    </contour>
  </outline>
</glyph>
<glyph name="fl" format="1">
  <advance width="562"/>
  <unicode hex="FB02"/>
  <outline>
    <contour>
      <point x="453" y="724" type="line"/>
      <point x="453" y="683"/>
      <point x="451" y="567"/>
      <point x="449" y="435"/>
      <point x="448" y="293"/>
      <point x="448" y="161"/>
      <point x="450" y="46"/>
      <point x="452" y="6" type="qcurve"/>
      <point x="447" y="0"/>
      <point x="425" y="-1"/>
      <point x="409" y="2"/>
      <point x="402" y="0" type="qcurve"/>
      <point x="409" y="90"/>
      <point x="406" y="272"/>
      <point x="403" y="363" type="qcurve"/>
      <point x="402" y="386"/>
      <point x="401" y="401"/>
      <point x="401" y="391" type="qcurve"/>
      <point x="347" y="388"/>
      <point x="233" y="390"/>
      <point x="202" y="391" type="qcurve"/>
      <point x="202" y="2" type="line"/>
      <point x="190" y="3"/>
      <point x="189" y="3" type="qcurve"/>
      <point x="185" y="3" type="line"/>
      <point x="174" y="3"/>
      <point x="161" y="5" type="qcurve"/>
      <point x="159" y="17"/>
      <point x="158" y="72"/>
      <point x="157" y="141"/>
      <point x="157" y="217"/>
      <point x="158" y="288"/>
      <point x="159" y="376"/>
      <point x="159" y="391" type="qcurve"/>
      <point x="143" y="389"/>
      <point x="65" y="392"/>
      <point x="45" y="391" type="qcurve"/>
      <point x="42" y="441" type="line"/>
      <point x="63" y="441"/>
      <point x="141" y="440"/>
      <point x="157" y="439" type="qcurve"/>
      <point x="155" y="504"/>
      <point x="159" y="688"/>
      <point x="245" y="688" type="qcurve"/>
      <point x="357" y="690"/>
      <point x="404" y="688" type="qcurve"/>
      <point x="406" y="707"/>
      <point x="408" y="727" type="qcurve"/>
    </contour>
    <contour>
      <point x="356" y="642" type="qcurve"/>
      <point x="266" y="642" type="line"/>
      <point x="216" y="642"/>
      <point x="204" y="593"/>
      <point x="206" y="436" type="qcurve"/>
      <point x="400" y="438" type="line"/>
      <point x="399" y="545" type="line"/>
      <point x="399" y="593"/>
      <point x="401" y="641" type="qcurve"/>
      <point x="387" y="642"/>
    </contour>
  </outline>
</glyph>
<glyph name="f_f_l" format="1">
  <advance width="1010"/>
  <unicode hex="FB04"/>
  <outline>
    <contour>
      <point x="574" y="2" type="line"/>
      <point x="562" y="3"/>
      <point x="561" y="3" type="qcurve"/>
      <point x="556" y="3" type="line"/>
      <point x="545" y="3"/>
      <point x="531" y="5" type="qcurve"/>
      <point x="529" y="18"/>
      <point x="528" y="76"/>
      <point x="527" y="148"/>
      <point x="527" y="228"/>
      <point x="528" y="303"/>
      <point x="529" y="395"/>
      <point x="529" y="411" type="qcurve"/>
      <point x="512" y="409"/>
      <point x="471" y="410" type="qcurve"/>
      <point x="322" y="408"/>
      <point x="202" y="410"/>
      <point x="169" y="411" type="qcurve"/>
      <point x="169" y="2" type="line"/>
      <point x="157" y="3"/>
      <point x="156" y="3" type="qcurve"/>
      <point x="151" y="3" type="line"/>
      <point x="140" y="3"/>
      <point x="126" y="5" type="qcurve"/>
      <point x="124" y="18"/>
      <point x="123" y="76"/>
      <point x="122" y="148"/>
      <point x="122" y="228"/>
      <point x="123" y="303"/>
      <point x="124" y="395"/>
      <point x="124" y="411" type="qcurve"/>
      <point x="107" y="409"/>
      <point x="25" y="412"/>
      <point x="4" y="411" type="qcurve"/>
      <point x="1" y="464" type="line"/>
      <point x="23" y="464"/>
      <point x="105" y="463"/>
      <point x="122" y="461" type="qcurve"/>
      <point x="120" y="530"/>
      <point x="124" y="723"/>
      <point x="214" y="723" type="qcurve"/>
      <point x="333" y="725"/>
      <point x="383" y="723" type="qcurve"/>
      <point x="388" y="708"/>
      <point x="388" y="689"/>
      <point x="386" y="674" type="qcurve"/>
      <point x="373" y="675"/>
      <point x="331" y="675" type="qcurve"/>
      <point x="237" y="675" type="line"/>
      <point x="184" y="675"/>
      <point x="171" y="623"/>
      <point x="173" y="458" type="qcurve"/>
      <point x="510" y="463"/>
      <point x="527" y="461" type="qcurve"/>
      <point x="525" y="530"/>
      <point x="529" y="723"/>
      <point x="619" y="723" type="qcurve"/>
      <point x="738" y="725"/>
      <point x="788" y="723" type="qcurve"/>
      <point x="793" y="708"/>
      <point x="793" y="689"/>
      <point x="791" y="674" type="qcurve"/>
      <point x="778" y="675"/>
      <point x="736" y="675" type="qcurve"/>
      <point x="642" y="675" type="line"/>
      <point x="589" y="675"/>
      <point x="576" y="623"/>
      <point x="578" y="458" type="qcurve"/>
      <point x="787" y="460" type="line"/>
      <point x="785" y="449"/>
      <point x="783" y="411" type="qcurve"/>
      <point x="727" y="408"/>
      <point x="607" y="410"/>
      <point x="574" y="411" type="qcurve"/>
    </contour>
    <contour>
      <point x="928" y="724" type="line"/>
      <point x="928" y="683"/>
      <point x="926" y="567"/>
      <point x="924" y="435"/>
      <point x="923" y="293"/>
      <point x="923" y="161"/>
      <point x="925" y="46"/>
      <point x="927" y="6" type="qcurve"/>
      <point x="922" y="0"/>
      <point x="900" y="-1"/>
      <point x="884" y="2"/>
      <point x="877" y="0" type="qcurve"/>
      <point x="884" y="90"/>
      <point x="881" y="272"/>
      <point x="875" y="454"/>
      <point x="874" y="636"/>
      <point x="883" y="727" type="qcurve"/>
    </contour>
  </outline>
</glyph>
